<mxfile host="65bd71144e">
    <diagram id="UAFRX9Jbn8M04F9aqXdQ" name="第 1 页">
        <mxGraphModel dx="1442" dy="671" grid="1" gridSize="10" guides="1" tooltips="1" connect="1" arrows="1" fold="1" page="1" pageScale="1" pageWidth="827" pageHeight="1169" math="0" shadow="0">
            <root>
                <mxCell id="0"/>
                <mxCell id="1" parent="0"/>
                <mxCell id="2" value="" style="shape=image;verticalLabelPosition=bottom;labelBackgroundColor=#ffffff;verticalAlign=top;aspect=fixed;imageAspect=0;image=data:image/svg+xml,PHN2ZyB4bWxucz0iaHR0cDovL3d3dy53My5vcmcvMjAwMC9zdmciIHhtbG5zOnhsaW5rPSJodHRwOi8vd3d3LnczLm9yZy8xOTk5L3hsaW5rIiB4bWxuczpzdmdqcz0iaHR0cDovL3N2Z2pzLmNvbS9zdmdqcyIgaWQ9IlN2Z2pzU3ZnMTAwNiIgd2lkdGg9IjEzMzcuMjI0OTkwODQ0NzI2NiIgaGVpZ2h0PSIyMjcyLjkwMDE0NjQ4NDM3NSIgdmVyc2lvbj0iMS4xIiB2aWV3Qm94PSIwIDAgMTMzNy4yMjQ5OTA4NDQ3MjY2IDIyNzIuOTAwMTQ2NDg0Mzc1Ij48ZGVmcyBpZD0iU3ZnanNEZWZzMTAwNyI+PG1hcmtlciBpZD0iU3ZnanNNYXJrZXIxMDI4IiBtYXJrZXJXaWR0aD0iMTQiIG1hcmtlckhlaWdodD0iMTAiIHJlZlg9IjEwIiByZWZZPSI1IiB2aWV3Qm94PSIwIDAgMTQgMTAiIG9yaWVudD0iYXV0byIgbWFya2VyVW5pdHM9InVzZXJTcGFjZU9uVXNlIiBzdHJva2UtZGFzaGFycmF5PSIwLDAiPjxwYXRoIGlkPSJTdmdqc1BhdGgxMDI5IiBkPSJNMCwwIEwxNCw1IEwwLDEwIEwwLDAiIGZpbGw9IiMzMjMyMzIiIHN0cm9rZT0iIzMyMzIzMiIgc3Ryb2tlLXdpZHRoPSIxIi8+PC9tYXJrZXI+PG1hcmtlciBpZD0iU3ZnanNNYXJrZXIxMDMyIiBtYXJrZXJXaWR0aD0iMTQiIG1hcmtlckhlaWdodD0iMTAiIHJlZlg9IjEwIiByZWZZPSI1IiB2aWV3Qm94PSIwIDAgMTQgMTAiIG9yaWVudD0iYXV0byIgbWFya2VyVW5pdHM9InVzZXJTcGFjZU9uVXNlIiBzdHJva2UtZGFzaGFycmF5PSIwLDAiPjxwYXRoIGlkPSJTdmdqc1BhdGgxMDMzIiBkPSJNMCwwIEwxNCw1IEwwLDEwIEwwLDAiIGZpbGw9IiMzMjMyMzIiIHN0cm9rZT0iIzMyMzIzMiIgc3Ryb2tlLXdpZHRoPSIxIi8+PC9tYXJrZXI+PG1hcmtlciBpZD0iU3ZnanNNYXJrZXIxMDUyIiBtYXJrZXJXaWR0aD0iMTQiIG1hcmtlckhlaWdodD0iMTAiIHJlZlg9IjEwIiByZWZZPSI1IiB2aWV3Qm94PSIwIDAgMTQgMTAiIG9yaWVudD0iYXV0byIgbWFya2VyVW5pdHM9InVzZXJTcGFjZU9uVXNlIiBzdHJva2UtZGFzaGFycmF5PSIwLDAiPjxwYXRoIGlkPSJTdmdqc1BhdGgxMDUzIiBkPSJNMCwwIEwxNCw1IEwwLDEwIEwwLDAiIGZpbGw9IiMzMjMyMzIiIHN0cm9rZT0iIzMyMzIzMiIgc3Ryb2tlLXdpZHRoPSIxIi8+PC9tYXJrZXI+PG1hcmtlciBpZD0iU3ZnanNNYXJrZXIxMDc0IiBtYXJrZXJXaWR0aD0iMTQiIG1hcmtlckhlaWdodD0iMTAiIHJlZlg9IjEwIiByZWZZPSI1IiB2aWV3Qm94PSIwIDAgMTQgMTAiIG9yaWVudD0iYXV0byIgbWFya2VyVW5pdHM9InVzZXJTcGFjZU9uVXNlIiBzdHJva2UtZGFzaGFycmF5PSIwLDAiPjxwYXRoIGlkPSJTdmdqc1BhdGgxMDc1IiBkPSJNMCwwIEwxNCw1IEwwLDEwIEwwLDAiIGZpbGw9IiMzMjMyMzIiIHN0cm9rZT0iIzMyMzIzMiIgc3Ryb2tlLXdpZHRoPSIxIi8+PC9tYXJrZXI+PG1hcmtlciBpZD0iU3ZnanNNYXJrZXIxMDgyIiBtYXJrZXJXaWR0aD0iMTQiIG1hcmtlckhlaWdodD0iMTAiIHJlZlg9IjEwIiByZWZZPSI1IiB2aWV3Qm94PSIwIDAgMTQgMTAiIG9yaWVudD0iYXV0byIgbWFya2VyVW5pdHM9InVzZXJTcGFjZU9uVXNlIiBzdHJva2UtZGFzaGFycmF5PSIwLDAiPjxwYXRoIGlkPSJTdmdqc1BhdGgxMDgzIiBkPSJNMCwwIEwxNCw1IEwwLDEwIEwwLDAiIGZpbGw9IiMxOTc2ZDIiIHN0cm9rZT0iIzE5NzZkMiIgc3Ryb2tlLXdpZHRoPSIxIi8+PC9tYXJrZXI+PG1hcmtlciBpZD0iU3ZnanNNYXJrZXIxMTAwIiBtYXJrZXJXaWR0aD0iMTQiIG1hcmtlckhlaWdodD0iMTAiIHJlZlg9IjEwIiByZWZZPSI1IiB2aWV3Qm94PSIwIDAgMTQgMTAiIG9yaWVudD0iYXV0byIgbWFya2VyVW5pdHM9InVzZXJTcGFjZU9uVXNlIiBzdHJva2UtZGFzaGFycmF5PSIwLDAiPjxwYXRoIGlkPSJTdmdqc1BhdGgxMTAxIiBkPSJNMCwwIEwxNCw1IEwwLDEwIEwwLDAiIGZpbGw9IiMzMjMyMzIiIHN0cm9rZT0iIzMyMzIzMiIgc3Ryb2tlLXdpZHRoPSIxIi8+PC9tYXJrZXI+PG1hcmtlciBpZD0iU3ZnanNNYXJrZXIxMTE2IiBtYXJrZXJXaWR0aD0iMTQiIG1hcmtlckhlaWdodD0iMTAiIHJlZlg9IjEwIiByZWZZPSI1IiB2aWV3Qm94PSIwIDAgMTQgMTAiIG9yaWVudD0iYXV0byIgbWFya2VyVW5pdHM9InVzZXJTcGFjZU9uVXNlIiBzdHJva2UtZGFzaGFycmF5PSIwLDAiPjxwYXRoIGlkPSJTdmdqc1BhdGgxMTE3IiBkPSJNMCwwIEwxNCw1IEwwLDEwIEwwLDAiIGZpbGw9IiMxOTc2ZDIiIHN0cm9rZT0iIzE5NzZkMiIgc3Ryb2tlLXdpZHRoPSIxIi8+PC9tYXJrZXI+PG1hcmtlciBpZD0iU3ZnanNNYXJrZXIxMTMyIiBtYXJrZXJXaWR0aD0iMTQiIG1hcmtlckhlaWdodD0iMTAiIHJlZlg9IjEwIiByZWZZPSI1IiB2aWV3Qm94PSIwIDAgMTQgMTAiIG9yaWVudD0iYXV0byIgbWFya2VyVW5pdHM9InVzZXJTcGFjZU9uVXNlIiBzdHJva2UtZGFzaGFycmF5PSIwLDAiPjxwYXRoIGlkPSJTdmdqc1BhdGgxMTMzIiBkPSJNMCwwIEwxNCw1IEwwLDEwIEwwLDAiIGZpbGw9IiMxOTc2ZDIiIHN0cm9rZT0iIzE5NzZkMiIgc3Ryb2tlLXdpZHRoPSIxIi8+PC9tYXJrZXI+PG1hcmtlciBpZD0iU3ZnanNNYXJrZXIxMTM2IiBtYXJrZXJXaWR0aD0iMTQiIG1hcmtlckhlaWdodD0iMTAiIHJlZlg9IjEwIiByZWZZPSI1IiB2aWV3Qm94PSIwIDAgMTQgMTAiIG9yaWVudD0iYXV0byIgbWFya2VyVW5pdHM9InVzZXJTcGFjZU9uVXNlIiBzdHJva2UtZGFzaGFycmF5PSIwLDAiPjxwYXRoIGlkPSJTdmdqc1BhdGgxMTM3IiBkPSJNMCwwIEwxNCw1IEwwLDEwIEwwLDAiIGZpbGw9IiMxOTc2ZDIiIHN0cm9rZT0iIzE5NzZkMiIgc3Ryb2tlLXdpZHRoPSIxIi8+PC9tYXJrZXI+PG1hcmtlciBpZD0iU3ZnanNNYXJrZXIxMTU0IiBtYXJrZXJXaWR0aD0iMTQiIG1hcmtlckhlaWdodD0iMTAiIHJlZlg9IjEwIiByZWZZPSI1IiB2aWV3Qm94PSIwIDAgMTQgMTAiIG9yaWVudD0iYXV0byIgbWFya2VyVW5pdHM9InVzZXJTcGFjZU9uVXNlIiBzdHJva2UtZGFzaGFycmF5PSIwLDAiPjxwYXRoIGlkPSJTdmdqc1BhdGgxMTU1IiBkPSJNMCwwIEwxNCw1IEwwLDEwIEwwLDAiIGZpbGw9IiMzMjMyMzIiIHN0cm9rZT0iIzMyMzIzMiIgc3Ryb2tlLXdpZHRoPSIxIi8+PC9tYXJrZXI+PG1hcmtlciBpZD0iU3ZnanNNYXJrZXIxMTU4IiBtYXJrZXJXaWR0aD0iMTQiIG1hcmtlckhlaWdodD0iMTAiIHJlZlg9IjEwIiByZWZZPSI1IiB2aWV3Qm94PSIwIDAgMTQgMTAiIG9yaWVudD0iYXV0byIgbWFya2VyVW5pdHM9InVzZXJTcGFjZU9uVXNlIiBzdHJva2UtZGFzaGFycmF5PSIwLDAiPjxwYXRoIGlkPSJTdmdqc1BhdGgxMTU5IiBkPSJNMCwwIEwxNCw1IEwwLDEwIEwwLDAiIGZpbGw9IiMzMjMyMzIiIHN0cm9rZT0iIzMyMzIzMiIgc3Ryb2tlLXdpZHRoPSIxIi8+PC9tYXJrZXI+PG1hcmtlciBpZD0iU3ZnanNNYXJrZXIxMTc0IiBtYXJrZXJXaWR0aD0iMTQiIG1hcmtlckhlaWdodD0iMTAiIHJlZlg9IjEwIiByZWZZPSI1IiB2aWV3Qm94PSIwIDAgMTQgMTAiIG9yaWVudD0iYXV0byIgbWFya2VyVW5pdHM9InVzZXJTcGFjZU9uVXNlIiBzdHJva2UtZGFzaGFycmF5PSIwLDAiPjxwYXRoIGlkPSJTdmdqc1BhdGgxMTc1IiBkPSJNMCwwIEwxNCw1IEwwLDEwIEwwLDAiIGZpbGw9IiMzMjMyMzIiIHN0cm9rZT0iIzMyMzIzMiIgc3Ryb2tlLXdpZHRoPSIxIi8+PC9tYXJrZXI+PG1hcmtlciBpZD0iU3ZnanNNYXJrZXIxMTkyIiBtYXJrZXJXaWR0aD0iMTQiIG1hcmtlckhlaWdodD0iMTAiIHJlZlg9IjEwIiByZWZZPSI1IiB2aWV3Qm94PSIwIDAgMTQgMTAiIG9yaWVudD0iYXV0byIgbWFya2VyVW5pdHM9InVzZXJTcGFjZU9uVXNlIiBzdHJva2UtZGFzaGFycmF5PSIwLDAiPjxwYXRoIGlkPSJTdmdqc1BhdGgxMTkzIiBkPSJNMCwwIEwxNCw1IEwwLDEwIEwwLDAiIGZpbGw9IiMzMjMyMzIiIHN0cm9rZT0iIzMyMzIzMiIgc3Ryb2tlLXdpZHRoPSIxIi8+PC9tYXJrZXI+PG1hcmtlciBpZD0iU3ZnanNNYXJrZXIxMjAwIiBtYXJrZXJXaWR0aD0iMTQiIG1hcmtlckhlaWdodD0iMTAiIHJlZlg9IjEwIiByZWZZPSI1IiB2aWV3Qm94PSIwIDAgMTQgMTAiIG9yaWVudD0iYXV0byIgbWFya2VyVW5pdHM9InVzZXJTcGFjZU9uVXNlIiBzdHJva2UtZGFzaGFycmF5PSIwLDAiPjxwYXRoIGlkPSJTdmdqc1BhdGgxMjAxIiBkPSJNMCwwIEwxNCw1IEwwLDEwIEwwLDAiIGZpbGw9IiMxOTc2ZDIiIHN0cm9rZT0iIzE5NzZkMiIgc3Ryb2tlLXdpZHRoPSIxIi8+PC9tYXJrZXI+PG1hcmtlciBpZD0iU3ZnanNNYXJrZXIxMjE2IiBtYXJrZXJXaWR0aD0iMTQiIG1hcmtlckhlaWdodD0iMTAiIHJlZlg9IjEwIiByZWZZPSI1IiB2aWV3Qm94PSIwIDAgMTQgMTAiIG9yaWVudD0iYXV0byIgbWFya2VyVW5pdHM9InVzZXJTcGFjZU9uVXNlIiBzdHJva2UtZGFzaGFycmF5PSIwLDAiPjxwYXRoIGlkPSJTdmdqc1BhdGgxMjE3IiBkPSJNMCwwIEwxNCw1IEwwLDEwIEwwLDAiIGZpbGw9IiMzMjMyMzIiIHN0cm9rZT0iIzMyMzIzMiIgc3Ryb2tlLXdpZHRoPSIxIi8+PC9tYXJrZXI+PG1hcmtlciBpZD0iU3ZnanNNYXJrZXIxMjMwIiBtYXJrZXJXaWR0aD0iMTQiIG1hcmtlckhlaWdodD0iMTAiIHJlZlg9IjEwIiByZWZZPSI1IiB2aWV3Qm94PSIwIDAgMTQgMTAiIG9yaWVudD0iYXV0byIgbWFya2VyVW5pdHM9InVzZXJTcGFjZU9uVXNlIiBzdHJva2UtZGFzaGFycmF5PSIwLDAiPjxwYXRoIGlkPSJTdmdqc1BhdGgxMjMxIiBkPSJNMCwwIEwxNCw1IEwwLDEwIEwwLDAiIGZpbGw9IiMzMjMyMzIiIHN0cm9rZT0iIzMyMzIzMiIgc3Ryb2tlLXdpZHRoPSIxIi8+PC9tYXJrZXI+PG1hcmtlciBpZD0iU3ZnanNNYXJrZXIxMjM0IiBtYXJrZXJXaWR0aD0iMTQiIG1hcmtlckhlaWdodD0iMTAiIHJlZlg9IjEwIiByZWZZPSI1IiB2aWV3Qm94PSIwIDAgMTQgMTAiIG9yaWVudD0iYXV0byIgbWFya2VyVW5pdHM9InVzZXJTcGFjZU9uVXNlIiBzdHJva2UtZGFzaGFycmF5PSIwLDAiPjxwYXRoIGlkPSJTdmdqc1BhdGgxMjM1IiBkPSJNMCwwIEwxNCw1IEwwLDEwIEwwLDAiIGZpbGw9IiMzMjMyMzIiIHN0cm9rZT0iIzMyMzIzMiIgc3Ryb2tlLXdpZHRoPSIxIi8+PC9tYXJrZXI+PG1hcmtlciBpZD0iU3ZnanNNYXJrZXIxMjYyIiBtYXJrZXJXaWR0aD0iMTQiIG1hcmtlckhlaWdodD0iMTAiIHJlZlg9IjEwIiByZWZZPSI1IiB2aWV3Qm94PSIwIDAgMTQgMTAiIG9yaWVudD0iYXV0byIgbWFya2VyVW5pdHM9InVzZXJTcGFjZU9uVXNlIiBzdHJva2UtZGFzaGFycmF5PSIwLDAiPjxwYXRoIGlkPSJTdmdqc1BhdGgxMjYzIiBkPSJNMCwwIEwxNCw1IEwwLDEwIEwwLDAiIGZpbGw9IiMzMjMyMzIiIHN0cm9rZT0iIzMyMzIzMiIgc3Ryb2tlLXdpZHRoPSIxIi8+PC9tYXJrZXI+PG1hcmtlciBpZD0iU3ZnanNNYXJrZXIxMjc2IiBtYXJrZXJXaWR0aD0iMTQiIG1hcmtlckhlaWdodD0iMTAiIHJlZlg9IjEwIiByZWZZPSI1IiB2aWV3Qm94PSIwIDAgMTQgMTAiIG9yaWVudD0iYXV0byIgbWFya2VyVW5pdHM9InVzZXJTcGFjZU9uVXNlIiBzdHJva2UtZGFzaGFycmF5PSIwLDAiPjxwYXRoIGlkPSJTdmdqc1BhdGgxMjc3IiBkPSJNMCwwIEwxNCw1IEwwLDEwIEwwLDAiIGZpbGw9IiMxOTc2ZDIiIHN0cm9rZT0iIzE5NzZkMiIgc3Ryb2tlLXdpZHRoPSIxIi8+PC9tYXJrZXI+PG1hcmtlciBpZD0iU3ZnanNNYXJrZXIxMjk0IiBtYXJrZXJXaWR0aD0iMTQiIG1hcmtlckhlaWdodD0iMTAiIHJlZlg9IjEwIiByZWZZPSI1IiB2aWV3Qm94PSIwIDAgMTQgMTAiIG9yaWVudD0iYXV0byIgbWFya2VyVW5pdHM9InVzZXJTcGFjZU9uVXNlIiBzdHJva2UtZGFzaGFycmF5PSIwLDAiPjxwYXRoIGlkPSJTdmdqc1BhdGgxMjk1IiBkPSJNMCwwIEwxNCw1IEwwLDEwIEwwLDAiIGZpbGw9IiMzMjMyMzIiIHN0cm9rZT0iIzMyMzIzMiIgc3Ryb2tlLXdpZHRoPSIxIi8+PC9tYXJrZXI+PG1hcmtlciBpZD0iU3ZnanNNYXJrZXIxMzEwIiBtYXJrZXJXaWR0aD0iMTQiIG1hcmtlckhlaWdodD0iMTAiIHJlZlg9IjEwIiByZWZZPSI1IiB2aWV3Qm94PSIwIDAgMTQgMTAiIG9yaWVudD0iYXV0byIgbWFya2VyVW5pdHM9InVzZXJTcGFjZU9uVXNlIiBzdHJva2UtZGFzaGFycmF5PSIwLDAiPjxwYXRoIGlkPSJTdmdqc1BhdGgxMzExIiBkPSJNMCwwIEwxNCw1IEwwLDEwIEwwLDAiIGZpbGw9IiMzMjMyMzIiIHN0cm9rZT0iIzMyMzIzMiIgc3Ryb2tlLXdpZHRoPSIxIi8+PC9tYXJrZXI+PG1hcmtlciBpZD0iU3ZnanNNYXJrZXIxMzMyIiBtYXJrZXJXaWR0aD0iMTQiIG1hcmtlckhlaWdodD0iMTAiIHJlZlg9IjEwIiByZWZZPSI1IiB2aWV3Qm94PSIwIDAgMTQgMTAiIG9yaWVudD0iYXV0byIgbWFya2VyVW5pdHM9InVzZXJTcGFjZU9uVXNlIiBzdHJva2UtZGFzaGFycmF5PSIwLDAiPjxwYXRoIGlkPSJTdmdqc1BhdGgxMzMzIiBkPSJNMCwwIEwxNCw1IEwwLDEwIEwwLDAiIGZpbGw9IiMzMjMyMzIiIHN0cm9rZT0iIzMyMzIzMiIgc3Ryb2tlLXdpZHRoPSIxIi8+PC9tYXJrZXI+PG1hcmtlciBpZD0iU3ZnanNNYXJrZXIxMzM2IiBtYXJrZXJXaWR0aD0iMTQiIG1hcmtlckhlaWdodD0iMTAiIHJlZlg9IjEwIiByZWZZPSI1IiB2aWV3Qm94PSIwIDAgMTQgMTAiIG9yaWVudD0iYXV0byIgbWFya2VyVW5pdHM9InVzZXJTcGFjZU9uVXNlIiBzdHJva2UtZGFzaGFycmF5PSIwLDAiPjxwYXRoIGlkPSJTdmdqc1BhdGgxMzM3IiBkPSJNMCwwIEwxNCw1IEwwLDEwIEwwLDAiIGZpbGw9IiMxOTc2ZDIiIHN0cm9rZT0iIzE5NzZkMiIgc3Ryb2tlLXdpZHRoPSIxIi8+PC9tYXJrZXI+PG1hcmtlciBpZD0iU3ZnanNNYXJrZXIxMzQwIiBtYXJrZXJXaWR0aD0iMTQiIG1hcmtlckhlaWdodD0iMTAiIHJlZlg9IjEwIiByZWZZPSI1IiB2aWV3Qm94PSIwIDAgMTQgMTAiIG9yaWVudD0iYXV0byIgbWFya2VyVW5pdHM9InVzZXJTcGFjZU9uVXNlIiBzdHJva2UtZGFzaGFycmF5PSIwLDAiPjxwYXRoIGlkPSJTdmdqc1BhdGgxMzQxIiBkPSJNMCwwIEwxNCw1IEwwLDEwIEwwLDAiIGZpbGw9IiMzMjMyMzIiIHN0cm9rZT0iIzMyMzIzMiIgc3Ryb2tlLXdpZHRoPSIxIi8+PC9tYXJrZXI+PG1hcmtlciBpZD0iU3ZnanNNYXJrZXIxMzU2IiBtYXJrZXJXaWR0aD0iMTQiIG1hcmtlckhlaWdodD0iMTAiIHJlZlg9IjEwIiByZWZZPSI1IiB2aWV3Qm94PSIwIDAgMTQgMTAiIG9yaWVudD0iYXV0byIgbWFya2VyVW5pdHM9InVzZXJTcGFjZU9uVXNlIiBzdHJva2UtZGFzaGFycmF5PSIwLDAiPjxwYXRoIGlkPSJTdmdqc1BhdGgxMzU3IiBkPSJNMCwwIEwxNCw1IEwwLDEwIEwwLDAiIGZpbGw9IiMzMjMyMzIiIHN0cm9rZT0iIzMyMzIzMiIgc3Ryb2tlLXdpZHRoPSIxIi8+PC9tYXJrZXI+PG1hcmtlciBpZD0iU3ZnanNNYXJrZXIxMzY0IiBtYXJrZXJXaWR0aD0iMTQiIG1hcmtlckhlaWdodD0iMTAiIHJlZlg9IjEwIiByZWZZPSI1IiB2aWV3Qm94PSIwIDAgMTQgMTAiIG9yaWVudD0iYXV0byIgbWFya2VyVW5pdHM9InVzZXJTcGFjZU9uVXNlIiBzdHJva2UtZGFzaGFycmF5PSIwLDAiPjxwYXRoIGlkPSJTdmdqc1BhdGgxMzY1IiBkPSJNMCwwIEwxNCw1IEwwLDEwIEwwLDAiIGZpbGw9IiMzMjMyMzIiIHN0cm9rZT0iIzMyMzIzMiIgc3Ryb2tlLXdpZHRoPSIxIi8+PC9tYXJrZXI+PG1hcmtlciBpZD0iU3ZnanNNYXJrZXIxMzY4IiBtYXJrZXJXaWR0aD0iMTYiIG1hcmtlckhlaWdodD0iMTIiIHJlZlg9IjAiIHJlZlk9IjYiIHZpZXdCb3g9IjAgMCAxNiAxMiIgb3JpZW50PSJhdXRvIiBtYXJrZXJVbml0cz0idXNlclNwYWNlT25Vc2UiIHN0cm9rZS1kYXNoYXJyYXk9IjAsMCI+PHBhdGggaWQ9IlN2Z2pzUGF0aDEzNjkiIGQ9Ik0xLDYgTDE1LDEgTDE1LDExTDEsNiIgZmlsbD0iI2ZmZmZmZiIgc3Ryb2tlPSIjNGNhZjUwIiBzdHJva2Utd2lkdGg9IjIiLz48L21hcmtlcj48bWFya2VyIGlkPSJTdmdqc01hcmtlcjEzNzAiIG1hcmtlcldpZHRoPSIxNCIgbWFya2VySGVpZ2h0PSIxMiIgcmVmWD0iMTYiIHJlZlk9IjYiIHZpZXdCb3g9IjAgMCAxNCAxMiIgb3JpZW50PSJhdXRvIiBtYXJrZXJVbml0cz0idXNlclNwYWNlT25Vc2UiIHN0cm9rZS1kYXNoYXJyYXk9IjAsMCI+PHBhdGggaWQ9IlN2Z2pzUGF0aDEzNzEiIGQ9Ik0xLDEgTDE0LDYgTDEsMTFMMSwxIiBmaWxsPSIjZmZmZmZmIiBzdHJva2U9IiM0Y2FmNTAiIHN0cm9rZS13aWR0aD0iMiIvPjwvbWFya2VyPjxtYXJrZXIgaWQ9IlN2Z2pzTWFya2VyMTM5MiIgbWFya2VyV2lkdGg9IjE0IiBtYXJrZXJIZWlnaHQ9IjEwIiByZWZYPSIxMCIgcmVmWT0iNSIgdmlld0JveD0iMCAwIDE0IDEwIiBvcmllbnQ9ImF1dG8iIG1hcmtlclVuaXRzPSJ1c2VyU3BhY2VPblVzZSIgc3Ryb2tlLWRhc2hhcnJheT0iMCwwIj48cGF0aCBpZD0iU3ZnanNQYXRoMTM5MyIgZD0iTTAsMCBMMTQsNSBMMCwxMCBMMCwwIiBmaWxsPSIjMzIzMjMyIiBzdHJva2U9IiMzMjMyMzIiIHN0cm9rZS13aWR0aD0iMSIvPjwvbWFya2VyPjxtYXJrZXIgaWQ9IlN2Z2pzTWFya2VyMTQyMCIgbWFya2VyV2lkdGg9IjE0IiBtYXJrZXJIZWlnaHQ9IjEwIiByZWZYPSIxMCIgcmVmWT0iNSIgdmlld0JveD0iMCAwIDE0IDEwIiBvcmllbnQ9ImF1dG8iIG1hcmtlclVuaXRzPSJ1c2VyU3BhY2VPblVzZSIgc3Ryb2tlLWRhc2hhcnJheT0iMCwwIj48cGF0aCBpZD0iU3ZnanNQYXRoMTQyMSIgZD0iTTAsMCBMMTQsNSBMMCwxMCBMMCwwIiBmaWxsPSIjMzIzMjMyIiBzdHJva2U9IiMzMjMyMzIiIHN0cm9rZS13aWR0aD0iMSIvPjwvbWFya2VyPjxtYXJrZXIgaWQ9IlN2Z2pzTWFya2VyMTQzOCIgbWFya2VyV2lkdGg9IjE0IiBtYXJrZXJIZWlnaHQ9IjEwIiByZWZYPSIxMCIgcmVmWT0iNSIgdmlld0JveD0iMCAwIDE0IDEwIiBvcmllbnQ9ImF1dG8iIG1hcmtlclVuaXRzPSJ1c2VyU3BhY2VPblVzZSIgc3Ryb2tlLWRhc2hhcnJheT0iMCwwIj48cGF0aCBpZD0iU3ZnanNQYXRoMTQzOSIgZD0iTTAsMCBMMTQsNSBMMCwxMCBMMCwwIiBmaWxsPSIjMzIzMjMyIiBzdHJva2U9IiMzMjMyMzIiIHN0cm9rZS13aWR0aD0iMSIvPjwvbWFya2VyPjxtYXJrZXIgaWQ9IlN2Z2pzTWFya2VyMTQ1MiIgbWFya2VyV2lkdGg9IjE0IiBtYXJrZXJIZWlnaHQ9IjEwIiByZWZYPSIxMCIgcmVmWT0iNSIgdmlld0JveD0iMCAwIDE0IDEwIiBvcmllbnQ9ImF1dG8iIG1hcmtlclVuaXRzPSJ1c2VyU3BhY2VPblVzZSIgc3Ryb2tlLWRhc2hhcnJheT0iMCwwIj48cGF0aCBpZD0iU3ZnanNQYXRoMTQ1MyIgZD0iTTAsMCBMMTQsNSBMMCwxMCBMMCwwIiBmaWxsPSIjMzIzMjMyIiBzdHJva2U9IiMzMjMyMzIiIHN0cm9rZS13aWR0aD0iMSIvPjwvbWFya2VyPjxtYXJrZXIgaWQ9IlN2Z2pzTWFya2VyMTQ4NiIgbWFya2VyV2lkdGg9IjE0IiBtYXJrZXJIZWlnaHQ9IjEwIiByZWZYPSIxMCIgcmVmWT0iNSIgdmlld0JveD0iMCAwIDE0IDEwIiBvcmllbnQ9ImF1dG8iIG1hcmtlclVuaXRzPSJ1c2VyU3BhY2VPblVzZSIgc3Ryb2tlLWRhc2hhcnJheT0iMCwwIj48cGF0aCBpZD0iU3ZnanNQYXRoMTQ4NyIgZD0iTTAsMCBMMTQsNSBMMCwxMCBMMCwwIiBmaWxsPSIjMzIzMjMyIiBzdHJva2U9IiMzMjMyMzIiIHN0cm9rZS13aWR0aD0iMSIvPjwvbWFya2VyPjxtYXJrZXIgaWQ9IlN2Z2pzTWFya2VyMTUwMCIgbWFya2VyV2lkdGg9IjE0IiBtYXJrZXJIZWlnaHQ9IjEwIiByZWZYPSIxMCIgcmVmWT0iNSIgdmlld0JveD0iMCAwIDE0IDEwIiBvcmllbnQ9ImF1dG8iIG1hcmtlclVuaXRzPSJ1c2VyU3BhY2VPblVzZSIgc3Ryb2tlLWRhc2hhcnJheT0iMCwwIj48cGF0aCBpZD0iU3ZnanNQYXRoMTUwMSIgZD0iTTAsMCBMMTQsNSBMMCwxMCBMMCwwIiBmaWxsPSIjMzIzMjMyIiBzdHJva2U9IiMzMjMyMzIiIHN0cm9rZS13aWR0aD0iMSIvPjwvbWFya2VyPjxtYXJrZXIgaWQ9IlN2Z2pzTWFya2VyMTUxMiIgbWFya2VyV2lkdGg9IjE0IiBtYXJrZXJIZWlnaHQ9IjEwIiByZWZYPSIxMCIgcmVmWT0iNSIgdmlld0JveD0iMCAwIDE0IDEwIiBvcmllbnQ9ImF1dG8iIG1hcmtlclVuaXRzPSJ1c2VyU3BhY2VPblVzZSIgc3Ryb2tlLWRhc2hhcnJheT0iMCwwIj48cGF0aCBpZD0iU3ZnanNQYXRoMTUxMyIgZD0iTTAsMCBMMTQsNSBMMCwxMCBMMCwwIiBmaWxsPSIjMTk3NmQyIiBzdHJva2U9IiMxOTc2ZDIiIHN0cm9rZS13aWR0aD0iMSIvPjwvbWFya2VyPjxtYXJrZXIgaWQ9IlN2Z2pzTWFya2VyMTUyMCIgbWFya2VyV2lkdGg9IjE0IiBtYXJrZXJIZWlnaHQ9IjEwIiByZWZYPSIxMCIgcmVmWT0iNSIgdmlld0JveD0iMCAwIDE0IDEwIiBvcmllbnQ9ImF1dG8iIG1hcmtlclVuaXRzPSJ1c2VyU3BhY2VPblVzZSIgc3Ryb2tlLWRhc2hhcnJheT0iMCwwIj48cGF0aCBpZD0iU3ZnanNQYXRoMTUyMSIgZD0iTTAsMCBMMTQsNSBMMCwxMCBMMCwwIiBmaWxsPSIjMTk3NmQyIiBzdHJva2U9IiMxOTc2ZDIiIHN0cm9rZS13aWR0aD0iMSIvPjwvbWFya2VyPjxtYXJrZXIgaWQ9IlN2Z2pzTWFya2VyMTUzNiIgbWFya2VyV2lkdGg9IjE0IiBtYXJrZXJIZWlnaHQ9IjEwIiByZWZYPSIxMCIgcmVmWT0iNSIgdmlld0JveD0iMCAwIDE0IDEwIiBvcmllbnQ9ImF1dG8iIG1hcmtlclVuaXRzPSJ1c2VyU3BhY2VPblVzZSIgc3Ryb2tlLWRhc2hhcnJheT0iMCwwIj48cGF0aCBpZD0iU3ZnanNQYXRoMTUzNyIgZD0iTTAsMCBMMTQsNSBMMCwxMCBMMCwwIiBmaWxsPSIjMTk3NmQyIiBzdHJva2U9IiMxOTc2ZDIiIHN0cm9rZS13aWR0aD0iMSIvPjwvbWFya2VyPjxtYXJrZXIgaWQ9IlN2Z2pzTWFya2VyMTU1MCIgbWFya2VyV2lkdGg9IjE0IiBtYXJrZXJIZWlnaHQ9IjEwIiByZWZYPSIxMCIgcmVmWT0iNSIgdmlld0JveD0iMCAwIDE0IDEwIiBvcmllbnQ9ImF1dG8iIG1hcmtlclVuaXRzPSJ1c2VyU3BhY2VPblVzZSIgc3Ryb2tlLWRhc2hhcnJheT0iMCwwIj48cGF0aCBpZD0iU3ZnanNQYXRoMTU1MSIgZD0iTTAsMCBMMTQsNSBMMCwxMCBMMCwwIiBmaWxsPSIjMTk3NmQyIiBzdHJva2U9IiMxOTc2ZDIiIHN0cm9rZS13aWR0aD0iMSIvPjwvbWFya2VyPjxtYXJrZXIgaWQ9IlN2Z2pzTWFya2VyMTU1NCIgbWFya2VyV2lkdGg9IjE0IiBtYXJrZXJIZWlnaHQ9IjEwIiByZWZYPSIxMCIgcmVmWT0iNSIgdmlld0JveD0iMCAwIDE0IDEwIiBvcmllbnQ9ImF1dG8iIG1hcmtlclVuaXRzPSJ1c2VyU3BhY2VPblVzZSIgc3Ryb2tlLWRhc2hhcnJheT0iMCwwIj48cGF0aCBpZD0iU3ZnanNQYXRoMTU1NSIgZD0iTTAsMCBMMTQsNSBMMCwxMCBMMCwwIiBmaWxsPSIjMTk3NmQyIiBzdHJva2U9IiMxOTc2ZDIiIHN0cm9rZS13aWR0aD0iMSIvPjwvbWFya2VyPjxtYXJrZXIgaWQ9IlN2Z2pzTWFya2VyMTYxMiIgbWFya2VyV2lkdGg9IjE0IiBtYXJrZXJIZWlnaHQ9IjEwIiByZWZYPSIxMCIgcmVmWT0iNSIgdmlld0JveD0iMCAwIDE0IDEwIiBvcmllbnQ9ImF1dG8iIG1hcmtlclVuaXRzPSJ1c2VyU3BhY2VPblVzZSIgc3Ryb2tlLWRhc2hhcnJheT0iMCwwIj48cGF0aCBpZD0iU3ZnanNQYXRoMTYxMyIgZD0iTTAsMCBMMTQsNSBMMCwxMCBMMCwwIiBmaWxsPSIjMzIzMjMyIiBzdHJva2U9IiMzMjMyMzIiIHN0cm9rZS13aWR0aD0iMSIvPjwvbWFya2VyPjxtYXJrZXIgaWQ9IlN2Z2pzTWFya2VyMTYyNiIgbWFya2VyV2lkdGg9IjE0IiBtYXJrZXJIZWlnaHQ9IjEwIiByZWZYPSIxMCIgcmVmWT0iNSIgdmlld0JveD0iMCAwIDE0IDEwIiBvcmllbnQ9ImF1dG8iIG1hcmtlclVuaXRzPSJ1c2VyU3BhY2VPblVzZSIgc3Ryb2tlLWRhc2hhcnJheT0iMCwwIj48cGF0aCBpZD0iU3ZnanNQYXRoMTYyNyIgZD0iTTAsMCBMMTQsNSBMMCwxMCBMMCwwIiBmaWxsPSIjMzIzMjMyIiBzdHJva2U9IiMzMjMyMzIiIHN0cm9rZS13aWR0aD0iMSIvPjwvbWFya2VyPjxtYXJrZXIgaWQ9IlN2Z2pzTWFya2VyMTY0MCIgbWFya2VyV2lkdGg9IjE0IiBtYXJrZXJIZWlnaHQ9IjEwIiByZWZYPSIxMCIgcmVmWT0iNSIgdmlld0JveD0iMCAwIDE0IDEwIiBvcmllbnQ9ImF1dG8iIG1hcmtlclVuaXRzPSJ1c2VyU3BhY2VPblVzZSIgc3Ryb2tlLWRhc2hhcnJheT0iMCwwIj48cGF0aCBpZD0iU3ZnanNQYXRoMTY0MSIgZD0iTTAsMCBMMTQsNSBMMCwxMCBMMCwwIiBmaWxsPSIjMzIzMjMyIiBzdHJva2U9IiMzMjMyMzIiIHN0cm9rZS13aWR0aD0iMSIvPjwvbWFya2VyPjxtYXJrZXIgaWQ9IlN2Z2pzTWFya2VyMTY1OCIgbWFya2VyV2lkdGg9IjE0IiBtYXJrZXJIZWlnaHQ9IjEwIiByZWZYPSIxMCIgcmVmWT0iNSIgdmlld0JveD0iMCAwIDE0IDEwIiBvcmllbnQ9ImF1dG8iIG1hcmtlclVuaXRzPSJ1c2VyU3BhY2VPblVzZSIgc3Ryb2tlLWRhc2hhcnJheT0iMCwwIj48cGF0aCBpZD0iU3ZnanNQYXRoMTY1OSIgZD0iTTAsMCBMMTQsNSBMMCwxMCBMMCwwIiBmaWxsPSIjMzIzMjMyIiBzdHJva2U9IiMzMjMyMzIiIHN0cm9rZS13aWR0aD0iMSIvPjwvbWFya2VyPjxtYXJrZXIgaWQ9IlN2Z2pzTWFya2VyMTY3NCIgbWFya2VyV2lkdGg9IjE0IiBtYXJrZXJIZWlnaHQ9IjEwIiByZWZYPSIxMCIgcmVmWT0iNSIgdmlld0JveD0iMCAwIDE0IDEwIiBvcmllbnQ9ImF1dG8iIG1hcmtlclVuaXRzPSJ1c2VyU3BhY2VPblVzZSIgc3Ryb2tlLWRhc2hhcnJheT0iMCwwIj48cGF0aCBpZD0iU3ZnanNQYXRoMTY3NSIgZD0iTTAsMCBMMTQsNSBMMCwxMCBMMCwwIiBmaWxsPSIjMzIzMjMyIiBzdHJva2U9IiMzMjMyMzIiIHN0cm9rZS13aWR0aD0iMSIvPjwvbWFya2VyPjxtYXJrZXIgaWQ9IlN2Z2pzTWFya2VyMTcwNyIgbWFya2VyV2lkdGg9IjE0IiBtYXJrZXJIZWlnaHQ9IjEwIiByZWZYPSIxMCIgcmVmWT0iNSIgdmlld0JveD0iMCAwIDE0IDEwIiBvcmllbnQ9ImF1dG8iIG1hcmtlclVuaXRzPSJ1c2VyU3BhY2VPblVzZSIgc3Ryb2tlLWRhc2hhcnJheT0iMCwwIj48cGF0aCBpZD0iU3ZnanNQYXRoMTcwOCIgZD0iTTAsMCBMMTQsNSBMMCwxMCBMMCwwIiBmaWxsPSIjMTk3NmQyIiBzdHJva2U9IiMxOTc2ZDIiIHN0cm9rZS13aWR0aD0iMSIvPjwvbWFya2VyPjxtYXJrZXIgaWQ9IlN2Z2pzTWFya2VyMTcxMSIgbWFya2VyV2lkdGg9IjE0IiBtYXJrZXJIZWlnaHQ9IjEwIiByZWZYPSIxMCIgcmVmWT0iNSIgdmlld0JveD0iMCAwIDE0IDEwIiBvcmllbnQ9ImF1dG8iIG1hcmtlclVuaXRzPSJ1c2VyU3BhY2VPblVzZSIgc3Ryb2tlLWRhc2hhcnJheT0iMCwwIj48cGF0aCBpZD0iU3ZnanNQYXRoMTcxMiIgZD0iTTAsMCBMMTQsNSBMMCwxMCBMMCwwIiBmaWxsPSIjMTk3NmQyIiBzdHJva2U9IiMxOTc2ZDIiIHN0cm9rZS13aWR0aD0iMSIvPjwvbWFya2VyPjxtYXJrZXIgaWQ9IlN2Z2pzTWFya2VyMTcyNyIgbWFya2VyV2lkdGg9IjE0IiBtYXJrZXJIZWlnaHQ9IjEwIiByZWZYPSIxMCIgcmVmWT0iNSIgdmlld0JveD0iMCAwIDE0IDEwIiBvcmllbnQ9ImF1dG8iIG1hcmtlclVuaXRzPSJ1c2VyU3BhY2VPblVzZSIgc3Ryb2tlLWRhc2hhcnJheT0iMCwwIj48cGF0aCBpZD0iU3ZnanNQYXRoMTcyOCIgZD0iTTAsMCBMMTQsNSBMMCwxMCBMMCwwIiBmaWxsPSIjMTk3NmQyIiBzdHJva2U9IiMxOTc2ZDIiIHN0cm9rZS13aWR0aD0iMSIvPjwvbWFya2VyPjxtYXJrZXIgaWQ9IlN2Z2pzTWFya2VyMTc0MyIgbWFya2VyV2lkdGg9IjE0IiBtYXJrZXJIZWlnaHQ9IjEwIiByZWZYPSIxMCIgcmVmWT0iNSIgdmlld0JveD0iMCAwIDE0IDEwIiBvcmllbnQ9ImF1dG8iIG1hcmtlclVuaXRzPSJ1c2VyU3BhY2VPblVzZSIgc3Ryb2tlLWRhc2hhcnJheT0iMCwwIj48cGF0aCBpZD0iU3ZnanNQYXRoMTc0NCIgZD0iTTAsMCBMMTQsNSBMMCwxMCBMMCwwIiBmaWxsPSIjMTk3NmQyIiBzdHJva2U9IiMxOTc2ZDIiIHN0cm9rZS13aWR0aD0iMSIvPjwvbWFya2VyPjxtYXJrZXIgaWQ9IlN2Z2pzTWFya2VyMTc0NyIgbWFya2VyV2lkdGg9IjE0IiBtYXJrZXJIZWlnaHQ9IjEwIiByZWZYPSIxMCIgcmVmWT0iNSIgdmlld0JveD0iMCAwIDE0IDEwIiBvcmllbnQ9ImF1dG8iIG1hcmtlclVuaXRzPSJ1c2VyU3BhY2VPblVzZSIgc3Ryb2tlLWRhc2hhcnJheT0iMCwwIj48cGF0aCBpZD0iU3ZnanNQYXRoMTc0OCIgZD0iTTAsMCBMMTQsNSBMMCwxMCBMMCwwIiBmaWxsPSIjMzIzMjMyIiBzdHJva2U9IiMzMjMyMzIiIHN0cm9rZS13aWR0aD0iMSIvPjwvbWFya2VyPjxtYXJrZXIgaWQ9IlN2Z2pzTWFya2VyMTc3MiIgbWFya2VyV2lkdGg9IjE0IiBtYXJrZXJIZWlnaHQ9IjEwIiByZWZYPSIxMCIgcmVmWT0iNSIgdmlld0JveD0iMCAwIDE0IDEwIiBvcmllbnQ9ImF1dG8iIG1hcmtlclVuaXRzPSJ1c2VyU3BhY2VPblVzZSIgc3Ryb2tlLWRhc2hhcnJheT0iMCwwIj48cGF0aCBpZD0iU3ZnanNQYXRoMTc3MyIgZD0iTTAsMCBMMTQsNSBMMCwxMCBMMCwwIiBmaWxsPSIjMzIzMjMyIiBzdHJva2U9IiMzMjMyMzIiIHN0cm9rZS13aWR0aD0iMSIvPjwvbWFya2VyPjxtYXJrZXIgaWQ9IlN2Z2pzTWFya2VyMTc5NCIgbWFya2VyV2lkdGg9IjE0IiBtYXJrZXJIZWlnaHQ9IjEwIiByZWZYPSIxMCIgcmVmWT0iNSIgdmlld0JveD0iMCAwIDE0IDEwIiBvcmllbnQ9ImF1dG8iIG1hcmtlclVuaXRzPSJ1c2VyU3BhY2VPblVzZSIgc3Ryb2tlLWRhc2hhcnJheT0iMCwwIj48cGF0aCBpZD0iU3ZnanNQYXRoMTc5NSIgZD0iTTAsMCBMMTQsNSBMMCwxMCBMMCwwIiBmaWxsPSIjMzIzMjMyIiBzdHJva2U9IiMzMjMyMzIiIHN0cm9rZS13aWR0aD0iMSIvPjwvbWFya2VyPjxtYXJrZXIgaWQ9IlN2Z2pzTWFya2VyMTgxNCIgbWFya2VyV2lkdGg9IjE0IiBtYXJrZXJIZWlnaHQ9IjEwIiByZWZYPSIxMCIgcmVmWT0iNSIgdmlld0JveD0iMCAwIDE0IDEwIiBvcmllbnQ9ImF1dG8iIG1hcmtlclVuaXRzPSJ1c2VyU3BhY2VPblVzZSIgc3Ryb2tlLWRhc2hhcnJheT0iMCwwIj48cGF0aCBpZD0iU3ZnanNQYXRoMTgxNSIgZD0iTTAsMCBMMTQsNSBMMCwxMCBMMCwwIiBmaWxsPSIjMzIzMjMyIiBzdHJva2U9IiMzMjMyMzIiIHN0cm9rZS13aWR0aD0iMSIvPjwvbWFya2VyPjxtYXJrZXIgaWQ9IlN2Z2pzTWFya2VyMTgzNCIgbWFya2VyV2lkdGg9IjE0IiBtYXJrZXJIZWlnaHQ9IjEwIiByZWZYPSIxMCIgcmVmWT0iNSIgdmlld0JveD0iMCAwIDE0IDEwIiBvcmllbnQ9ImF1dG8iIG1hcmtlclVuaXRzPSJ1c2VyU3BhY2VPblVzZSIgc3Ryb2tlLWRhc2hhcnJheT0iMCwwIj48cGF0aCBpZD0iU3ZnanNQYXRoMTgzNSIgZD0iTTAsMCBMMTQsNSBMMCwxMCBMMCwwIiBmaWxsPSIjMzIzMjMyIiBzdHJva2U9IiMzMjMyMzIiIHN0cm9rZS13aWR0aD0iMSIvPjwvbWFya2VyPjxtYXJrZXIgaWQ9IlN2Z2pzTWFya2VyMTgzOCIgbWFya2VyV2lkdGg9IjE0IiBtYXJrZXJIZWlnaHQ9IjEwIiByZWZYPSIxMCIgcmVmWT0iNSIgdmlld0JveD0iMCAwIDE0IDEwIiBvcmllbnQ9ImF1dG8iIG1hcmtlclVuaXRzPSJ1c2VyU3BhY2VPblVzZSIgc3Ryb2tlLWRhc2hhcnJheT0iMCwwIj48cGF0aCBpZD0iU3ZnanNQYXRoMTgzOSIgZD0iTTAsMCBMMTQsNSBMMCwxMCBMMCwwIiBmaWxsPSIjMzIzMjMyIiBzdHJva2U9IiMzMjMyMzIiIHN0cm9rZS13aWR0aD0iMSIvPjwvbWFya2VyPjxtYXJrZXIgaWQ9IlN2Z2pzTWFya2VyMTg1MiIgbWFya2VyV2lkdGg9IjE0IiBtYXJrZXJIZWlnaHQ9IjEwIiByZWZYPSIxMCIgcmVmWT0iNSIgdmlld0JveD0iMCAwIDE0IDEwIiBvcmllbnQ9ImF1dG8iIG1hcmtlclVuaXRzPSJ1c2VyU3BhY2VPblVzZSIgc3Ryb2tlLWRhc2hhcnJheT0iMCwwIj48cGF0aCBpZD0iU3ZnanNQYXRoMTg1MyIgZD0iTTAsMCBMMTQsNSBMMCwxMCBMMCwwIiBmaWxsPSIjMzIzMjMyIiBzdHJva2U9IiMzMjMyMzIiIHN0cm9rZS13aWR0aD0iMSIvPjwvbWFya2VyPjxtYXJrZXIgaWQ9IlN2Z2pzTWFya2VyMTg3NCIgbWFya2VyV2lkdGg9IjE0IiBtYXJrZXJIZWlnaHQ9IjEwIiByZWZYPSIxMCIgcmVmWT0iNSIgdmlld0JveD0iMCAwIDE0IDEwIiBvcmllbnQ9ImF1dG8iIG1hcmtlclVuaXRzPSJ1c2VyU3BhY2VPblVzZSIgc3Ryb2tlLWRhc2hhcnJheT0iMCwwIj48cGF0aCBpZD0iU3ZnanNQYXRoMTg3NSIgZD0iTTAsMCBMMTQsNSBMMCwxMCBMMCwwIiBmaWxsPSIjMzIzMjMyIiBzdHJva2U9IiMzMjMyMzIiIHN0cm9rZS13aWR0aD0iMSIvPjwvbWFya2VyPjxtYXJrZXIgaWQ9IlN2Z2pzTWFya2VyMTkwNCIgbWFya2VyV2lkdGg9IjE0IiBtYXJrZXJIZWlnaHQ9IjEwIiByZWZYPSIxMCIgcmVmWT0iNSIgdmlld0JveD0iMCAwIDE0IDEwIiBvcmllbnQ9ImF1dG8iIG1hcmtlclVuaXRzPSJ1c2VyU3BhY2VPblVzZSIgc3Ryb2tlLWRhc2hhcnJheT0iMCwwIj48cGF0aCBpZD0iU3ZnanNQYXRoMTkwNSIgZD0iTTAsMCBMMTQsNSBMMCwxMCBMMCwwIiBmaWxsPSIjMTk3NmQyIiBzdHJva2U9IiMxOTc2ZDIiIHN0cm9rZS13aWR0aD0iMSIvPjwvbWFya2VyPjxtYXJrZXIgaWQ9IlN2Z2pzTWFya2VyMTkzOCIgbWFya2VyV2lkdGg9IjE0IiBtYXJrZXJIZWlnaHQ9IjEwIiByZWZYPSIxMCIgcmVmWT0iNSIgdmlld0JveD0iMCAwIDE0IDEwIiBvcmllbnQ9ImF1dG8iIG1hcmtlclVuaXRzPSJ1c2VyU3BhY2VPblVzZSIgc3Ryb2tlLWRhc2hhcnJheT0iMCwwIj48cGF0aCBpZD0iU3ZnanNQYXRoMTkzOSIgZD0iTTAsMCBMMTQsNSBMMCwxMCBMMCwwIiBmaWxsPSIjMTk3NmQyIiBzdHJva2U9IiMxOTc2ZDIiIHN0cm9rZS13aWR0aD0iMSIvPjwvbWFya2VyPjxtYXJrZXIgaWQ9IlN2Z2pzTWFya2VyMTk0MiIgbWFya2VyV2lkdGg9IjE0IiBtYXJrZXJIZWlnaHQ9IjEwIiByZWZYPSIxMCIgcmVmWT0iNSIgdmlld0JveD0iMCAwIDE0IDEwIiBvcmllbnQ9ImF1dG8iIG1hcmtlclVuaXRzPSJ1c2VyU3BhY2VPblVzZSIgc3Ryb2tlLWRhc2hhcnJheT0iMCwwIj48cGF0aCBpZD0iU3ZnanNQYXRoMTk0MyIgZD0iTTAsMCBMMTQsNSBMMCwxMCBMMCwwIiBmaWxsPSIjMzIzMjMyIiBzdHJva2U9IiMzMjMyMzIiIHN0cm9rZS13aWR0aD0iMSIvPjwvbWFya2VyPjxtYXJrZXIgaWQ9IlN2Z2pzTWFya2VyMTk1OCIgbWFya2VyV2lkdGg9IjE0IiBtYXJrZXJIZWlnaHQ9IjEwIiByZWZYPSIxMCIgcmVmWT0iNSIgdmlld0JveD0iMCAwIDE0IDEwIiBvcmllbnQ9ImF1dG8iIG1hcmtlclVuaXRzPSJ1c2VyU3BhY2VPblVzZSIgc3Ryb2tlLWRhc2hhcnJheT0iMCwwIj48cGF0aCBpZD0iU3ZnanNQYXRoMTk1OSIgZD0iTTAsMCBMMTQsNSBMMCwxMCBMMCwwIiBmaWxsPSIjMzIzMjMyIiBzdHJva2U9IiMzMjMyMzIiIHN0cm9rZS13aWR0aD0iMSIvPjwvbWFya2VyPjxtYXJrZXIgaWQ9IlN2Z2pzTWFya2VyMTk3MiIgbWFya2VyV2lkdGg9IjE0IiBtYXJrZXJIZWlnaHQ9IjEwIiByZWZYPSIxMCIgcmVmWT0iNSIgdmlld0JveD0iMCAwIDE0IDEwIiBvcmllbnQ9ImF1dG8iIG1hcmtlclVuaXRzPSJ1c2VyU3BhY2VPblVzZSIgc3Ryb2tlLWRhc2hhcnJheT0iMCwwIj48cGF0aCBpZD0iU3ZnanNQYXRoMTk3MyIgZD0iTTAsMCBMMTQsNSBMMCwxMCBMMCwwIiBmaWxsPSIjMzIzMjMyIiBzdHJva2U9IiMzMjMyMzIiIHN0cm9rZS13aWR0aD0iMSIvPjwvbWFya2VyPjxtYXJrZXIgaWQ9IlN2Z2pzTWFya2VyMTk5MCIgbWFya2VyV2lkdGg9IjE0IiBtYXJrZXJIZWlnaHQ9IjEwIiByZWZYPSIxMCIgcmVmWT0iNSIgdmlld0JveD0iMCAwIDE0IDEwIiBvcmllbnQ9ImF1dG8iIG1hcmtlclVuaXRzPSJ1c2VyU3BhY2VPblVzZSIgc3Ryb2tlLWRhc2hhcnJheT0iMCwwIj48cGF0aCBpZD0iU3ZnanNQYXRoMTk5MSIgZD0iTTAsMCBMMTQsNSBMMCwxMCBMMCwwIiBmaWxsPSIjMzIzMjMyIiBzdHJva2U9IiMzMjMyMzIiIHN0cm9rZS13aWR0aD0iMSIvPjwvbWFya2VyPjxtYXJrZXIgaWQ9IlN2Z2pzTWFya2VyMTk5NCIgbWFya2VyV2lkdGg9IjE0IiBtYXJrZXJIZWlnaHQ9IjEwIiByZWZYPSIxMCIgcmVmWT0iNSIgdmlld0JveD0iMCAwIDE0IDEwIiBvcmllbnQ9ImF1dG8iIG1hcmtlclVuaXRzPSJ1c2VyU3BhY2VPblVzZSIgc3Ryb2tlLWRhc2hhcnJheT0iMCwwIj48cGF0aCBpZD0iU3ZnanNQYXRoMTk5NSIgZD0iTTAsMCBMMTQsNSBMMCwxMCBMMCwwIiBmaWxsPSIjMzIzMjMyIiBzdHJva2U9IiMzMjMyMzIiIHN0cm9rZS13aWR0aD0iMSIvPjwvbWFya2VyPjxtYXJrZXIgaWQ9IlN2Z2pzTWFya2VyMTk5OCIgbWFya2VyV2lkdGg9IjE0IiBtYXJrZXJIZWlnaHQ9IjEwIiByZWZYPSIxMCIgcmVmWT0iNSIgdmlld0JveD0iMCAwIDE0IDEwIiBvcmllbnQ9ImF1dG8iIG1hcmtlclVuaXRzPSJ1c2VyU3BhY2VPblVzZSIgc3Ryb2tlLWRhc2hhcnJheT0iMCwwIj48cGF0aCBpZD0iU3ZnanNQYXRoMTk5OSIgZD0iTTAsMCBMMTQsNSBMMCwxMCBMMCwwIiBmaWxsPSIjMzIzMjMyIiBzdHJva2U9IiMzMjMyMzIiIHN0cm9rZS13aWR0aD0iMSIvPjwvbWFya2VyPjxtYXJrZXIgaWQ9IlN2Z2pzTWFya2VyMjAyMiIgbWFya2VyV2lkdGg9IjE0IiBtYXJrZXJIZWlnaHQ9IjEwIiByZWZYPSIxMCIgcmVmWT0iNSIgdmlld0JveD0iMCAwIDE0IDEwIiBvcmllbnQ9ImF1dG8iIG1hcmtlclVuaXRzPSJ1c2VyU3BhY2VPblVzZSIgc3Ryb2tlLWRhc2hhcnJheT0iMCwwIj48cGF0aCBpZD0iU3ZnanNQYXRoMjAyMyIgZD0iTTAsMCBMMTQsNSBMMCwxMCBMMCwwIiBmaWxsPSIjMzIzMjMyIiBzdHJva2U9IiMzMjMyMzIiIHN0cm9rZS13aWR0aD0iMSIvPjwvbWFya2VyPjxtYXJrZXIgaWQ9IlN2Z2pzTWFya2VyMjA1NiIgbWFya2VyV2lkdGg9IjE0IiBtYXJrZXJIZWlnaHQ9IjEwIiByZWZYPSIxMCIgcmVmWT0iNSIgdmlld0JveD0iMCAwIDE0IDEwIiBvcmllbnQ9ImF1dG8iIG1hcmtlclVuaXRzPSJ1c2VyU3BhY2VPblVzZSIgc3Ryb2tlLWRhc2hhcnJheT0iMCwwIj48cGF0aCBpZD0iU3ZnanNQYXRoMjA1NyIgZD0iTTAsMCBMMTQsNSBMMCwxMCBMMCwwIiBmaWxsPSIjMzIzMjMyIiBzdHJva2U9IiMzMjMyMzIiIHN0cm9rZS13aWR0aD0iMSIvPjwvbWFya2VyPjwvZGVmcz48ZyBpZD0iU3ZnanNHMTAwOCIgdHJhbnNmb3JtPSJ0cmFuc2xhdGUoMjUsMTIzKSI+PHBhdGggaWQ9IlN2Z2pzUGF0aDEwMDkiIGQ9Ik0gMCA0USAwIDAgNCAwTCAxMzYgMFEgMTQwIDAgMTQwIDRMIDE0MCA1N1EgMTQwIDYxIDEzNiA2MUwgNCA2MVEgMCA2MSAwIDU3WiIgc3Ryb2tlPSJyZ2JhKDUwLDUwLDUwLDEpIiBzdHJva2Utd2lkdGg9IjIiIGZpbGwtb3BhY2l0eT0iMSIgZmlsbD0iI2ZmY2RkMiIvPjxnIGlkPSJTdmdqc0cxMDEwIj48dGV4dCBpZD0iU3ZnanNUZXh0MTAxMSIgZm9udC1mYW1pbHk9IuW+rui9r+mbhem7kSIgdGV4dC1hbmNob3I9Im1pZGRsZSIgZm9udC1zaXplPSIxM3B4IiB3aWR0aD0iMTIwcHgiIGZpbGw9IiMzMjMyMzIiIGZvbnQtd2VpZ2h0PSI0MDAiIGFsaWduPSJtaWRkbGUiIGxpbmVoZWlnaHQ9IjEyNSUiIGFuY2hvcj0ibWlkZGxlIiBmYW1pbHk9IuW+rui9r+mbhem7kSIgc2l6ZT0iMTNweCIgd2VpZ2h0PSI0MDAiIGZvbnQtc3R5bGU9IiIgb3BhY2l0eT0iMSIgeT0iMTEuMzc1IiB0cmFuc2Zvcm09InJvdGF0ZSgwKSI+PHRzcGFuIGlkPSJTdmdqc1RzcGFuMTAxMiIgZHk9IjE2IiB4PSI3MCI+PHRzcGFuIGlkPSJTdmdqc1RzcGFuMTAxMyIgc3R5bGU9InRleHQtZGVjb3JhdGlvbjo7Ij5sb2Nr5Ye95pWwPC90c3Bhbj48L3RzcGFuPjx0c3BhbiBpZD0iU3ZnanNUc3BhbjEwMTQiIGR5PSIxNiIgeD0iNzAiPjx0c3BhbiBpZD0iU3ZnanNUc3BhbjEwMTUiIHN0eWxlPSJ0ZXh0LWRlY29yYXRpb246OyI+6LCD55Soc3luYy5sb2NrKCk8L3RzcGFuPjwvdHNwYW4+PC90ZXh0PjwvZz48L2c+PGcgaWQ9IlN2Z2pzRzEwMTYiIHRyYW5zZm9ybT0idHJhbnNsYXRlKDI0Ni41OTk5OTA4NDQ3MjY1Niw1MykiPjxwYXRoIGlkPSJTdmdqc1BhdGgxMDE3IiBkPSJNIDAgNFEgMCAwIDQgMEwgMTEzIDBRIDExNyAwIDExNyA0TCAxMTcgNjRRIDExNyA2OCAxMTMgNjhMIDQgNjhRIDAgNjggMCA2NFoiIHN0cm9rZT0icmdiYSg1MCw1MCw1MCwxKSIgc3Ryb2tlLXdpZHRoPSIyIiBmaWxsLW9wYWNpdHk9IjEiIGZpbGw9IiNmZmZmZmYiLz48ZyBpZD0iU3ZnanNHMTAxOCI+PHRleHQgaWQ9IlN2Z2pzVGV4dDEwMTkiIGZvbnQtZmFtaWx5PSLlvq7ova/pm4Xpu5EiIHRleHQtYW5jaG9yPSJtaWRkbGUiIGZvbnQtc2l6ZT0iMTNweCIgd2lkdGg9Ijk3cHgiIGZpbGw9IiMzMjMyMzIiIGZvbnQtd2VpZ2h0PSI0MDAiIGFsaWduPSJtaWRkbGUiIGxpbmVoZWlnaHQ9IjEyNSUiIGFuY2hvcj0ibWlkZGxlIiBmYW1pbHk9IuW+rui9r+mbhem7kSIgc2l6ZT0iMTNweCIgd2VpZ2h0PSI0MDAiIGZvbnQtc3R5bGU9IiIgb3BhY2l0eT0iMSIgeT0iNi44NzUiIHRyYW5zZm9ybT0icm90YXRlKDApIj48dHNwYW4gaWQ9IlN2Z2pzVHNwYW4xMDIwIiBkeT0iMTYiIHg9IjU4LjUiPjx0c3BhbiBpZD0iU3ZnanNUc3BhbjEwMjEiIHN0eWxlPSJ0ZXh0LWRlY29yYXRpb246OyI+5YWs5bmz6ZSBPC90c3Bhbj48L3RzcGFuPjx0c3BhbiBpZD0iU3ZnanNUc3BhbjEwMjIiIGR5PSIxNiIgeD0iNTguNSI+PHRzcGFuIGlkPSJTdmdqc1RzcGFuMTAyMyIgc3R5bGU9InRleHQtZGVjb3JhdGlvbjo7Ij5GYWlyU3luYzo6bG9jazwvdHNwYW4+PC90c3Bhbj48dHNwYW4gaWQ9IlN2Z2pzVHNwYW4xMDI0IiBkeT0iMTYiIHg9IjU4LjUiPjx0c3BhbiBpZD0iU3ZnanNUc3BhbjEwMjUiIHN0eWxlPSJ0ZXh0LWRlY29yYXRpb246OyI+YWNxdWlyZSgxKTwvdHNwYW4+PC90c3Bhbj48L3RleHQ+PC9nPjwvZz48ZyBpZD0iU3ZnanNHMTAyNiI+PHBhdGggaWQ9IlN2Z2pzUGF0aDEwMjciIGQ9Ik0xNjYgMTUzLjVMMjA2LjU5OTk5MDg0NDcyNjU2IDE1My41TDIwNi41OTk5OTA4NDQ3MjY1NiA4N0wyNDIuOTk5OTkwODQ0NzI2NTQgODciIHN0cm9rZT0iIzMyMzIzMiIgc3Ryb2tlLXdpZHRoPSIyIiBmaWxsPSJub25lIiBtYXJrZXItZW5kPSJ1cmwoI1N2Z2pzTWFya2VyMTAyOCkiLz48L2c+PGcgaWQ9IlN2Z2pzRzEwMzAiPjxwYXRoIGlkPSJTdmdqc1BhdGgxMDMxIiBkPSJNMzY0LjU5OTk5MDg0NDcyNjU2IDg4Ljg3NjcxMjMyODc2NzFMNDQ5LjU5OTk5MDg0NDcyNjU2IDg4Ljg3NjcxMjMyODc2NzFMNDQ5LjU5OTk5MDg0NDcyNjU2IDg4Ljg3NjcxMjMyODc2NzFMNTM2Ljk5OTk5MDg0NDcyNjUgODguODc2NzEyMzI4NzY3MSIgc3Ryb2tlLWRhc2hhcnJheT0iMywzIiBzdHJva2U9IiMzMjMyMzIiIHN0cm9rZS13aWR0aD0iMiIgZmlsbD0ibm9uZSIgbWFya2VyLWVuZD0idXJsKCNTdmdqc01hcmtlcjEwMzIpIi8+PHJlY3QgaWQ9IlN2Z2pzUmVjdDEwMzQiIHdpZHRoPSIxMDQiIGhlaWdodD0iMTYiIHg9IjM5OC43OTk5OTA4NDQ3MjY1NSIgeT0iODAuODc2NzEyMzI4NzY3MSIgZmlsbD0iI2ZmZmZmZiIvPjx0ZXh0IGlkPSJTdmdqc1RleHQxMDM1IiBmb250LWZhbWlseT0i5b6u6L2v6ZuF6buRIiB0ZXh0LWFuY2hvcj0ibWlkZGxlIiBmb250LXNpemU9IjEzcHgiIHdpZHRoPSIxMDRweCIgZmlsbD0iIzMyMzIzMiIgZm9udC13ZWlnaHQ9IjQwMCIgYWxpZ249InRvcCIgbGluZWhlaWdodD0iMTZweCIgYW5jaG9yPSJtaWRkbGUiIGZhbWlseT0i5b6u6L2v6ZuF6buRIiBzaXplPSIxM3B4IiB3ZWlnaHQ9IjQwMCIgZm9udC1zdHlsZT0iIiBvcGFjaXR5PSIxIiB5PSI3OC4yNTE3MTIzMjg3NjcxIiB0cmFuc2Zvcm09InJvdGF0ZSgwKSI+PHRzcGFuIGlkPSJTdmdqc1RzcGFuMTAzNiIgZHk9IjE2IiB4PSI0NTAuNzk5OTkwODQ0NzI2NTUiPjx0c3BhbiBpZD0iU3ZnanNUc3BhbjEwMzciIHN0eWxlPSJ0ZXh0LWRlY29yYXRpb246OyI+5L2/55So55qEdHJ5QWNxdWlyZTwvdHNwYW4+PC90c3Bhbj48L3RleHQ+PC9nPjxnIGlkPSJTdmdqc0cxMDM4IiB0cmFuc2Zvcm09InRyYW5zbGF0ZSg1MzkuNTk5OTkwODQ0NzI2NiwyNSkiPjxwYXRoIGlkPSJTdmdqc1BhdGgxMDM5IiBkPSJNIDAgMEwgMzQ4IDBMIDM2NCAxNkwgMzY0IDM2MkwgMCAzNjJMIDAgMFoiIHN0cm9rZT0ibm9uZSIgZmlsbC1vcGFjaXR5PSIxIiBmaWxsPSIjZmZmZmFhIi8+PHBhdGggaWQ9IlN2Z2pzUGF0aDEwNDAiIGQ9Ik0gMzQ4IDBMIDM0OCAxNkwgMzY0IDE2WiIgc3Ryb2tlPSJub25lIiBmaWxsLW9wYWNpdHk9IjEiIGZpbGw9IiNjZGNkY2QiLz48cGF0aCBpZD0iU3ZnanNQYXRoMTA0MSIgZD0iTSAwIDBMIDM0OCAwTCAzNjQgMTZMIDM2NCAzNjJMIDAgMzYyTCAwIDBaIiBzdHJva2U9Im5vbmUiIGZpbGw9Im5vbmUiLz48ZyBpZD0iU3ZnanNHMTA0MiI+PHRleHQgaWQ9IlN2Z2pzVGV4dDEwNDMiIGZvbnQtZmFtaWx5PSLlvq7ova/pm4Xpu5EiIHRleHQtYW5jaG9yPSJtaWRkbGUiIGZvbnQtc2l6ZT0iMTNweCIgd2lkdGg9IjM0NHB4IiBmaWxsPSIjMzIzMjMyIiBmb250LXdlaWdodD0iNDAwIiBhbGlnbj0ibWlkZGxlIiBsaW5laGVpZ2h0PSIxMjUlIiBhbmNob3I9Im1pZGRsZSIgZmFtaWx5PSLlvq7ova/pm4Xpu5EiIHNpemU9IjEzcHgiIHdlaWdodD0iNDAwIiBmb250LXN0eWxlPSIiIG9wYWNpdHk9IjEiIHk9IjE3MC4zNzUiIHRyYW5zZm9ybT0icm90YXRlKDApIi8+PC9nPjwvZz48ZyBpZD0iU3ZnanNHMTA0NCIgdHJhbnNmb3JtPSJ0cmFuc2xhdGUoNjYzLjU5OTk5MDg0NDcyNjYsNDMpIj48cGF0aCBpZD0iU3ZnanNQYXRoMTA0NSIgZD0iTSAwIDMwLjVMIDYyLjUgMEwgMTI1IDMwLjVMIDYyLjUgNjFaIiBzdHJva2U9InJnYmEoNTAsNTAsNTAsMSkiIHN0cm9rZS13aWR0aD0iMiIgZmlsbC1vcGFjaXR5PSIxIiBmaWxsPSIjZmZiNzRkIi8+PGcgaWQ9IlN2Z2pzRzEwNDYiPjx0ZXh0IGlkPSJTdmdqc1RleHQxMDQ3IiBmb250LWZhbWlseT0i5b6u6L2v6ZuF6buRIiB0ZXh0LWFuY2hvcj0ibWlkZGxlIiBmb250LXNpemU9IjEzcHgiIHdpZHRoPSIxMDVweCIgZmlsbD0iIzMyMzIzMiIgZm9udC13ZWlnaHQ9IjQwMCIgYWxpZ249Im1pZGRsZSIgbGluZWhlaWdodD0iMTI1JSIgYW5jaG9yPSJtaWRkbGUiIGZhbWlseT0i5b6u6L2v6ZuF6buRIiBzaXplPSIxM3B4IiB3ZWlnaHQ9IjQwMCIgZm9udC1zdHlsZT0iIiBvcGFjaXR5PSIxIiB5PSIyMC4xOCIgdHJhbnNmb3JtPSJyb3RhdGUoMCkiPjx0c3BhbiBpZD0iU3ZnanNUc3BhbjEwNDgiIGR5PSIxNiIgeD0iNjIuNSI+PHRzcGFuIGlkPSJTdmdqc1RzcGFuMTA0OSIgc3R5bGU9InRleHQtZGVjb3JhdGlvbjo7Ij5zdGF0ZT09MD88L3RzcGFuPjwvdHNwYW4+PC90ZXh0PjwvZz48L2c+PGcgaWQ9IlN2Z2pzRzEwNTAiPjxwYXRoIGlkPSJTdmdqc1BhdGgxMDUxIiBkPSJNNjYyLjU5OTk5MDg0NDcyNjYgNzMuNUw2MjcgNzMuNUw2MjcgOTkuMzAwMDAxNTI1ODc4OTEiIHN0cm9rZT0iIzMyMzIzMiIgc3Ryb2tlLXdpZHRoPSIyIiBmaWxsPSJub25lIiBtYXJrZXItZW5kPSJ1cmwoI1N2Z2pzTWFya2VyMTA1MikiLz48cmVjdCBpZD0iU3ZnanNSZWN0MTA1NCIgd2lkdGg9IjEzIiBoZWlnaHQ9IjE2IiB4PSI2MjUuMzk5OTk0NjU5NDIzOCIgeT0iNjUuNSIgZmlsbD0iI2ZmZmZmZiIvPjx0ZXh0IGlkPSJTdmdqc1RleHQxMDU1IiBmb250LWZhbWlseT0i5b6u6L2v6ZuF6buRIiB0ZXh0LWFuY2hvcj0ibWlkZGxlIiBmb250LXNpemU9IjEzcHgiIHdpZHRoPSIxM3B4IiBmaWxsPSIjMzIzMjMyIiBmb250LXdlaWdodD0iNDAwIiBhbGlnbj0idG9wIiBsaW5laGVpZ2h0PSIxNnB4IiBhbmNob3I9Im1pZGRsZSIgZmFtaWx5PSLlvq7ova/pm4Xpu5EiIHNpemU9IjEzcHgiIHdlaWdodD0iNDAwIiBmb250LXN0eWxlPSIiIG9wYWNpdHk9IjEiIHk9IjYyLjg3NSIgdHJhbnNmb3JtPSJyb3RhdGUoMCkiPjx0c3BhbiBpZD0iU3ZnanNUc3BhbjEwNTYiIGR5PSIxNiIgeD0iNjMxLjg5OTk5NDY1OTQyMzgiPjx0c3BhbiBpZD0iU3ZnanNUc3BhbjEwNTciIHN0eWxlPSJ0ZXh0LWRlY29yYXRpb246OyI+5pivPC90c3Bhbj48L3RzcGFuPjwvdGV4dD48L2c+PGcgaWQ9IlN2Z2pzRzEwNTgiIHRyYW5zZm9ybT0idHJhbnNsYXRlKDU2MS41LDEwMi45MDAwMDE1MjU4Nzg5KSI+PHBhdGggaWQ9IlN2Z2pzUGF0aDEwNTkiIGQ9Ik0gMCAzNi41TCA2NS41IDBMIDEzMSAzNi41TCA2NS41IDczWiIgc3Ryb2tlPSJyZ2JhKDUwLDUwLDUwLDEpIiBzdHJva2Utd2lkdGg9IjIiIGZpbGwtb3BhY2l0eT0iMSIgZmlsbD0iI2ZmYjc0ZCIvPjxnIGlkPSJTdmdqc0cxMDYwIj48dGV4dCBpZD0iU3ZnanNUZXh0MTA2MSIgZm9udC1mYW1pbHk9IuW+rui9r+mbhem7kSIgdGV4dC1hbmNob3I9Im1pZGRsZSIgZm9udC1zaXplPSIxM3B4IiB3aWR0aD0iMTExcHgiIGZpbGw9IiMzMjMyMzIiIGZvbnQtd2VpZ2h0PSI0MDAiIGFsaWduPSJtaWRkbGUiIGxpbmVoZWlnaHQ9IjEyNSUiIGFuY2hvcj0ibWlkZGxlIiBmYW1pbHk9IuW+rui9r+mbhem7kSIgc2l6ZT0iMTNweCIgd2VpZ2h0PSI0MDAiIGZvbnQtc3R5bGU9IiIgb3BhY2l0eT0iMSIgeT0iMTcuNzQwMDAwMDAwMDAwMDAyIiB0cmFuc2Zvcm09InJvdGF0ZSgwKSI+PHRzcGFuIGlkPSJTdmdqc1RzcGFuMTA2MiIgZHk9IjE2IiB4PSI2NS41Ij48dHNwYW4gaWQ9IlN2Z2pzVHNwYW4xMDYzIiBzdHlsZT0idGV4dC1kZWNvcmF0aW9uOjsiPuWQjOatpemYn+WIl+S4reW9k+WJjee6vzwvdHNwYW4+PC90c3Bhbj48dHNwYW4gaWQ9IlN2Z2pzVHNwYW4xMDY0IiBkeT0iMTYiIHg9IjY1LjUiPjx0c3BhbiBpZD0iU3ZnanNUc3BhbjEwNjUiIHN0eWxlPSJ0ZXh0LWRlY29yYXRpb246OyI+56iL5YmN6Z2i5rKh5pyJ6IqC54K5PC90c3Bhbj48L3RzcGFuPjwvdGV4dD48L2c+PC9nPjxnIGlkPSJTdmdqc0cxMDY2IiB0cmFuc2Zvcm09InRyYW5zbGF0ZSg1ODUuNSwyMTcpIj48cGF0aCBpZD0iU3ZnanNQYXRoMTA2NyIgZD0iTSAwIDBMIDgzIDBMIDgzIDM4TCAwIDM4WiIgc3Ryb2tlPSJyZ2JhKDUwLDUwLDUwLDEpIiBzdHJva2Utd2lkdGg9IjIiIGZpbGwtb3BhY2l0eT0iMSIgZmlsbD0iI2ZmZmZmZiIvPjxnIGlkPSJTdmdqc0cxMDY4Ij48dGV4dCBpZD0iU3ZnanNUZXh0MTA2OSIgZm9udC1mYW1pbHk9IuW+rui9r+mbhem7kSIgdGV4dC1hbmNob3I9Im1pZGRsZSIgZm9udC1zaXplPSIxM3B4IiB3aWR0aD0iNjNweCIgZmlsbD0iIzMyMzIzMiIgZm9udC13ZWlnaHQ9IjQwMCIgYWxpZ249Im1pZGRsZSIgbGluZWhlaWdodD0iMTI1JSIgYW5jaG9yPSJtaWRkbGUiIGZhbWlseT0i5b6u6L2v6ZuF6buRIiBzaXplPSIxM3B4IiB3ZWlnaHQ9IjQwMCIgZm9udC1zdHlsZT0iIiBvcGFjaXR5PSIxIiB5PSI4LjM3NSIgdHJhbnNmb3JtPSJyb3RhdGUoMCkiPjx0c3BhbiBpZD0iU3ZnanNUc3BhbjEwNzAiIGR5PSIxNiIgeD0iNDEuNSI+PHRzcGFuIGlkPSJTdmdqc1RzcGFuMTA3MSIgc3R5bGU9InRleHQtZGVjb3JhdGlvbjo7Ij5jYXPojrflj5bplIE8L3RzcGFuPjwvdHNwYW4+PC90ZXh0PjwvZz48L2c+PGcgaWQ9IlN2Z2pzRzEwNzIiPjxwYXRoIGlkPSJTdmdqc1BhdGgxMDczIiBkPSJNNjI3IDE3Ni45MDAwMDE1MjU4Nzg5TDYyNyAxOTUuNUw2MjcgMTk1LjVMNjI3IDIxMy40IiBzdHJva2U9IiMzMjMyMzIiIHN0cm9rZS13aWR0aD0iMiIgZmlsbD0ibm9uZSIgbWFya2VyLWVuZD0idXJsKCNTdmdqc01hcmtlcjEwNzQpIi8+PHJlY3QgaWQ9IlN2Z2pzUmVjdDEwNzYiIHdpZHRoPSIxMyIgaGVpZ2h0PSIxNiIgeD0iNjIwLjUiIHk9IjE4Ny4xNTAwMDA3NjI5Mzk0NyIgZmlsbD0iI2ZmZmZmZiIvPjx0ZXh0IGlkPSJTdmdqc1RleHQxMDc3IiBmb250LWZhbWlseT0i5b6u6L2v6ZuF6buRIiB0ZXh0LWFuY2hvcj0ibWlkZGxlIiBmb250LXNpemU9IjEzcHgiIHdpZHRoPSIxM3B4IiBmaWxsPSIjMzIzMjMyIiBmb250LXdlaWdodD0iNDAwIiBhbGlnbj0idG9wIiBsaW5laGVpZ2h0PSIxNnB4IiBhbmNob3I9Im1pZGRsZSIgZmFtaWx5PSLlvq7ova/pm4Xpu5EiIHNpemU9IjEzcHgiIHdlaWdodD0iNDAwIiBmb250LXN0eWxlPSIiIG9wYWNpdHk9IjEiIHk9IjE4NC41MjUwMDA3NjI5Mzk0NyIgdHJhbnNmb3JtPSJyb3RhdGUoMCkiPjx0c3BhbiBpZD0iU3ZnanNUc3BhbjEwNzgiIGR5PSIxNiIgeD0iNjI3Ij48dHNwYW4gaWQ9IlN2Z2pzVHNwYW4xMDc5IiBzdHlsZT0idGV4dC1kZWNvcmF0aW9uOjsiPuaYrzwvdHNwYW4+PC90c3Bhbj48L3RleHQ+PC9nPjxnIGlkPSJTdmdqc0cxMDgwIj48cGF0aCBpZD0iU3ZnanNQYXRoMTA4MSIgZD0iTTYyNyAyNTZMNjI3IDI3MUw2MjcgMjcxTDYyNyAyODcuODAwMDAxNTI1ODc4OSIgc3Ryb2tlPSIjMTk3NmQyIiBzdHJva2Utd2lkdGg9IjIiIGZpbGw9Im5vbmUiIG1hcmtlci1lbmQ9InVybCgjU3ZnanNNYXJrZXIxMDgyKSIvPjxyZWN0IGlkPSJTdmdqc1JlY3QxMDg0IiB3aWR0aD0iMjYiIGhlaWdodD0iMTYiIHg9IjYxMy45OTk5OTk5OTk5OTk5IiB5PSIyNjMuOTAwMDAwNzYyOTM5NDQiIGZpbGw9IiNmZmZmZmYiLz48dGV4dCBpZD0iU3ZnanNUZXh0MTA4NSIgZm9udC1mYW1pbHk9IuW+rui9r+mbhem7kSIgdGV4dC1hbmNob3I9Im1pZGRsZSIgZm9udC1zaXplPSIxM3B4IiB3aWR0aD0iMjZweCIgZmlsbD0iIzMyMzIzMiIgZm9udC13ZWlnaHQ9IjQwMCIgYWxpZ249InRvcCIgbGluZWhlaWdodD0iMTZweCIgYW5jaG9yPSJtaWRkbGUiIGZhbWlseT0i5b6u6L2v6ZuF6buRIiBzaXplPSIxM3B4IiB3ZWlnaHQ9IjQwMCIgZm9udC1zdHlsZT0iIiBvcGFjaXR5PSIxIiB5PSIyNjEuMjc1MDAwNzYyOTM5NDQiIHRyYW5zZm9ybT0icm90YXRlKDApIj48dHNwYW4gaWQ9IlN2Z2pzVHNwYW4xMDg2IiBkeT0iMTYiIHg9IjYyNi45OTk5OTk5OTk5OTk5Ij48dHNwYW4gaWQ9IlN2Z2pzVHNwYW4xMDg3IiBzdHlsZT0idGV4dC1kZWNvcmF0aW9uOjsiPuaIkOWKnzwvdHNwYW4+PC90c3Bhbj48L3RleHQ+PC9nPjxnIGlkPSJTdmdqc0cxMDg4IiB0cmFuc2Zvcm09InRyYW5zbGF0ZSg1NTcsMjkxLjQwMDAwMTUyNTg3ODkpIj48cGF0aCBpZD0iU3ZnanNQYXRoMTA4OSIgZD0iTSAwIDBMIDE0MCAwTCAxNDAgNjhMIDAgNjhaIiBzdHJva2U9InJnYmEoNTAsNTAsNTAsMSkiIHN0cm9rZS13aWR0aD0iMiIgZmlsbC1vcGFjaXR5PSIxIiBmaWxsPSIjZmZmZmZmIi8+PGcgaWQ9IlN2Z2pzRzEwOTAiPjx0ZXh0IGlkPSJTdmdqc1RleHQxMDkxIiBmb250LWZhbWlseT0i5b6u6L2v6ZuF6buRIiB0ZXh0LWFuY2hvcj0ibWlkZGxlIiBmb250LXNpemU9IjEzcHgiIHdpZHRoPSIxMjBweCIgZmlsbD0iIzMyMzIzMiIgZm9udC13ZWlnaHQ9IjQwMCIgYWxpZ249Im1pZGRsZSIgbGluZWhlaWdodD0iMTI1JSIgYW5jaG9yPSJtaWRkbGUiIGZhbWlseT0i5b6u6L2v6ZuF6buRIiBzaXplPSIxM3B4IiB3ZWlnaHQ9IjQwMCIgZm9udC1zdHlsZT0iIiBvcGFjaXR5PSIxIiB5PSI2Ljg3NSIgdHJhbnNmb3JtPSJyb3RhdGUoMCkiPjx0c3BhbiBpZD0iU3ZnanNUc3BhbjEwOTIiIGR5PSIxNiIgeD0iNzAiPjx0c3BhbiBpZD0iU3ZnanNUc3BhbjEwOTMiIHN0eWxlPSJ0ZXh0LWRlY29yYXRpb246OyI+6K6+572u5o6S5a6D6ZSB55qE57q/56iL5Li6PC90c3Bhbj48L3RzcGFuPjx0c3BhbiBpZD0iU3ZnanNUc3BhbjEwOTQiIGR5PSIxNiIgeD0iNzAiPjx0c3BhbiBpZD0iU3ZnanNUc3BhbjEwOTUiIHN0eWxlPSJ0ZXh0LWRlY29yYXRpb246OyI+5b2T5YmN57q/56iL77yM5Y2z6ZSB55qEPC90c3Bhbj48L3RzcGFuPjx0c3BhbiBpZD0iU3ZnanNUc3BhbjEwOTYiIGR5PSIxNiIgeD0iNzAiPjx0c3BhbiBpZD0iU3ZnanNUc3BhbjEwOTciIHN0eWxlPSJ0ZXh0LWRlY29yYXRpb246OyI+b3duZXLmmK/lvZPliY3nur/nqIs8L3RzcGFuPjwvdHNwYW4+PC90ZXh0PjwvZz48L2c+PGcgaWQ9IlN2Z2pzRzEwOTgiPjxwYXRoIGlkPSJTdmdqc1BhdGgxMDk5IiBkPSJNNzg5LjU5OTk5MDg0NDcyNjYgNzMuNUw4MTMgNzMuNUw4MTMgOTkuMzAwMDAxNTI1ODc4OTEiIHN0cm9rZT0iIzMyMzIzMiIgc3Ryb2tlLXdpZHRoPSIyIiBmaWxsPSJub25lIiBtYXJrZXItZW5kPSJ1cmwoI1N2Z2pzTWFya2VyMTEwMCkiLz48cmVjdCBpZD0iU3ZnanNSZWN0MTEwMiIgd2lkdGg9IjEzIiBoZWlnaHQ9IjE2IiB4PSI4MDYuNSIgeT0iNjYuNjk5OTk2MTg1MzAyNzQiIGZpbGw9IiNmZmZmZmYiLz48dGV4dCBpZD0iU3ZnanNUZXh0MTEwMyIgZm9udC1mYW1pbHk9IuW+rui9r+mbhem7kSIgdGV4dC1hbmNob3I9Im1pZGRsZSIgZm9udC1zaXplPSIxM3B4IiB3aWR0aD0iMTNweCIgZmlsbD0iIzMyMzIzMiIgZm9udC13ZWlnaHQ9IjQwMCIgYWxpZ249InRvcCIgbGluZWhlaWdodD0iMTZweCIgYW5jaG9yPSJtaWRkbGUiIGZhbWlseT0i5b6u6L2v6ZuF6buRIiBzaXplPSIxM3B4IiB3ZWlnaHQ9IjQwMCIgZm9udC1zdHlsZT0iIiBvcGFjaXR5PSIxIiB5PSI2NC4wNzQ5OTYxODUzMDI3NCIgdHJhbnNmb3JtPSJyb3RhdGUoMCkiPjx0c3BhbiBpZD0iU3ZnanNUc3BhbjExMDQiIGR5PSIxNiIgeD0iODEzIj48dHNwYW4gaWQ9IlN2Z2pzVHNwYW4xMTA1IiBzdHlsZT0idGV4dC1kZWNvcmF0aW9uOjsiPuWQpjwvdHNwYW4+PC90c3Bhbj48L3RleHQ+PC9nPjxnIGlkPSJTdmdqc0cxMTA2IiB0cmFuc2Zvcm09InRyYW5zbGF0ZSg3NTkuNSwxMDIuOTAwMDAxNTI1ODc4OSkiPjxwYXRoIGlkPSJTdmdqc1BhdGgxMTA3IiBkPSJNIDAgMzYuNUwgNTMuNSAwTCAxMDcgMzYuNUwgNTMuNSA3M1oiIHN0cm9rZT0icmdiYSg1MCw1MCw1MCwxKSIgc3Ryb2tlLXdpZHRoPSIyIiBmaWxsLW9wYWNpdHk9IjEiIGZpbGw9IiNmZmI3NGQiLz48ZyBpZD0iU3ZnanNHMTEwOCI+PHRleHQgaWQ9IlN2Z2pzVGV4dDExMDkiIGZvbnQtZmFtaWx5PSLlvq7ova/pm4Xpu5EiIHRleHQtYW5jaG9yPSJtaWRkbGUiIGZvbnQtc2l6ZT0iMTNweCIgd2lkdGg9Ijg3cHgiIGZpbGw9IiMzMjMyMzIiIGZvbnQtd2VpZ2h0PSI0MDAiIGFsaWduPSJtaWRkbGUiIGxpbmVoZWlnaHQ9IjEyNSUiIGFuY2hvcj0ibWlkZGxlIiBmYW1pbHk9IuW+rui9r+mbhem7kSIgc2l6ZT0iMTNweCIgd2VpZ2h0PSI0MDAiIGZvbnQtc3R5bGU9IiIgb3BhY2l0eT0iMSIgeT0iMTcuNzQwMDAwMDAwMDAwMDAyIiB0cmFuc2Zvcm09InJvdGF0ZSgwKSI+PHRzcGFuIGlkPSJTdmdqc1RzcGFuMTExMCIgZHk9IjE2IiB4PSI1My41Ij48dHNwYW4gaWQ9IlN2Z2pzVHNwYW4xMTExIiBzdHlsZT0idGV4dC1kZWNvcmF0aW9uOjsiPuW9k+WJjee6v+eoi+aYr+WQpjwvdHNwYW4+PC90c3Bhbj48dHNwYW4gaWQ9IlN2Z2pzVHNwYW4xMTEyIiBkeT0iMTYiIHg9IjUzLjUiPjx0c3BhbiBpZD0iU3ZnanNUc3BhbjExMTMiIHN0eWxlPSJ0ZXh0LWRlY29yYXRpb246OyI+5piv6ZSB55qE5Li75Lq6PC90c3Bhbj48L3RzcGFuPjwvdGV4dD48L2c+PC9nPjxnIGlkPSJTdmdqc0cxMTE0Ij48cGF0aCBpZD0iU3ZnanNQYXRoMTExNSIgZD0iTTgxMyAxNzYuOTAwMDAxNTI1ODc4OUw4MTMgMTk1LjVMODEzIDE5NS41TDgxMyAyMTMuNCIgc3Ryb2tlPSIjMTk3NmQyIiBzdHJva2Utd2lkdGg9IjIiIGZpbGw9Im5vbmUiIG1hcmtlci1lbmQ9InVybCgjU3ZnanNNYXJrZXIxMTE2KSIvPjxyZWN0IGlkPSJTdmdqc1JlY3QxMTE4IiB3aWR0aD0iMTMiIGhlaWdodD0iMTYiIHg9IjgwNi41IiB5PSIxODcuMTUwMDAwNzYyOTM5NDciIGZpbGw9IiNmZmZmZmYiLz48dGV4dCBpZD0iU3ZnanNUZXh0MTExOSIgZm9udC1mYW1pbHk9IuW+rui9r+mbhem7kSIgdGV4dC1hbmNob3I9Im1pZGRsZSIgZm9udC1zaXplPSIxM3B4IiB3aWR0aD0iMTNweCIgZmlsbD0iIzMyMzIzMiIgZm9udC13ZWlnaHQ9IjQwMCIgYWxpZ249InRvcCIgbGluZWhlaWdodD0iMTZweCIgYW5jaG9yPSJtaWRkbGUiIGZhbWlseT0i5b6u6L2v6ZuF6buRIiBzaXplPSIxM3B4IiB3ZWlnaHQ9IjQwMCIgZm9udC1zdHlsZT0iIiBvcGFjaXR5PSIxIiB5PSIxODQuNTI1MDAwNzYyOTM5NDciIHRyYW5zZm9ybT0icm90YXRlKDApIj48dHNwYW4gaWQ9IlN2Z2pzVHNwYW4xMTIwIiBkeT0iMTYiIHg9IjgxMyI+PHRzcGFuIGlkPSJTdmdqc1RzcGFuMTEyMSIgc3R5bGU9InRleHQtZGVjb3JhdGlvbjo7Ij7mmK88L3RzcGFuPjwvdHNwYW4+PC90ZXh0PjwvZz48ZyBpZD0iU3ZnanNHMTEyMiIgdHJhbnNmb3JtPSJ0cmFuc2xhdGUoNzM5LDIxNykiPjxwYXRoIGlkPSJTdmdqc1BhdGgxMTIzIiBkPSJNIDAgMEwgMTQ4IDBMIDE0OCA1M0wgMCA1M1oiIHN0cm9rZT0icmdiYSg1MCw1MCw1MCwxKSIgc3Ryb2tlLXdpZHRoPSIyIiBmaWxsLW9wYWNpdHk9IjEiIGZpbGw9IiNmZmZmZmYiLz48ZyBpZD0iU3ZnanNHMTEyNCI+PHRleHQgaWQ9IlN2Z2pzVGV4dDExMjUiIGZvbnQtZmFtaWx5PSLlvq7ova/pm4Xpu5EiIHRleHQtYW5jaG9yPSJtaWRkbGUiIGZvbnQtc2l6ZT0iMTNweCIgd2lkdGg9IjEyOHB4IiBmaWxsPSIjMzIzMjMyIiBmb250LXdlaWdodD0iNDAwIiBhbGlnbj0ibWlkZGxlIiBsaW5laGVpZ2h0PSIxMjUlIiBhbmNob3I9Im1pZGRsZSIgZmFtaWx5PSLlvq7ova/pm4Xpu5EiIHNpemU9IjEzcHgiIHdlaWdodD0iNDAwIiBmb250LXN0eWxlPSIiIG9wYWNpdHk9IjEiIHk9IjcuMzc1IiB0cmFuc2Zvcm09InJvdGF0ZSgwKSI+PHRzcGFuIGlkPSJTdmdqc1RzcGFuMTEyNiIgZHk9IjE2IiB4PSI3NCI+PHRzcGFuIGlkPSJTdmdqc1RzcGFuMTEyNyIgc3R5bGU9InRleHQtZGVjb3JhdGlvbjo7Ij7orr7nva7plIHph43lhaXlgLzvvIgrMe+8iTwvdHNwYW4+PC90c3Bhbj48dHNwYW4gaWQ9IlN2Z2pzVHNwYW4xMTI4IiBkeT0iMTYiIHg9Ijc0Ij48dHNwYW4gaWQ9IlN2Z2pzVHNwYW4xMTI5IiBzdHlsZT0idGV4dC1kZWNvcmF0aW9uOjsiPui/memHjOS4jeeUqGNhczwvdHNwYW4+PC90c3Bhbj48L3RleHQ+PC9nPjwvZz48ZyBpZD0iU3ZnanNHMTEzMCI+PHBhdGggaWQ9IlN2Z2pzUGF0aDExMzEiIGQ9Ik02OTggMzI1LjQwMDAwMTUyNTg3ODlMNzI3LjUzNzQ5MDg0NDcyNjYgMzI1LjQwMDAwMTUyNTg3ODlMNzI3LjUzNzQ5MDg0NDcyNjYgMzI1LjQwMDAwMTUyNTg3ODlMNzU5LjQgMzI1LjQwMDAwMTUyNTg3ODkiIHN0cm9rZT0iIzE5NzZkMiIgc3Ryb2tlLXdpZHRoPSIyIiBmaWxsPSJub25lIiBtYXJrZXItZW5kPSJ1cmwoI1N2Z2pzTWFya2VyMTEzMikiLz48L2c+PGcgaWQ9IlN2Z2pzRzExMzQiPjxwYXRoIGlkPSJTdmdqc1BhdGgxMTM1IiBkPSJNODEzIDI3MUw4MTMgMjgxTDgxMyAyODFMODEzIDI5NS4zMDAwMDE1MjU4Nzg5IiBzdHJva2U9IiMxOTc2ZDIiIHN0cm9rZS13aWR0aD0iMiIgZmlsbD0ibm9uZSIgbWFya2VyLWVuZD0idXJsKCNTdmdqc01hcmtlcjExMzYpIi8+PC9nPjxnIGlkPSJTdmdqc0cxMTM4IiB0cmFuc2Zvcm09InRyYW5zbGF0ZSg3NjMsMjk4LjkwMDAwMTUyNTg3ODkpIj48cGF0aCBpZD0iU3ZnanNQYXRoMTEzOSIgZD0iTSAwIDBMIDEwMCAwTCAxMDAgNTNMIDAgNTNaIiBzdHJva2U9InJnYmEoNTAsNTAsNTAsMSkiIHN0cm9rZS13aWR0aD0iMiIgZmlsbC1vcGFjaXR5PSIxIiBmaWxsPSIjZmZmZmZmIi8+PGcgaWQ9IlN2Z2pzRzExNDAiPjx0ZXh0IGlkPSJTdmdqc1RleHQxMTQxIiBmb250LWZhbWlseT0i5b6u6L2v6ZuF6buRIiB0ZXh0LWFuY2hvcj0ibWlkZGxlIiBmb250LXNpemU9IjEzcHgiIHdpZHRoPSI4MHB4IiBmaWxsPSIjMzIzMjMyIiBmb250LXdlaWdodD0iNDAwIiBhbGlnbj0ibWlkZGxlIiBsaW5laGVpZ2h0PSIxMjUlIiBhbmNob3I9Im1pZGRsZSIgZmFtaWx5PSLlvq7ova/pm4Xpu5EiIHNpemU9IjEzcHgiIHdlaWdodD0iNDAwIiBmb250LXN0eWxlPSIiIG9wYWNpdHk9IjEiIHk9IjE1Ljg3NSIgdHJhbnNmb3JtPSJyb3RhdGUoMCkiPjx0c3BhbiBpZD0iU3ZnanNUc3BhbjExNDIiIGR5PSIxNiIgeD0iNTAiPjx0c3BhbiBpZD0iU3ZnanNUc3BhbjExNDMiIHN0eWxlPSJ0ZXh0LWRlY29yYXRpb246OyI+6L+U5ZuedHJ1ZTwvdHNwYW4+PC90c3Bhbj48L3RleHQ+PC9nPjwvZz48ZyBpZD0iU3ZnanNHMTE0NCIgdHJhbnNmb3JtPSJ0cmFuc2xhdGUoNzAwLjk3NDk5MDg0NDcyNjYsMTU2KSI+PHBhdGggaWQ9IlN2Z2pzUGF0aDExNDUiIGQ9Ik0gMCAwTCA1MCAwTCA1MCA0NEwgMCA0NFoiIHN0cm9rZT0icmdiYSg1MCw1MCw1MCwxKSIgc3Ryb2tlLXdpZHRoPSIyIiBmaWxsLW9wYWNpdHk9IjEiIGZpbGw9IiNmZmZmZmYiLz48ZyBpZD0iU3ZnanNHMTE0NiI+PHRleHQgaWQ9IlN2Z2pzVGV4dDExNDciIGZvbnQtZmFtaWx5PSLlvq7ova/pm4Xpu5EiIHRleHQtYW5jaG9yPSJtaWRkbGUiIGZvbnQtc2l6ZT0iMTNweCIgd2lkdGg9IjMwcHgiIGZpbGw9IiMzMjMyMzIiIGZvbnQtd2VpZ2h0PSI0MDAiIGFsaWduPSJtaWRkbGUiIGxpbmVoZWlnaHQ9IjEyNSUiIGFuY2hvcj0ibWlkZGxlIiBmYW1pbHk9IuW+rui9r+mbhem7kSIgc2l6ZT0iMTNweCIgd2VpZ2h0PSI0MDAiIGZvbnQtc3R5bGU9IiIgb3BhY2l0eT0iMSIgeT0iMi44NzUiIHRyYW5zZm9ybT0icm90YXRlKDApIj48dHNwYW4gaWQ9IlN2Z2pzVHNwYW4xMTQ4IiBkeT0iMTYiIHg9IjI1Ij48dHNwYW4gaWQ9IlN2Z2pzVHNwYW4xMTQ5IiBzdHlsZT0idGV4dC1kZWNvcmF0aW9uOjsiPui/lOWbnjwvdHNwYW4+PC90c3Bhbj48dHNwYW4gaWQ9IlN2Z2pzVHNwYW4xMTUwIiBkeT0iMTYiIHg9IjI1Ij48dHNwYW4gaWQ9IlN2Z2pzVHNwYW4xMTUxIiBzdHlsZT0idGV4dC1kZWNvcmF0aW9uOjsiPmZhbHNlPC90c3Bhbj48L3RzcGFuPjwvdGV4dD48L2c+PC9nPjxnIGlkPSJTdmdqc0cxMTUyIj48cGF0aCBpZD0iU3ZnanNQYXRoMTE1MyIgZD0iTTY5My41IDEzOS40MDAwMDE1MjU4Nzg5TDcyNS45NzQ5OTA4NDQ3MjY2IDEzOS40MDAwMDE1MjU4Nzg5TDcyNS45NzQ5OTA4NDQ3MjY2IDE1Mi40IiBzdHJva2U9IiMzMjMyMzIiIHN0cm9rZS13aWR0aD0iMiIgZmlsbD0ibm9uZSIgbWFya2VyLWVuZD0idXJsKCNTdmdqc01hcmtlcjExNTQpIi8+PC9nPjxnIGlkPSJTdmdqc0cxMTU2Ij48cGF0aCBpZD0iU3ZnanNQYXRoMTE1NyIgZD0iTTc1OC41IDEzOS40MDAwMDE1MjU4Nzg5TDcyNS45NzQ5OTA4NDQ3MjY2IDEzOS40MDAwMDE1MjU4Nzg5TDcyNS45NzQ5OTA4NDQ3MjY2IDE1Mi40IiBzdHJva2U9IiMzMjMyMzIiIHN0cm9rZS13aWR0aD0iMiIgZmlsbD0ibm9uZSIgbWFya2VyLWVuZD0idXJsKCNTdmdqc01hcmtlcjExNTgpIi8+PHJlY3QgaWQ9IlN2Z2pzUmVjdDExNjAiIHdpZHRoPSIxMyIgaGVpZ2h0PSIxNiIgeD0iNzI5LjIzNzQ5NjE4NTMwMjciIHk9IjEzMS40MDAwMDE1MjU4Nzg5IiBmaWxsPSIjZmZmZmZmIi8+PHRleHQgaWQ9IlN2Z2pzVGV4dDExNjEiIGZvbnQtZmFtaWx5PSLlvq7ova/pm4Xpu5EiIHRleHQtYW5jaG9yPSJtaWRkbGUiIGZvbnQtc2l6ZT0iMTNweCIgd2lkdGg9IjEzcHgiIGZpbGw9IiMzMjMyMzIiIGZvbnQtd2VpZ2h0PSI0MDAiIGFsaWduPSJ0b3AiIGxpbmVoZWlnaHQ9IjE2cHgiIGFuY2hvcj0ibWlkZGxlIiBmYW1pbHk9IuW+rui9r+mbhem7kSIgc2l6ZT0iMTNweCIgd2VpZ2h0PSI0MDAiIGZvbnQtc3R5bGU9IiIgb3BhY2l0eT0iMSIgeT0iMTI4Ljc3NTAwMTUyNTg3ODkiIHRyYW5zZm9ybT0icm90YXRlKDApIj48dHNwYW4gaWQ9IlN2Z2pzVHNwYW4xMTYyIiBkeT0iMTYiIHg9IjczNS43Mzc0OTYxODUzMDI3Ij48dHNwYW4gaWQ9IlN2Z2pzVHNwYW4xMTYzIiBzdHlsZT0idGV4dC1kZWNvcmF0aW9uOjsiPuWQpjwvdHNwYW4+PC90c3Bhbj48L3RleHQ+PC9nPjxnIGlkPSJTdmdqc0cxMTY0IiB0cmFuc2Zvcm09InRyYW5zbGF0ZSgyNDYuNTk5OTkwODQ0NzI2NTYsMzYzKSI+PHBhdGggaWQ9IlN2Z2pzUGF0aDExNjUiIGQ9Ik0gMCA0USAwIDAgNCAwTCAxMjEgMFEgMTI1IDAgMTI1IDRMIDEyNSA0OVEgMTI1IDUzIDEyMSA1M0wgNCA1M1EgMCA1MyAwIDQ5WiIgc3Ryb2tlPSJyZ2JhKDUwLDUwLDUwLDEpIiBzdHJva2Utd2lkdGg9IjIiIGZpbGwtb3BhY2l0eT0iMSIgZmlsbD0iI2ZmZmZmZiIvPjxnIGlkPSJTdmdqc0cxMTY2Ij48dGV4dCBpZD0iU3ZnanNUZXh0MTE2NyIgZm9udC1mYW1pbHk9IuW+rui9r+mbhem7kSIgdGV4dC1hbmNob3I9Im1pZGRsZSIgZm9udC1zaXplPSIxM3B4IiB3aWR0aD0iMTA1cHgiIGZpbGw9IiMzMjMyMzIiIGZvbnQtd2VpZ2h0PSI0MDAiIGFsaWduPSJtaWRkbGUiIGxpbmVoZWlnaHQ9IjEyNSUiIGFuY2hvcj0ibWlkZGxlIiBmYW1pbHk9IuW+rui9r+mbhem7kSIgc2l6ZT0iMTNweCIgd2VpZ2h0PSI0MDAiIGZvbnQtc3R5bGU9IiIgb3BhY2l0eT0iMSIgeT0iNy4zNzUiIHRyYW5zZm9ybT0icm90YXRlKDApIj48dHNwYW4gaWQ9IlN2Z2pzVHNwYW4xMTY4IiBkeT0iMTYiIHg9IjYyLjUiPjx0c3BhbiBpZD0iU3ZnanNUc3BhbjExNjkiIHN0eWxlPSJ0ZXh0LWRlY29yYXRpb246OyI+6Z2e5YWs5bmz6ZSBPC90c3Bhbj48L3RzcGFuPjx0c3BhbiBpZD0iU3ZnanNUc3BhbjExNzAiIGR5PSIxNiIgeD0iNjIuNSI+PHRzcGFuIGlkPSJTdmdqc1RzcGFuMTE3MSIgc3R5bGU9InRleHQtZGVjb3JhdGlvbjo7Ij5VbkZhaXJTeW5jOjpsb2NrPC90c3Bhbj48L3RzcGFuPjwvdGV4dD48L2c+PC9nPjxnIGlkPSJTdmdqc0cxMTcyIj48cGF0aCBpZD0iU3ZnanNQYXRoMTE3MyIgZD0iTTE2NiAxNTMuNUwyMDYuNTk5OTkwODQ0NzI2NTYgMTUzLjVMMjA2LjU5OTk5MDg0NDcyNjU2IDM4OS41TDI0Mi45OTk5OTA4NDQ3MjY1NCAzODkuNSIgc3Ryb2tlPSIjMzIzMjMyIiBzdHJva2Utd2lkdGg9IjIiIGZpbGw9Im5vbmUiIG1hcmtlci1lbmQ9InVybCgjU3ZnanNNYXJrZXIxMTc0KSIvPjwvZz48ZyBpZD0iU3ZnanNHMTE3NiIgdHJhbnNmb3JtPSJ0cmFuc2xhdGUoMTQ4LjA5OTk5MDg0NDcyNjU2LDQ1MC4wMDAwMDE5MDczNDg2MykiPjxwYXRoIGlkPSJTdmdqc1BhdGgxMTc3IiBkPSJNIDAgMEwgMzA0IDBMIDMyMCAxNkwgMzIwIDE3MS45OTk5OTgwOTI2NTEzN0wgMCAxNzEuOTk5OTk4MDkyNjUxMzdMIDAgMFoiIHN0cm9rZT0ibm9uZSIgZmlsbC1vcGFjaXR5PSIxIiBmaWxsPSIjZmZmZmFhIi8+PHBhdGggaWQ9IlN2Z2pzUGF0aDExNzgiIGQ9Ik0gMzA0IDBMIDMwNCAxNkwgMzIwIDE2WiIgc3Ryb2tlPSJub25lIiBmaWxsLW9wYWNpdHk9IjEiIGZpbGw9IiNjZGNkY2QiLz48cGF0aCBpZD0iU3ZnanNQYXRoMTE3OSIgZD0iTSAwIDBMIDMwNCAwTCAzMjAgMTZMIDMyMCAxNzEuOTk5OTk4MDkyNjUxMzdMIDAgMTcxLjk5OTk5ODA5MjY1MTM3TCAwIDBaIiBzdHJva2U9Im5vbmUiIGZpbGw9Im5vbmUiLz48ZyBpZD0iU3ZnanNHMTE4MCI+PHRleHQgaWQ9IlN2Z2pzVGV4dDExODEiIGZvbnQtZmFtaWx5PSLlvq7ova/pm4Xpu5EiIHRleHQtYW5jaG9yPSJtaWRkbGUiIGZvbnQtc2l6ZT0iMTNweCIgd2lkdGg9IjMwMHB4IiBmaWxsPSIjMzIzMjMyIiBmb250LXdlaWdodD0iNDAwIiBhbGlnbj0ibWlkZGxlIiBsaW5laGVpZ2h0PSIxMjUlIiBhbmNob3I9Im1pZGRsZSIgZmFtaWx5PSLlvq7ova/pm4Xpu5EiIHNpemU9IjEzcHgiIHdlaWdodD0iNDAwIiBmb250LXN0eWxlPSIiIG9wYWNpdHk9IjEiIHk9Ijc1LjM3NDk5OTA0NjMyNTY4IiB0cmFuc2Zvcm09InJvdGF0ZSgwKSIvPjwvZz48L2c+PGcgaWQ9IlN2Z2pzRzExODIiIHRyYW5zZm9ybT0idHJhbnNsYXRlKDI3My4wOTk5OTA4NDQ3MjY1Niw0NjUpIj48cGF0aCBpZD0iU3ZnanNQYXRoMTE4MyIgZD0iTSAwIDBMIDgzIDBMIDgzIDUzTCAwIDUzWiIgc3Ryb2tlPSJyZ2JhKDUwLDUwLDUwLDEpIiBzdHJva2Utd2lkdGg9IjIiIGZpbGwtb3BhY2l0eT0iMSIgZmlsbD0iI2ZmZmZmZiIvPjxnIGlkPSJTdmdqc0cxMTg0Ij48dGV4dCBpZD0iU3ZnanNUZXh0MTE4NSIgZm9udC1mYW1pbHk9IuW+rui9r+mbhem7kSIgdGV4dC1hbmNob3I9Im1pZGRsZSIgZm9udC1zaXplPSIxM3B4IiB3aWR0aD0iNjNweCIgZmlsbD0iIzMyMzIzMiIgZm9udC13ZWlnaHQ9IjQwMCIgYWxpZ249Im1pZGRsZSIgbGluZWhlaWdodD0iMTI1JSIgYW5jaG9yPSJtaWRkbGUiIGZhbWlseT0i5b6u6L2v6ZuF6buRIiBzaXplPSIxM3B4IiB3ZWlnaHQ9IjQwMCIgZm9udC1zdHlsZT0iIiBvcGFjaXR5PSIxIiB5PSI3LjM3NSIgdHJhbnNmb3JtPSJyb3RhdGUoMCkiPjx0c3BhbiBpZD0iU3ZnanNUc3BhbjExODYiIGR5PSIxNiIgeD0iNDEuNSI+PHRzcGFuIGlkPSJTdmdqc1RzcGFuMTE4NyIgc3R5bGU9InRleHQtZGVjb3JhdGlvbjo7Ij5jYXMoMCwgMSk8L3RzcGFuPjwvdHNwYW4+PHRzcGFuIGlkPSJTdmdqc1RzcGFuMTE4OCIgZHk9IjE2IiB4PSI0MS41Ij48dHNwYW4gaWQ9IlN2Z2pzVHNwYW4xMTg5IiBzdHlsZT0idGV4dC1kZWNvcmF0aW9uOjsiPuivleWbvuaKouWNoDwvdHNwYW4+PC90c3Bhbj48L3RleHQ+PC9nPjwvZz48ZyBpZD0iU3ZnanNHMTE5MCI+PHBhdGggaWQ9IlN2Z2pzUGF0aDExOTEiIGQ9Ik02NjkuNSAyMzZMNjgzLjY2MjQ5MDg0NDcyNjYgMjM2TDY4My42NjI0OTA4NDQ3MjY2IDE3OEw2OTcuMzc0OTkwODQ0NzI2NSAxNzgiIHN0cm9rZT0iIzMyMzIzMiIgc3Ryb2tlLXdpZHRoPSIyIiBmaWxsPSJub25lIiBtYXJrZXItZW5kPSJ1cmwoI1N2Z2pzTWFya2VyMTE5MikiLz48cmVjdCBpZD0iU3ZnanNSZWN0MTE5NCIgd2lkdGg9IjI2IiBoZWlnaHQ9IjE2IiB4PSI2NzAuNjYyNDkwODQ0NzI2NiIgeT0iMTk5LjIyNDk5NTQyMjM2MzMiIGZpbGw9IiNmZmZmZmYiLz48dGV4dCBpZD0iU3ZnanNUZXh0MTE5NSIgZm9udC1mYW1pbHk9IuW+rui9r+mbhem7kSIgdGV4dC1hbmNob3I9Im1pZGRsZSIgZm9udC1zaXplPSIxM3B4IiB3aWR0aD0iMjZweCIgZmlsbD0iIzMyMzIzMiIgZm9udC13ZWlnaHQ9IjQwMCIgYWxpZ249InRvcCIgbGluZWhlaWdodD0iMTZweCIgYW5jaG9yPSJtaWRkbGUiIGZhbWlseT0i5b6u6L2v6ZuF6buRIiBzaXplPSIxM3B4IiB3ZWlnaHQ9IjQwMCIgZm9udC1zdHlsZT0iIiBvcGFjaXR5PSIxIiB5PSIxOTYuNTk5OTk1NDIyMzYzMyIgdHJhbnNmb3JtPSJyb3RhdGUoMCkiPjx0c3BhbiBpZD0iU3ZnanNUc3BhbjExOTYiIGR5PSIxNiIgeD0iNjgzLjY2MjQ5MDg0NDcyNjYiPjx0c3BhbiBpZD0iU3ZnanNUc3BhbjExOTciIHN0eWxlPSJ0ZXh0LWRlY29yYXRpb246OyI+5aSx6LSlPC90c3Bhbj48L3RzcGFuPjwvdGV4dD48L2c+PGcgaWQ9IlN2Z2pzRzExOTgiPjxwYXRoIGlkPSJTdmdqc1BhdGgxMTk5IiBkPSJNMjcyLjA5OTk5MDg0NDcyNjU2IDQ5MS41TDI0MS44NDI4NDc5ODc1ODM3IDQ5MS41TDI0MS44NDI4NDc5ODc1ODM3IDU0Ni40MDAwMDA5NTM2NzQzIiBzdHJva2U9IiMxOTc2ZDIiIHN0cm9rZS13aWR0aD0iMiIgZmlsbD0ibm9uZSIgbWFya2VyLWVuZD0idXJsKCNTdmdqc01hcmtlcjEyMDApIi8+PHJlY3QgaWQ9IlN2Z2pzUmVjdDEyMDIiIHdpZHRoPSIyNiIgaGVpZ2h0PSIxNiIgeD0iMjI4Ljg0Mjg0Nzk4NzU4MzcyIiB5PSI0OTUuODIxNDI5MDQ4MjY1NyIgZmlsbD0iI2ZmZmZmZiIvPjx0ZXh0IGlkPSJTdmdqc1RleHQxMjAzIiBmb250LWZhbWlseT0i5b6u6L2v6ZuF6buRIiB0ZXh0LWFuY2hvcj0ibWlkZGxlIiBmb250LXNpemU9IjEzcHgiIHdpZHRoPSIyNnB4IiBmaWxsPSIjMzIzMjMyIiBmb250LXdlaWdodD0iNDAwIiBhbGlnbj0idG9wIiBsaW5laGVpZ2h0PSIxNnB4IiBhbmNob3I9Im1pZGRsZSIgZmFtaWx5PSLlvq7ova/pm4Xpu5EiIHNpemU9IjEzcHgiIHdlaWdodD0iNDAwIiBmb250LXN0eWxlPSIiIG9wYWNpdHk9IjEiIHk9IjQ5My4xOTY0MjkwNDgyNjU3IiB0cmFuc2Zvcm09InJvdGF0ZSgwKSI+PHRzcGFuIGlkPSJTdmdqc1RzcGFuMTIwNCIgZHk9IjE2IiB4PSIyNDEuODQyODQ3OTg3NTgzNzIiPjx0c3BhbiBpZD0iU3ZnanNUc3BhbjEyMDUiIHN0eWxlPSJ0ZXh0LWRlY29yYXRpb246OyI+5oiQ5YqfPC90c3Bhbj48L3RzcGFuPjwvdGV4dD48L2c+PGcgaWQ9IlN2Z2pzRzEyMDYiIHRyYW5zZm9ybT0idHJhbnNsYXRlKDE4MC4wOTk5OTA4NDQ3MjY1Niw1NTAuMDAwMDAwOTUzNjc0MykiPjxwYXRoIGlkPSJTdmdqc1BhdGgxMjA3IiBkPSJNIDAgMEwgMTE3IDBMIDExNyA0NEwgMCA0NFoiIHN0cm9rZT0icmdiYSg1MCw1MCw1MCwxKSIgc3Ryb2tlLXdpZHRoPSIyIiBmaWxsLW9wYWNpdHk9IjEiIGZpbGw9IiNmZmZmZmYiLz48ZyBpZD0iU3ZnanNHMTIwOCI+PHRleHQgaWQ9IlN2Z2pzVGV4dDEyMDkiIGZvbnQtZmFtaWx5PSLlvq7ova/pm4Xpu5EiIHRleHQtYW5jaG9yPSJtaWRkbGUiIGZvbnQtc2l6ZT0iMTNweCIgd2lkdGg9Ijk3cHgiIGZpbGw9IiMzMjMyMzIiIGZvbnQtd2VpZ2h0PSI0MDAiIGFsaWduPSJtaWRkbGUiIGxpbmVoZWlnaHQ9IjEyNSUiIGFuY2hvcj0ibWlkZGxlIiBmYW1pbHk9IuW+rui9r+mbhem7kSIgc2l6ZT0iMTNweCIgd2VpZ2h0PSI0MDAiIGZvbnQtc3R5bGU9IiIgb3BhY2l0eT0iMSIgeT0iMi44NzUiIHRyYW5zZm9ybT0icm90YXRlKDApIj48dHNwYW4gaWQ9IlN2Z2pzVHNwYW4xMjEwIiBkeT0iMTYiIHg9IjU4LjUiPjx0c3BhbiBpZD0iU3ZnanNUc3BhbjEyMTEiIHN0eWxlPSJ0ZXh0LWRlY29yYXRpb246OyI+6K6+572u6ZSB55qEb3duZXI8L3RzcGFuPjwvdHNwYW4+PHRzcGFuIGlkPSJTdmdqc1RzcGFuMTIxMiIgZHk9IjE2IiB4PSI1OC41Ij48dHNwYW4gaWQ9IlN2Z2pzVHNwYW4xMjEzIiBzdHlsZT0idGV4dC1kZWNvcmF0aW9uOjsiPuS4uuW9k+WJjee6v+eoizwvdHNwYW4+PC90c3Bhbj48L3RleHQ+PC9nPjwvZz48ZyBpZD0iU3ZnanNHMTIxNCI+PHBhdGggaWQ9IlN2Z2pzUGF0aDEyMTUiIGQ9Ik0zNTcuMDk5OTkwODQ0NzI2NTYgNDkxLjVMMzg0LjA5OTk5MDg0NDcyNjU2IDQ5MS41TDM4NC4wOTk5OTA4NDQ3MjY1NiA1NDYuNCIgc3Ryb2tlPSIjMzIzMjMyIiBzdHJva2Utd2lkdGg9IjIiIGZpbGw9Im5vbmUiIG1hcmtlci1lbmQ9InVybCgjU3ZnanNNYXJrZXIxMjE2KSIvPjxyZWN0IGlkPSJTdmdqc1JlY3QxMjE4IiB3aWR0aD0iMjYiIGhlaWdodD0iMTYiIHg9IjM3MS4wOTk5OTA4NDQ3MjY1NiIgeT0iNDk3LjQ0OTk5OTk5OTk5OTkzIiBmaWxsPSIjZmZmZmZmIi8+PHRleHQgaWQ9IlN2Z2pzVGV4dDEyMTkiIGZvbnQtZmFtaWx5PSLlvq7ova/pm4Xpu5EiIHRleHQtYW5jaG9yPSJtaWRkbGUiIGZvbnQtc2l6ZT0iMTNweCIgd2lkdGg9IjI2cHgiIGZpbGw9IiMzMjMyMzIiIGZvbnQtd2VpZ2h0PSI0MDAiIGFsaWduPSJ0b3AiIGxpbmVoZWlnaHQ9IjE2cHgiIGFuY2hvcj0ibWlkZGxlIiBmYW1pbHk9IuW+rui9r+mbhem7kSIgc2l6ZT0iMTNweCIgd2VpZ2h0PSI0MDAiIGZvbnQtc3R5bGU9IiIgb3BhY2l0eT0iMSIgeT0iNDk0LjgyNDk5OTk5OTk5OTkzIiB0cmFuc2Zvcm09InJvdGF0ZSgwKSI+PHRzcGFuIGlkPSJTdmdqc1RzcGFuMTIyMCIgZHk9IjE2IiB4PSIzODQuMDk5OTkwODQ0NzI2NTYiPjx0c3BhbiBpZD0iU3ZnanNUc3BhbjEyMjEiIHN0eWxlPSJ0ZXh0LWRlY29yYXRpb246OyI+5aSx6LSlPC90c3Bhbj48L3RzcGFuPjwvdGV4dD48L2c+PGcgaWQ9IlN2Z2pzRzEyMjIiIHRyYW5zZm9ybT0idHJhbnNsYXRlKDMzNC4wOTk5OTA4NDQ3MjY1Niw1NTApIj48cGF0aCBpZD0iU3ZnanNQYXRoMTIyMyIgZD0iTSAwIDBMIDEwMCAwTCAxMDAgNDRMIDAgNDRaIiBzdHJva2U9InJnYmEoNTAsNTAsNTAsMSkiIHN0cm9rZS13aWR0aD0iMiIgZmlsbC1vcGFjaXR5PSIxIiBmaWxsPSIjZmZmZmZmIi8+PGcgaWQ9IlN2Z2pzRzEyMjQiPjx0ZXh0IGlkPSJTdmdqc1RleHQxMjI1IiBmb250LWZhbWlseT0i5b6u6L2v6ZuF6buRIiB0ZXh0LWFuY2hvcj0ibWlkZGxlIiBmb250LXNpemU9IjEzcHgiIHdpZHRoPSI4MHB4IiBmaWxsPSIjMzIzMjMyIiBmb250LXdlaWdodD0iNDAwIiBhbGlnbj0ibWlkZGxlIiBsaW5laGVpZ2h0PSIxMjUlIiBhbmNob3I9Im1pZGRsZSIgZmFtaWx5PSLlvq7ova/pm4Xpu5EiIHNpemU9IjEzcHgiIHdlaWdodD0iNDAwIiBmb250LXN0eWxlPSIiIG9wYWNpdHk9IjEiIHk9IjExLjM3NSIgdHJhbnNmb3JtPSJyb3RhdGUoMCkiPjx0c3BhbiBpZD0iU3ZnanNUc3BhbjEyMjYiIGR5PSIxNiIgeD0iNTAiPjx0c3BhbiBpZD0iU3ZnanNUc3BhbjEyMjciIHN0eWxlPSJ0ZXh0LWRlY29yYXRpb246OyI+YWNxdWlyZSgxKTwvdHNwYW4+PC90c3Bhbj48L3RleHQ+PC9nPjwvZz48ZyBpZD0iU3ZnanNHMTIyOCI+PHBhdGggaWQ9IlN2Z2pzUGF0aDEyMjkiIGQ9Ik0zMTQuNTk5OTkwODQ0NzI2NTYgNDE3TDMxNC41OTk5OTA4NDQ3MjY1NiA0NDAuNUwzMTQuNTk5OTkwODQ0NzI2NTYgNDQwLjVMMzE0LjU5OTk5MDg0NDcyNjU2IDQ2MS40IiBzdHJva2UtZGFzaGFycmF5PSIzLDMiIHN0cm9rZT0iIzMyMzIzMiIgc3Ryb2tlLXdpZHRoPSIyIiBmaWxsPSJub25lIiBtYXJrZXItZW5kPSJ1cmwoI1N2Z2pzTWFya2VyMTIzMCkiLz48L2c+PGcgaWQ9IlN2Z2pzRzEyMzIiPjxwYXRoIGlkPSJTdmdqc1BhdGgxMjMzIiBkPSJNNDM1LjA5OTk5MDg0NDcyNjU2IDU3Nkw1MDIuODQ5OTkwODQ0NzI2NTYgNTc2TDUwMi44NDk5OTA4NDQ3MjY1NiA1NzZMNTY1Ljk5OTk5MDg0NDcyNjUgNTc2IiBzdHJva2UtZGFzaGFycmF5PSIzLDMiIHN0cm9rZT0iIzMyMzIzMiIgc3Ryb2tlLXdpZHRoPSIyIiBmaWxsPSJub25lIiBtYXJrZXItZW5kPSJ1cmwoI1N2Z2pzTWFya2VyMTIzNCkiLz48cmVjdCBpZD0iU3ZnanNSZWN0MTIzNiIgd2lkdGg9IjEwNCIgaGVpZ2h0PSIxNiIgeD0iNDQ4LjU0OTk5MDg0NDcyNjU1IiB5PSI1NjgiIGZpbGw9IiNmZmZmZmYiLz48dGV4dCBpZD0iU3ZnanNUZXh0MTIzNyIgZm9udC1mYW1pbHk9IuW+rui9r+mbhem7kSIgdGV4dC1hbmNob3I9Im1pZGRsZSIgZm9udC1zaXplPSIxM3B4IiB3aWR0aD0iMTA0cHgiIGZpbGw9IiMzMjMyMzIiIGZvbnQtd2VpZ2h0PSI0MDAiIGFsaWduPSJ0b3AiIGxpbmVoZWlnaHQ9IjE2cHgiIGFuY2hvcj0ibWlkZGxlIiBmYW1pbHk9IuW+rui9r+mbhem7kSIgc2l6ZT0iMTNweCIgd2VpZ2h0PSI0MDAiIGZvbnQtc3R5bGU9IiIgb3BhY2l0eT0iMSIgeT0iNTY1LjM3NSIgdHJhbnNmb3JtPSJyb3RhdGUoMCkiPjx0c3BhbiBpZD0iU3ZnanNUc3BhbjEyMzgiIGR5PSIxNiIgeD0iNTAwLjU0OTk5MDg0NDcyNjU1Ij48dHNwYW4gaWQ9IlN2Z2pzVHNwYW4xMjM5IiBzdHlsZT0idGV4dC1kZWNvcmF0aW9uOjsiPuS9v+eUqOeahHRyeUFjcXVpcmU8L3RzcGFuPjwvdHNwYW4+PC90ZXh0PjwvZz48ZyBpZD0iU3ZnanNHMTI0MCIgdHJhbnNmb3JtPSJ0cmFuc2xhdGUoNTY5LjU5OTk5MDg0NDcyNjYsNTQyKSI+PHBhdGggaWQ9IlN2Z2pzUGF0aDEyNDEiIGQ9Ik0gMCAwTCAxNDggMEwgMTQ4IDY4TCAwIDY4WiIgc3Ryb2tlPSJyZ2JhKDUwLDUwLDUwLDEpIiBzdHJva2Utd2lkdGg9IjIiIGZpbGwtb3BhY2l0eT0iMSIgZmlsbD0iI2ZmZmZmZiIvPjxnIGlkPSJTdmdqc0cxMjQyIj48dGV4dCBpZD0iU3ZnanNUZXh0MTI0MyIgZm9udC1mYW1pbHk9IuW+rui9r+mbhem7kSIgdGV4dC1hbmNob3I9Im1pZGRsZSIgZm9udC1zaXplPSIxM3B4IiB3aWR0aD0iMTI4cHgiIGZpbGw9IiMzMjMyMzIiIGZvbnQtd2VpZ2h0PSI0MDAiIGFsaWduPSJtaWRkbGUiIGxpbmVoZWlnaHQ9IjEyNSUiIGFuY2hvcj0ibWlkZGxlIiBmYW1pbHk9IuW+rui9r+mbhem7kSIgc2l6ZT0iMTNweCIgd2VpZ2h0PSI0MDAiIGZvbnQtc3R5bGU9IiIgb3BhY2l0eT0iMSIgeT0iMTQuODc1IiB0cmFuc2Zvcm09InJvdGF0ZSgwKSI+PHRzcGFuIGlkPSJTdmdqc1RzcGFuMTI0NCIgZHk9IjE2IiB4PSI3NCI+PHRzcGFuIGlkPSJTdmdqc1RzcGFuMTI0NSIgc3R5bGU9InRleHQtZGVjb3JhdGlvbjo7Ij7nm7TmjqXosIPnlKjniLbnsbtTeW5j55qEPC90c3Bhbj48L3RzcGFuPjx0c3BhbiBpZD0iU3ZnanNUc3BhbjEyNDYiIGR5PSIxNiIgeD0iNzQiPjx0c3BhbiBpZD0iU3ZnanNUc3BhbjEyNDciIHN0eWxlPSJ0ZXh0LWRlY29yYXRpb246OyI+bm9uZmFpclRyeUFjcXVpcmU8L3RzcGFuPjwvdHNwYW4+PC90ZXh0PjwvZz48L2c+PGcgaWQ9IlN2Z2pzRzEyNDgiIHRyYW5zZm9ybT0idHJhbnNsYXRlKDc1OS41OTk5OTA4NDQ3MjY2LDM5NSkiPjxwYXRoIGlkPSJTdmdqc1BhdGgxMjQ5IiBkPSJNIDAgMEwgMzk5IDBMIDQxNSAxNkwgNDE1IDM2MkwgMCAzNjJMIDAgMFoiIHN0cm9rZT0ibm9uZSIgZmlsbC1vcGFjaXR5PSIxIiBmaWxsPSIjZmZmZmFhIi8+PHBhdGggaWQ9IlN2Z2pzUGF0aDEyNTAiIGQ9Ik0gMzk5IDBMIDM5OSAxNkwgNDE1IDE2WiIgc3Ryb2tlPSJub25lIiBmaWxsLW9wYWNpdHk9IjEiIGZpbGw9IiNjZGNkY2QiLz48cGF0aCBpZD0iU3ZnanNQYXRoMTI1MSIgZD0iTSAwIDBMIDM5OSAwTCA0MTUgMTZMIDQxNSAzNjJMIDAgMzYyTCAwIDBaIiBzdHJva2U9Im5vbmUiIGZpbGw9Im5vbmUiLz48ZyBpZD0iU3ZnanNHMTI1MiI+PHRleHQgaWQ9IlN2Z2pzVGV4dDEyNTMiIGZvbnQtZmFtaWx5PSLlvq7ova/pm4Xpu5EiIHRleHQtYW5jaG9yPSJtaWRkbGUiIGZvbnQtc2l6ZT0iMTNweCIgd2lkdGg9IjM5NXB4IiBmaWxsPSIjMzIzMjMyIiBmb250LXdlaWdodD0iNDAwIiBhbGlnbj0ibWlkZGxlIiBsaW5laGVpZ2h0PSIxMjUlIiBhbmNob3I9Im1pZGRsZSIgZmFtaWx5PSLlvq7ova/pm4Xpu5EiIHNpemU9IjEzcHgiIHdlaWdodD0iNDAwIiBmb250LXN0eWxlPSIiIG9wYWNpdHk9IjEiIHk9IjE3MC4zNzUiIHRyYW5zZm9ybT0icm90YXRlKDApIi8+PC9nPjwvZz48ZyBpZD0iU3ZnanNHMTI1NCIgdHJhbnNmb3JtPSJ0cmFuc2xhdGUoOTAzLjU5OTk5MDg0NDcyNjYsNDA5LjAwMDAwMDQ3NjgzNzE2KSI+PHBhdGggaWQ9IlN2Z2pzUGF0aDEyNTUiIGQ9Ik0gMCAzMC41TCA2Mi41IDBMIDEyNSAzMC41TCA2Mi41IDYxWiIgc3Ryb2tlPSJyZ2JhKDUwLDUwLDUwLDEpIiBzdHJva2Utd2lkdGg9IjIiIGZpbGwtb3BhY2l0eT0iMSIgZmlsbD0iI2ZmYjc0ZCIvPjxnIGlkPSJTdmdqc0cxMjU2Ij48dGV4dCBpZD0iU3ZnanNUZXh0MTI1NyIgZm9udC1mYW1pbHk9IuW+rui9r+mbhem7kSIgdGV4dC1hbmNob3I9Im1pZGRsZSIgZm9udC1zaXplPSIxM3B4IiB3aWR0aD0iMTA1cHgiIGZpbGw9IiMzMjMyMzIiIGZvbnQtd2VpZ2h0PSI0MDAiIGFsaWduPSJtaWRkbGUiIGxpbmVoZWlnaHQ9IjEyNSUiIGFuY2hvcj0ibWlkZGxlIiBmYW1pbHk9IuW+rui9r+mbhem7kSIgc2l6ZT0iMTNweCIgd2VpZ2h0PSI0MDAiIGZvbnQtc3R5bGU9IiIgb3BhY2l0eT0iMSIgeT0iMjAuMTgiIHRyYW5zZm9ybT0icm90YXRlKDApIj48dHNwYW4gaWQ9IlN2Z2pzVHNwYW4xMjU4IiBkeT0iMTYiIHg9IjYyLjUiPjx0c3BhbiBpZD0iU3ZnanNUc3BhbjEyNTkiIHN0eWxlPSJ0ZXh0LWRlY29yYXRpb246OyI+c3RhdGU9PTA/PC90c3Bhbj48L3RzcGFuPjwvdGV4dD48L2c+PC9nPjxnIGlkPSJTdmdqc0cxMjYwIj48cGF0aCBpZD0iU3ZnanNQYXRoMTI2MSIgZD0iTTkwMi41OTk5OTA4NDQ3MjY2IDQzOS41MDAwMDA0NzY4MzcxNkw4NDUgNDM5LjUwMDAwMDQ3NjgzNzE2TDg0NSA0OTIuODAwMDAxNTI1ODc4OSIgc3Ryb2tlPSIjMzIzMjMyIiBzdHJva2Utd2lkdGg9IjIiIGZpbGw9Im5vbmUiIG1hcmtlci1lbmQ9InVybCgjU3ZnanNNYXJrZXIxMjYyKSIvPjxyZWN0IGlkPSJTdmdqc1JlY3QxMjY0IiB3aWR0aD0iMTMiIGhlaWdodD0iMTYiIHg9Ijg0MC42NDk5OTQ4OTc4NDI0IiB5PSI0MzEuNTAwMDAwNDc2ODM3MTYiIGZpbGw9IiNmZmZmZmYiLz48dGV4dCBpZD0iU3ZnanNUZXh0MTI2NSIgZm9udC1mYW1pbHk9IuW+rui9r+mbhem7kSIgdGV4dC1hbmNob3I9Im1pZGRsZSIgZm9udC1zaXplPSIxM3B4IiB3aWR0aD0iMTNweCIgZmlsbD0iIzMyMzIzMiIgZm9udC13ZWlnaHQ9IjQwMCIgYWxpZ249InRvcCIgbGluZWhlaWdodD0iMTZweCIgYW5jaG9yPSJtaWRkbGUiIGZhbWlseT0i5b6u6L2v6ZuF6buRIiBzaXplPSIxM3B4IiB3ZWlnaHQ9IjQwMCIgZm9udC1zdHlsZT0iIiBvcGFjaXR5PSIxIiB5PSI0MjguODc1MDAwNDc2ODM3MTYiIHRyYW5zZm9ybT0icm90YXRlKDApIj48dHNwYW4gaWQ9IlN2Z2pzVHNwYW4xMjY2IiBkeT0iMTYiIHg9Ijg0Ny4xNDk5OTQ4OTc4NDI0Ij48dHNwYW4gaWQ9IlN2Z2pzVHNwYW4xMjY3IiBzdHlsZT0idGV4dC1kZWNvcmF0aW9uOjsiPuaYrzwvdHNwYW4+PC90c3Bhbj48L3RleHQ+PC9nPjxnIGlkPSJTdmdqc0cxMjY4IiB0cmFuc2Zvcm09InRyYW5zbGF0ZSg4MDMuNSw0OTYuNDAwMDAxNTI1ODc4OSkiPjxwYXRoIGlkPSJTdmdqc1BhdGgxMjY5IiBkPSJNIDAgMEwgODMgMEwgODMgMzhMIDAgMzhaIiBzdHJva2U9InJnYmEoNTAsNTAsNTAsMSkiIHN0cm9rZS13aWR0aD0iMiIgZmlsbC1vcGFjaXR5PSIxIiBmaWxsPSIjZmZmZmZmIi8+PGcgaWQ9IlN2Z2pzRzEyNzAiPjx0ZXh0IGlkPSJTdmdqc1RleHQxMjcxIiBmb250LWZhbWlseT0i5b6u6L2v6ZuF6buRIiB0ZXh0LWFuY2hvcj0ibWlkZGxlIiBmb250LXNpemU9IjEzcHgiIHdpZHRoPSI2M3B4IiBmaWxsPSIjMzIzMjMyIiBmb250LXdlaWdodD0iNDAwIiBhbGlnbj0ibWlkZGxlIiBsaW5laGVpZ2h0PSIxMjUlIiBhbmNob3I9Im1pZGRsZSIgZmFtaWx5PSLlvq7ova/pm4Xpu5EiIHNpemU9IjEzcHgiIHdlaWdodD0iNDAwIiBmb250LXN0eWxlPSIiIG9wYWNpdHk9IjEiIHk9IjguMzc1IiB0cmFuc2Zvcm09InJvdGF0ZSgwKSI+PHRzcGFuIGlkPSJTdmdqc1RzcGFuMTI3MiIgZHk9IjE2IiB4PSI0MS41Ij48dHNwYW4gaWQ9IlN2Z2pzVHNwYW4xMjczIiBzdHlsZT0idGV4dC1kZWNvcmF0aW9uOjsiPmNhc+iOt+WPlumUgTwvdHNwYW4+PC90c3Bhbj48L3RleHQ+PC9nPjwvZz48ZyBpZD0iU3ZnanNHMTI3NCI+PHBhdGggaWQ9IlN2Z2pzUGF0aDEyNzUiIGQ9Ik04NDQgNTM1LjQwMDAwMTUyNTg3ODlMODQ0IDU1Ni41MDAwMDA0NzY4MzcyTDg0NCA1NTYuNTAwMDAwNDc2ODM3Mkw4NDQgNTc4LjgwMDAwMTUyNTg3ODkiIHN0cm9rZT0iIzE5NzZkMiIgc3Ryb2tlLXdpZHRoPSIyIiBmaWxsPSJub25lIiBtYXJrZXItZW5kPSJ1cmwoI1N2Z2pzTWFya2VyMTI3NikiLz48cmVjdCBpZD0iU3ZnanNSZWN0MTI3OCIgd2lkdGg9IjI2IiBoZWlnaHQ9IjE2IiB4PSI4MzEiIHk9IjU0OS4xMDAwMDE1MjU4Nzg4IiBmaWxsPSIjZmZmZmZmIi8+PHRleHQgaWQ9IlN2Z2pzVGV4dDEyNzkiIGZvbnQtZmFtaWx5PSLlvq7ova/pm4Xpu5EiIHRleHQtYW5jaG9yPSJtaWRkbGUiIGZvbnQtc2l6ZT0iMTNweCIgd2lkdGg9IjI2cHgiIGZpbGw9IiMzMjMyMzIiIGZvbnQtd2VpZ2h0PSI0MDAiIGFsaWduPSJ0b3AiIGxpbmVoZWlnaHQ9IjE2cHgiIGFuY2hvcj0ibWlkZGxlIiBmYW1pbHk9IuW+rui9r+mbhem7kSIgc2l6ZT0iMTNweCIgd2VpZ2h0PSI0MDAiIGZvbnQtc3R5bGU9IiIgb3BhY2l0eT0iMSIgeT0iNTQ2LjQ3NTAwMTUyNTg3ODgiIHRyYW5zZm9ybT0icm90YXRlKDApIj48dHNwYW4gaWQ9IlN2Z2pzVHNwYW4xMjgwIiBkeT0iMTYiIHg9Ijg0NCI+PHRzcGFuIGlkPSJTdmdqc1RzcGFuMTI4MSIgc3R5bGU9InRleHQtZGVjb3JhdGlvbjo7Ij7miJDlip88L3RzcGFuPjwvdHNwYW4+PC90ZXh0PjwvZz48ZyBpZD0iU3ZnanNHMTI4MiIgdHJhbnNmb3JtPSJ0cmFuc2xhdGUoNzc0LDU4Mi40MDAwMDE1MjU4Nzg5KSI+PHBhdGggaWQ9IlN2Z2pzUGF0aDEyODMiIGQ9Ik0gMCAwTCAxNDAgMEwgMTQwIDY4TCAwIDY4WiIgc3Ryb2tlPSJyZ2JhKDUwLDUwLDUwLDEpIiBzdHJva2Utd2lkdGg9IjIiIGZpbGwtb3BhY2l0eT0iMSIgZmlsbD0iI2ZmZmZmZiIvPjxnIGlkPSJTdmdqc0cxMjg0Ij48dGV4dCBpZD0iU3ZnanNUZXh0MTI4NSIgZm9udC1mYW1pbHk9IuW+rui9r+mbhem7kSIgdGV4dC1hbmNob3I9Im1pZGRsZSIgZm9udC1zaXplPSIxM3B4IiB3aWR0aD0iMTIwcHgiIGZpbGw9IiMzMjMyMzIiIGZvbnQtd2VpZ2h0PSI0MDAiIGFsaWduPSJtaWRkbGUiIGxpbmVoZWlnaHQ9IjEyNSUiIGFuY2hvcj0ibWlkZGxlIiBmYW1pbHk9IuW+rui9r+mbhem7kSIgc2l6ZT0iMTNweCIgd2VpZ2h0PSI0MDAiIGZvbnQtc3R5bGU9IiIgb3BhY2l0eT0iMSIgeT0iNi44NzUiIHRyYW5zZm9ybT0icm90YXRlKDApIj48dHNwYW4gaWQ9IlN2Z2pzVHNwYW4xMjg2IiBkeT0iMTYiIHg9IjcwIj48dHNwYW4gaWQ9IlN2Z2pzVHNwYW4xMjg3IiBzdHlsZT0idGV4dC1kZWNvcmF0aW9uOjsiPuiuvue9ruaOkuWug+mUgeeahOe6v+eoi+S4ujwvdHNwYW4+PC90c3Bhbj48dHNwYW4gaWQ9IlN2Z2pzVHNwYW4xMjg4IiBkeT0iMTYiIHg9IjcwIj48dHNwYW4gaWQ9IlN2Z2pzVHNwYW4xMjg5IiBzdHlsZT0idGV4dC1kZWNvcmF0aW9uOjsiPuW9k+WJjee6v+eoi++8jOWNs+mUgeeahDwvdHNwYW4+PC90c3Bhbj48dHNwYW4gaWQ9IlN2Z2pzVHNwYW4xMjkwIiBkeT0iMTYiIHg9IjcwIj48dHNwYW4gaWQ9IlN2Z2pzVHNwYW4xMjkxIiBzdHlsZT0idGV4dC1kZWNvcmF0aW9uOjsiPm93bmVy5piv5b2T5YmN57q/56iLPC90c3Bhbj48L3RzcGFuPjwvdGV4dD48L2c+PC9nPjxnIGlkPSJTdmdqc0cxMjkyIj48cGF0aCBpZD0iU3ZnanNQYXRoMTI5MyIgZD0iTTEwMjkuNTk5OTkwODQ0NzI2NiA0MzkuNTAwMDAwNDc2ODM3MTZMMTA5NiA0MzkuNTAwMDAwNDc2ODM3MTZMMTA5NiA0NzUuMzAwMDAxNTI1ODc4OSIgc3Ryb2tlPSIjMzIzMjMyIiBzdHJva2Utd2lkdGg9IjIiIGZpbGw9Im5vbmUiIG1hcmtlci1lbmQ9InVybCgjU3ZnanNNYXJrZXIxMjk0KSIvPjxyZWN0IGlkPSJTdmdqc1JlY3QxMjk2IiB3aWR0aD0iMTMiIGhlaWdodD0iMTYiIHg9IjEwNzQuMTk5OTk1OTQ2ODg0MiIgeT0iNDMxLjUwMDAwMDQ3NjgzNzE2IiBmaWxsPSIjZmZmZmZmIi8+PHRleHQgaWQ9IlN2Z2pzVGV4dDEyOTciIGZvbnQtZmFtaWx5PSLlvq7ova/pm4Xpu5EiIHRleHQtYW5jaG9yPSJtaWRkbGUiIGZvbnQtc2l6ZT0iMTNweCIgd2lkdGg9IjEzcHgiIGZpbGw9IiMzMjMyMzIiIGZvbnQtd2VpZ2h0PSI0MDAiIGFsaWduPSJ0b3AiIGxpbmVoZWlnaHQ9IjE2cHgiIGFuY2hvcj0ibWlkZGxlIiBmYW1pbHk9IuW+rui9r+mbhem7kSIgc2l6ZT0iMTNweCIgd2VpZ2h0PSI0MDAiIGZvbnQtc3R5bGU9IiIgb3BhY2l0eT0iMSIgeT0iNDI4Ljg3NTAwMDQ3NjgzNzE2IiB0cmFuc2Zvcm09InJvdGF0ZSgwKSI+PHRzcGFuIGlkPSJTdmdqc1RzcGFuMTI5OCIgZHk9IjE2IiB4PSIxMDgwLjY5OTk5NTk0Njg4NDIiPjx0c3BhbiBpZD0iU3ZnanNUc3BhbjEyOTkiIHN0eWxlPSJ0ZXh0LWRlY29yYXRpb246OyI+5ZCmPC90c3Bhbj48L3RzcGFuPjwvdGV4dD48L2c+PGcgaWQ9IlN2Z2pzRzEzMDAiIHRyYW5zZm9ybT0idHJhbnNsYXRlKDEwNDIuNSw0NzguOTAwMDAxNTI1ODc4OSkiPjxwYXRoIGlkPSJTdmdqc1BhdGgxMzAxIiBkPSJNIDAgMzYuNUwgNTMuNSAwTCAxMDcgMzYuNUwgNTMuNSA3M1oiIHN0cm9rZT0icmdiYSg1MCw1MCw1MCwxKSIgc3Ryb2tlLXdpZHRoPSIyIiBmaWxsLW9wYWNpdHk9IjEiIGZpbGw9IiNmZmI3NGQiLz48ZyBpZD0iU3ZnanNHMTMwMiI+PHRleHQgaWQ9IlN2Z2pzVGV4dDEzMDMiIGZvbnQtZmFtaWx5PSLlvq7ova/pm4Xpu5EiIHRleHQtYW5jaG9yPSJtaWRkbGUiIGZvbnQtc2l6ZT0iMTNweCIgd2lkdGg9Ijg3cHgiIGZpbGw9IiMzMjMyMzIiIGZvbnQtd2VpZ2h0PSI0MDAiIGFsaWduPSJtaWRkbGUiIGxpbmVoZWlnaHQ9IjEyNSUiIGFuY2hvcj0ibWlkZGxlIiBmYW1pbHk9IuW+rui9r+mbhem7kSIgc2l6ZT0iMTNweCIgd2VpZ2h0PSI0MDAiIGZvbnQtc3R5bGU9IiIgb3BhY2l0eT0iMSIgeT0iMTcuNzQwMDAwMDAwMDAwMDAyIiB0cmFuc2Zvcm09InJvdGF0ZSgwKSI+PHRzcGFuIGlkPSJTdmdqc1RzcGFuMTMwNCIgZHk9IjE2IiB4PSI1My41Ij48dHNwYW4gaWQ9IlN2Z2pzVHNwYW4xMzA1IiBzdHlsZT0idGV4dC1kZWNvcmF0aW9uOjsiPuW9k+WJjee6v+eoi+aYr+WQpjwvdHNwYW4+PC90c3Bhbj48dHNwYW4gaWQ9IlN2Z2pzVHNwYW4xMzA2IiBkeT0iMTYiIHg9IjUzLjUiPjx0c3BhbiBpZD0iU3ZnanNUc3BhbjEzMDciIHN0eWxlPSJ0ZXh0LWRlY29yYXRpb246OyI+5piv6ZSB55qE5Li75Lq6PC90c3Bhbj48L3RzcGFuPjwvdGV4dD48L2c+PC9nPjxnIGlkPSJTdmdqc0cxMzA4Ij48cGF0aCBpZD0iU3ZnanNQYXRoMTMwOSIgZD0iTTEwOTYgNTUyLjkwMDAwMTUyNTg3ODlMMTA5NiA1NjYuMDAwMDAwNDc2ODM3MkwxMDk2IDU2Ni4wMDAwMDA0NzY4MzcyTDEwOTYgNTc4LjgwMDAwMTUyNTg3ODkiIHN0cm9rZT0iIzMyMzIzMiIgc3Ryb2tlLXdpZHRoPSIyIiBmaWxsPSJub25lIiBtYXJrZXItZW5kPSJ1cmwoI1N2Z2pzTWFya2VyMTMxMCkiLz48cmVjdCBpZD0iU3ZnanNSZWN0MTMxMiIgd2lkdGg9IjEzIiBoZWlnaHQ9IjE2IiB4PSIxMDg5LjUiIHk9IjU1Ny44NTAwMDE1MjU4Nzg4IiBmaWxsPSIjZmZmZmZmIi8+PHRleHQgaWQ9IlN2Z2pzVGV4dDEzMTMiIGZvbnQtZmFtaWx5PSLlvq7ova/pm4Xpu5EiIHRleHQtYW5jaG9yPSJtaWRkbGUiIGZvbnQtc2l6ZT0iMTNweCIgd2lkdGg9IjEzcHgiIGZpbGw9IiMzMjMyMzIiIGZvbnQtd2VpZ2h0PSI0MDAiIGFsaWduPSJ0b3AiIGxpbmVoZWlnaHQ9IjE2cHgiIGFuY2hvcj0ibWlkZGxlIiBmYW1pbHk9IuW+rui9r+mbhem7kSIgc2l6ZT0iMTNweCIgd2VpZ2h0PSI0MDAiIGZvbnQtc3R5bGU9IiIgb3BhY2l0eT0iMSIgeT0iNTU1LjIyNTAwMTUyNTg3ODgiIHRyYW5zZm9ybT0icm90YXRlKDApIj48dHNwYW4gaWQ9IlN2Z2pzVHNwYW4xMzE0IiBkeT0iMTYiIHg9IjEwOTYiPjx0c3BhbiBpZD0iU3ZnanNUc3BhbjEzMTUiIHN0eWxlPSJ0ZXh0LWRlY29yYXRpb246OyI+5pivPC90c3Bhbj48L3RzcGFuPjwvdGV4dD48L2c+PGcgaWQ9IlN2Z2pzRzEzMTYiIHRyYW5zZm9ybT0idHJhbnNsYXRlKDEwMjIsNTgyLjQwMDAwMTUyNTg3ODkpIj48cGF0aCBpZD0iU3ZnanNQYXRoMTMxNyIgZD0iTSAwIDBMIDE0OCAwTCAxNDggNjhMIDAgNjhaIiBzdHJva2U9InJnYmEoNTAsNTAsNTAsMSkiIHN0cm9rZS13aWR0aD0iMiIgZmlsbC1vcGFjaXR5PSIxIiBmaWxsPSIjZmZmZmZmIi8+PGcgaWQ9IlN2Z2pzRzEzMTgiPjx0ZXh0IGlkPSJTdmdqc1RleHQxMzE5IiBmb250LWZhbWlseT0i5b6u6L2v6ZuF6buRIiB0ZXh0LWFuY2hvcj0ibWlkZGxlIiBmb250LXNpemU9IjEzcHgiIHdpZHRoPSIxMjhweCIgZmlsbD0iIzMyMzIzMiIgZm9udC13ZWlnaHQ9IjQwMCIgYWxpZ249Im1pZGRsZSIgbGluZWhlaWdodD0iMTI1JSIgYW5jaG9yPSJtaWRkbGUiIGZhbWlseT0i5b6u6L2v6ZuF6buRIiBzaXplPSIxM3B4IiB3ZWlnaHQ9IjQwMCIgZm9udC1zdHlsZT0iIiBvcGFjaXR5PSIxIiB5PSIxNC44NzUiIHRyYW5zZm9ybT0icm90YXRlKDApIj48dHNwYW4gaWQ9IlN2Z2pzVHNwYW4xMzIwIiBkeT0iMTYiIHg9Ijc0Ij48dHNwYW4gaWQ9IlN2Z2pzVHNwYW4xMzIxIiBzdHlsZT0idGV4dC1kZWNvcmF0aW9uOjsiPuiuvue9rumUgemHjeWFpeWAvO+8iCsx77yJPC90c3Bhbj48L3RzcGFuPjx0c3BhbiBpZD0iU3ZnanNUc3BhbjEzMjIiIGR5PSIxNiIgeD0iNzQiPjx0c3BhbiBpZD0iU3ZnanNUc3BhbjEzMjMiIHN0eWxlPSJ0ZXh0LWRlY29yYXRpb246OyI+6L+Z6YeM5LiN55SoY2FzPC90c3Bhbj48L3RzcGFuPjwvdGV4dD48L2c+PC9nPjxnIGlkPSJTdmdqc0cxMzI0IiB0cmFuc2Zvcm09InRyYW5zbGF0ZSg5MjcuNTk5OTkwODQ0NzI2Niw2OTUpIj48cGF0aCBpZD0iU3ZnanNQYXRoMTMyNSIgZD0iTSAwIDBMIDEwMCAwTCAxMDAgNTNMIDAgNTNaIiBzdHJva2U9InJnYmEoNTAsNTAsNTAsMSkiIHN0cm9rZS13aWR0aD0iMiIgZmlsbC1vcGFjaXR5PSIxIiBmaWxsPSIjZmZmZmZmIi8+PGcgaWQ9IlN2Z2pzRzEzMjYiPjx0ZXh0IGlkPSJTdmdqc1RleHQxMzI3IiBmb250LWZhbWlseT0i5b6u6L2v6ZuF6buRIiB0ZXh0LWFuY2hvcj0ibWlkZGxlIiBmb250LXNpemU9IjEzcHgiIHdpZHRoPSI4MHB4IiBmaWxsPSIjMzIzMjMyIiBmb250LXdlaWdodD0iNDAwIiBhbGlnbj0ibWlkZGxlIiBsaW5laGVpZ2h0PSIxMjUlIiBhbmNob3I9Im1pZGRsZSIgZmFtaWx5PSLlvq7ova/pm4Xpu5EiIHNpemU9IjEzcHgiIHdlaWdodD0iNDAwIiBmb250LXN0eWxlPSIiIG9wYWNpdHk9IjEiIHk9IjE1Ljg3NSIgdHJhbnNmb3JtPSJyb3RhdGUoMCkiPjx0c3BhbiBpZD0iU3ZnanNUc3BhbjEzMjgiIGR5PSIxNiIgeD0iNTAiPjx0c3BhbiBpZD0iU3ZnanNUc3BhbjEzMjkiIHN0eWxlPSJ0ZXh0LWRlY29yYXRpb246OyI+6L+U5ZuedHJ1ZTwvdHNwYW4+PC90c3Bhbj48L3RleHQ+PC9nPjwvZz48ZyBpZD0iU3ZnanNHMTMzMCI+PHBhdGggaWQ9IlN2Z2pzUGF0aDEzMzEiIGQ9Ik0xMDk2IDY1MS40MDAwMDE1MjU4Nzg5TDEwOTYgNjcwLjVMOTc3LjU5OTk5MDg0NDcyNjYgNjcwLjVMOTc3LjU5OTk5MDg0NDcyNjYgNjkxLjQiIHN0cm9rZT0iIzMyMzIzMiIgc3Ryb2tlLXdpZHRoPSIyIiBmaWxsPSJub25lIiBtYXJrZXItZW5kPSJ1cmwoI1N2Z2pzTWFya2VyMTMzMikiLz48L2c+PGcgaWQ9IlN2Z2pzRzEzMzQiPjxwYXRoIGlkPSJTdmdqc1BhdGgxMzM1IiBkPSJNODQ0IDY1MS40MDAwMDE1MjU4Nzg5TDg0NCA2NzAuNUw5NzcuNTk5OTkwODQ0NzI2NiA2NzAuNUw5NzcuNTk5OTkwODQ0NzI2NiA2OTEuNCIgc3Ryb2tlPSIjMTk3NmQyIiBzdHJva2Utd2lkdGg9IjIiIGZpbGw9Im5vbmUiIG1hcmtlci1lbmQ9InVybCgjU3ZnanNNYXJrZXIxMzM2KSIvPjwvZz48ZyBpZD0iU3ZnanNHMTMzOCI+PHBhdGggaWQ9IlN2Z2pzUGF0aDEzMzkiIGQ9Ik0xMDQxLjUgNTE1LjQwMDAwMTUyNTg3ODlMMTAxNi45MTI0OTA4NDQ3MjY2IDUxNS40MDAwMDE1MjU4Nzg5TDEwMTYuOTEyNDkwODQ0NzI2NiA1MTUuNDAwMDAxNTI1ODc4OUw5OTYuNTc0OTkwODQ0NzI2NiA1MTUuNDAwMDAxNTI1ODc4OSIgc3Ryb2tlPSIjMzIzMjMyIiBzdHJva2Utd2lkdGg9IjIiIGZpbGw9Im5vbmUiIG1hcmtlci1lbmQ9InVybCgjU3ZnanNNYXJrZXIxMzQwKSIvPjxyZWN0IGlkPSJTdmdqc1JlY3QxMzQyIiB3aWR0aD0iMTMiIGhlaWdodD0iMTYiIHg9IjEwMTIuNTM3NDk1NDIyMzYzMiIgeT0iNTA3LjQwMDAwMTUyNTg3ODkiIGZpbGw9IiNmZmZmZmYiLz48dGV4dCBpZD0iU3ZnanNUZXh0MTM0MyIgZm9udC1mYW1pbHk9IuW+rui9r+mbhem7kSIgdGV4dC1hbmNob3I9Im1pZGRsZSIgZm9udC1zaXplPSIxM3B4IiB3aWR0aD0iMTNweCIgZmlsbD0iIzMyMzIzMiIgZm9udC13ZWlnaHQ9IjQwMCIgYWxpZ249InRvcCIgbGluZWhlaWdodD0iMTZweCIgYW5jaG9yPSJtaWRkbGUiIGZhbWlseT0i5b6u6L2v6ZuF6buRIiBzaXplPSIxM3B4IiB3ZWlnaHQ9IjQwMCIgZm9udC1zdHlsZT0iIiBvcGFjaXR5PSIxIiB5PSI1MDQuNzc1MDAxNTI1ODc4OSIgdHJhbnNmb3JtPSJyb3RhdGUoMCkiPjx0c3BhbiBpZD0iU3ZnanNUc3BhbjEzNDQiIGR5PSIxNiIgeD0iMTAxOS4wMzc0OTU0MjIzNjMyIj48dHNwYW4gaWQ9IlN2Z2pzVHNwYW4xMzQ1IiBzdHlsZT0idGV4dC1kZWNvcmF0aW9uOjsiPuWQpjwvdHNwYW4+PC90c3Bhbj48L3RleHQ+PC9nPjxnIGlkPSJTdmdqc0cxMzQ2IiB0cmFuc2Zvcm09InRyYW5zbGF0ZSg5NDIuOTc0OTkwODQ0NzI2Niw0OTMuNDAwMDAxNTI1ODc4OSkiPjxwYXRoIGlkPSJTdmdqc1BhdGgxMzQ3IiBkPSJNIDAgMEwgNTAgMEwgNTAgNDRMIDAgNDRaIiBzdHJva2U9InJnYmEoNTAsNTAsNTAsMSkiIHN0cm9rZS13aWR0aD0iMiIgZmlsbC1vcGFjaXR5PSIxIiBmaWxsPSIjZmZmZmZmIi8+PGcgaWQ9IlN2Z2pzRzEzNDgiPjx0ZXh0IGlkPSJTdmdqc1RleHQxMzQ5IiBmb250LWZhbWlseT0i5b6u6L2v6ZuF6buRIiB0ZXh0LWFuY2hvcj0ibWlkZGxlIiBmb250LXNpemU9IjEzcHgiIHdpZHRoPSIzMHB4IiBmaWxsPSIjMzIzMjMyIiBmb250LXdlaWdodD0iNDAwIiBhbGlnbj0ibWlkZGxlIiBsaW5laGVpZ2h0PSIxMjUlIiBhbmNob3I9Im1pZGRsZSIgZmFtaWx5PSLlvq7ova/pm4Xpu5EiIHNpemU9IjEzcHgiIHdlaWdodD0iNDAwIiBmb250LXN0eWxlPSIiIG9wYWNpdHk9IjEiIHk9IjIuODc1IiB0cmFuc2Zvcm09InJvdGF0ZSgwKSI+PHRzcGFuIGlkPSJTdmdqc1RzcGFuMTM1MCIgZHk9IjE2IiB4PSIyNSI+PHRzcGFuIGlkPSJTdmdqc1RzcGFuMTM1MSIgc3R5bGU9InRleHQtZGVjb3JhdGlvbjo7Ij7ov5Tlm548L3RzcGFuPjwvdHNwYW4+PHRzcGFuIGlkPSJTdmdqc1RzcGFuMTM1MiIgZHk9IjE2IiB4PSIyNSI+PHRzcGFuIGlkPSJTdmdqc1RzcGFuMTM1MyIgc3R5bGU9InRleHQtZGVjb3JhdGlvbjo7Ij5mYWxzZTwvdHNwYW4+PC90c3Bhbj48L3RleHQ+PC9nPjwvZz48ZyBpZD0iU3ZnanNHMTM1NCI+PHBhdGggaWQ9IlN2Z2pzUGF0aDEzNTUiIGQ9Ik04ODcuNSA1MTUuNDAwMDAxNTI1ODc4OUw5MTMuMjg3NDkwODQ0NzI2NiA1MTUuNDAwMDAxNTI1ODc4OUw5MTMuMjg3NDkwODQ0NzI2NiA1MTUuNDAwMDAxNTI1ODc4OUw5MzkuMzc0OTkwODQ0NzI2NSA1MTUuNDAwMDAxNTI1ODc4OSIgc3Ryb2tlPSIjMzIzMjMyIiBzdHJva2Utd2lkdGg9IjIiIGZpbGw9Im5vbmUiIG1hcmtlci1lbmQ9InVybCgjU3ZnanNNYXJrZXIxMzU2KSIvPjxyZWN0IGlkPSJTdmdqc1JlY3QxMzU4IiB3aWR0aD0iMjYiIGhlaWdodD0iMTYiIHg9IjkwMC40Mzc0OTU0MjIzNjMzIiB5PSI1MDcuNDAwMDAxNTI1ODc4OSIgZmlsbD0iI2ZmZmZmZiIvPjx0ZXh0IGlkPSJTdmdqc1RleHQxMzU5IiBmb250LWZhbWlseT0i5b6u6L2v6ZuF6buRIiB0ZXh0LWFuY2hvcj0ibWlkZGxlIiBmb250LXNpemU9IjEzcHgiIHdpZHRoPSIyNnB4IiBmaWxsPSIjMzIzMjMyIiBmb250LXdlaWdodD0iNDAwIiBhbGlnbj0idG9wIiBsaW5laGVpZ2h0PSIxNnB4IiBhbmNob3I9Im1pZGRsZSIgZmFtaWx5PSLlvq7ova/pm4Xpu5EiIHNpemU9IjEzcHgiIHdlaWdodD0iNDAwIiBmb250LXN0eWxlPSIiIG9wYWNpdHk9IjEiIHk9IjUwNC43NzUwMDE1MjU4Nzg5IiB0cmFuc2Zvcm09InJvdGF0ZSgwKSI+PHRzcGFuIGlkPSJTdmdqc1RzcGFuMTM2MCIgZHk9IjE2IiB4PSI5MTMuNDM3NDk1NDIyMzYzMyI+PHRzcGFuIGlkPSJTdmdqc1RzcGFuMTM2MSIgc3R5bGU9InRleHQtZGVjb3JhdGlvbjo7Ij7lpLHotKU8L3RzcGFuPjwvdHNwYW4+PC90ZXh0PjwvZz48ZyBpZD0iU3ZnanNHMTM2MiI+PHBhdGggaWQ9IlN2Z2pzUGF0aDEzNjMiIGQ9Ik03MTguNTk5OTkwODQ0NzI2NiA1NzZMNzQwLjA5OTk5MDg0NDcyNjYgNTc2TDc0MC4wOTk5OTA4NDQ3MjY2IDU3Nkw3NTYuOTk5OTkwODQ0NzI2NSA1NzYiIHN0cm9rZS1kYXNoYXJyYXk9IjMsMyIgc3Ryb2tlPSIjMzIzMjMyIiBzdHJva2Utd2lkdGg9IjIiIGZpbGw9Im5vbmUiIG1hcmtlci1lbmQ9InVybCgjU3ZnanNNYXJrZXIxMzY0KSIvPjwvZz48ZyBpZD0iU3ZnanNHMTM2NiI+PHBhdGggaWQ9IlN2Z2pzUGF0aDEzNjciIGQ9Ik05MDYuMTk5OTkwODQ0NzI2NiAyMDZMOTY3LjA5OTk5MDg0NDcyNjYgMjA2TDk2Ny4wOTk5OTA4NDQ3MjY2IDM5Mi40IiBzdHJva2U9IiM0Y2FmNTAiIHN0cm9rZS13aWR0aD0iMiIgZmlsbD0ibm9uZSIgbWFya2VyLXN0YXJ0PSJ1cmwoI1N2Z2pzTWFya2VyMTM2OCkiIG1hcmtlci1lbmQ9InVybCgjU3ZnanNNYXJrZXIxMzcwKSIvPjxyZWN0IGlkPSJTdmdqc1JlY3QxMzcyIiB3aWR0aD0iMjYiIGhlaWdodD0iMTYiIHg9Ijk1NC4wOTk5OTA4NDQ3MjY2IiB5PSIyNjAuNzUiIGZpbGw9IiNmZmZmZmYiLz48dGV4dCBpZD0iU3ZnanNUZXh0MTM3MyIgZm9udC1mYW1pbHk9IuW+rui9r+mbhem7kSIgdGV4dC1hbmNob3I9Im1pZGRsZSIgZm9udC1zaXplPSIxM3B4IiB3aWR0aD0iMjZweCIgZmlsbD0iIzMyMzIzMiIgZm9udC13ZWlnaHQ9IjQwMCIgYWxpZ249InRvcCIgbGluZWhlaWdodD0iMTZweCIgYW5jaG9yPSJtaWRkbGUiIGZhbWlseT0i5b6u6L2v6ZuF6buRIiBzaXplPSIxM3B4IiB3ZWlnaHQ9IjQwMCIgZm9udC1zdHlsZT0iIiBvcGFjaXR5PSIxIiB5PSIyNTguMTI1IiB0cmFuc2Zvcm09InJvdGF0ZSgwKSI+PHRzcGFuIGlkPSJTdmdqc1RzcGFuMTM3NCIgZHk9IjE2IiB4PSI5NjcuMDk5OTkwODQ0NzI2NiI+PHRzcGFuIGlkPSJTdmdqc1RzcGFuMTM3NSIgc3R5bGU9InRleHQtZGVjb3JhdGlvbjo7Ij7lr7nmr5Q8L3RzcGFuPjwvdHNwYW4+PC90ZXh0PjwvZz48ZyBpZD0iU3ZnanNHMTM3NiIgdHJhbnNmb3JtPSJ0cmFuc2xhdGUoOTc4LjU5OTk5MDg0NDcyNjYsMTUwLjAwMDAwMzgxNDY5NzI3KSI+PHBhdGggaWQ9IlN2Z2pzUGF0aDEzNzciIGQ9Ik0gMCAwTCAxNDggMEwgMTQ4IDkyTCAwIDkyWiIgc3Ryb2tlPSJub25lIiBmaWxsPSJub25lIi8+PGcgaWQ9IlN2Z2pzRzEzNzgiPjx0ZXh0IGlkPSJTdmdqc1RleHQxMzc5IiBmb250LWZhbWlseT0i5b6u6L2v6ZuF6buRIiB0ZXh0LWFuY2hvcj0ibWlkZGxlIiBmb250LXNpemU9IjEzcHgiIHdpZHRoPSIxNDhweCIgZmlsbD0iIzM4OGUzYyIgZm9udC13ZWlnaHQ9IjQwMCIgYWxpZ249Im1pZGRsZSIgbGluZWhlaWdodD0iMTI1JSIgYW5jaG9yPSJtaWRkbGUiIGZhbWlseT0i5b6u6L2v6ZuF6buRIiBzaXplPSIxM3B4IiB3ZWlnaHQ9IjQwMCIgZm9udC1zdHlsZT0iIiBvcGFjaXR5PSIxIiB5PSIyLjg3NSIgdHJhbnNmb3JtPSJyb3RhdGUoMCkiPjx0c3BhbiBpZD0iU3ZnanNUc3BhbjEzODAiIGR5PSIxNiIgeD0iNzQiPjx0c3BhbiBpZD0iU3ZnanNUc3BhbjEzODEiIHN0eWxlPSJ0ZXh0LWRlY29yYXRpb246OyI+5Lik6ICF55qE5Li76KaB5Yy65Yir5Zyo5LqO5YWs5bmzPC90c3Bhbj48L3RzcGFuPjx0c3BhbiBpZD0iU3ZnanNUc3BhbjEzODIiIGR5PSIxNiIgeD0iNzQiPjx0c3BhbiBpZD0iU3ZnanNUc3BhbjEzODMiIHN0eWxlPSJ0ZXh0LWRlY29yYXRpb246OyI+6ZSB5qOA5p+l5b2T5YmN57q/56iL6IqC54K55YmN6Z2iPC90c3Bhbj48L3RzcGFuPjx0c3BhbiBpZD0iU3ZnanNUc3BhbjEzODQiIGR5PSIxNiIgeD0iNzQiPjx0c3BhbiBpZD0iU3ZnanNUc3BhbjEzODUiIHN0eWxlPSJ0ZXh0LWRlY29yYXRpb246OyI+5pyJ5rKh5pyJ5YWI5p2l55qE6IqC54K577yM6ICM6Z2ePC90c3Bhbj48L3RzcGFuPjx0c3BhbiBpZD0iU3ZnanNUc3BhbjEzODYiIGR5PSIxNiIgeD0iNzQiPjx0c3BhbiBpZD0iU3ZnanNUc3BhbjEzODciIHN0eWxlPSJ0ZXh0LWRlY29yYXRpb246OyI+5YWs5bmz6ZSB5YiZ5piv55yL5Yiw6L+Y5rKh5Lq65Y2gPC90c3Bhbj48L3RzcGFuPjx0c3BhbiBpZD0iU3ZnanNUc3BhbjEzODgiIGR5PSIxNiIgeD0iNzQiPjx0c3BhbiBpZD0iU3ZnanNUc3BhbjEzODkiIHN0eWxlPSJ0ZXh0LWRlY29yYXRpb246OyI+6aKG6ZSB5YiZ55u05o6l6K+V5Zu+5Y2g6aKGPC90c3Bhbj48L3RzcGFuPjwvdGV4dD48L2c+PC9nPjxnIGlkPSJTdmdqc0cxMzkwIj48cGF0aCBpZD0iU3ZnanNQYXRoMTM5MSIgZD0iTTkwMy41OTk5OTA4NDQ3MjY2IDk4TDEyNDYuNzI0OTkwODQ0NzI2NiA5OEwxMjQ2LjcyNDk5MDg0NDcyNjYgMjEzLjQiIHN0cm9rZT0iIzMyMzIzMiIgc3Ryb2tlLXdpZHRoPSIyIiBmaWxsPSJub25lIiBtYXJrZXItZW5kPSJ1cmwoI1N2Z2pzTWFya2VyMTM5MikiLz48cmVjdCBpZD0iU3ZnanNSZWN0MTM5NCIgd2lkdGg9IjEwNCIgaGVpZ2h0PSIzMiIgeD0iMTA4MC44NjI0OTA4NDQ3MjY2IiB5PSI4MiIgZmlsbD0iI2ZmZmZmZiIvPjx0ZXh0IGlkPSJTdmdqc1RleHQxMzk1IiBmb250LWZhbWlseT0i5b6u6L2v6ZuF6buRIiB0ZXh0LWFuY2hvcj0ibWlkZGxlIiBmb250LXNpemU9IjEzcHgiIHdpZHRoPSIxMDRweCIgZmlsbD0iIzMyMzIzMiIgZm9udC13ZWlnaHQ9IjQwMCIgYWxpZ249InRvcCIgbGluZWhlaWdodD0iMTZweCIgYW5jaG9yPSJtaWRkbGUiIGZhbWlseT0i5b6u6L2v6ZuF6buRIiBzaXplPSIxM3B4IiB3ZWlnaHQ9IjQwMCIgZm9udC1zdHlsZT0iIiBvcGFjaXR5PSIxIiB5PSI3OS4zNzUiIHRyYW5zZm9ybT0icm90YXRlKDApIj48dHNwYW4gaWQ9IlN2Z2pzVHNwYW4xMzk2IiBkeT0iMTYiIHg9IjExMzIuODYyNDkwODQ0NzI2NiI+PHRzcGFuIGlkPSJTdmdqc1RzcGFuMTM5NyIgc3R5bGU9InRleHQtZGVjb3JhdGlvbjo7Ij7ov5Tlm55mYWxzZe+8jDwvdHNwYW4+PC90c3Bhbj48dHNwYW4gaWQ9IlN2Z2pzVHNwYW4xMzk4IiBkeT0iMTYiIHg9IjExMzIuODYyNDkwODQ0NzI2NiI+PHRzcGFuIGlkPSJTdmdqc1RzcGFuMTM5OSIgc3R5bGU9InRleHQtZGVjb3JhdGlvbjo7Ij7ljbN0cnlBY3F1aXJl5aSx6LSlPC90c3Bhbj48L3RzcGFuPjwvdGV4dD48L2c+PGcgaWQ9IlN2Z2pzRzE0MDAiIHRyYW5zZm9ybT0idHJhbnNsYXRlKDExODEuMjI0OTkwODQ0NzI2NiwyMTcpIj48cGF0aCBpZD0iU3ZnanNQYXRoMTQwMSIgZD0iTSAwIDBMIDEzMSAwTCAxMzEgMTMyTCAwIDEzMloiIHN0cm9rZT0icmdiYSg1MCw1MCw1MCwxKSIgc3Ryb2tlLXdpZHRoPSIyIiBmaWxsLW9wYWNpdHk9IjEiIGZpbGw9IiNmZmZmZmYiLz48ZyBpZD0iU3ZnanNHMTQwMiI+PHRleHQgaWQ9IlN2Z2pzVGV4dDE0MDMiIGZvbnQtZmFtaWx5PSLlvq7ova/pm4Xpu5EiIHRleHQtYW5jaG9yPSJtaWRkbGUiIGZvbnQtc2l6ZT0iMTNweCIgd2lkdGg9IjExMXB4IiBmaWxsPSIjMzIzMjMyIiBmb250LXdlaWdodD0iNDAwIiBhbGlnbj0ibWlkZGxlIiBsaW5laGVpZ2h0PSIxMjUlIiBhbmNob3I9Im1pZGRsZSIgZmFtaWx5PSLlvq7ova/pm4Xpu5EiIHNpemU9IjEzcHgiIHdlaWdodD0iNDAwIiBmb250LXN0eWxlPSIiIG9wYWNpdHk9IjEiIHk9IjYuMzc1IiB0cmFuc2Zvcm09InJvdGF0ZSgwKSI+PHRzcGFuIGlkPSJTdmdqc1RzcGFuMTQwNCIgZHk9IjE2IiB4PSI2NS41Ij48dHNwYW4gaWQ9IlN2Z2pzVHNwYW4xNDA1IiBzdHlsZT0idGV4dC1kZWNvcmF0aW9uOjsiPuWPguiAg0FRU+mHjOmdoueahOmAuzwvdHNwYW4+PC90c3Bhbj48dHNwYW4gaWQ9IlN2Z2pzVHNwYW4xNDA2IiBkeT0iMTYiIHg9IjY1LjUiPjx0c3BhbiBpZD0iU3ZnanNUc3BhbjE0MDciIHN0eWxlPSJ0ZXh0LWRlY29yYXRpb246OyI+6L6R77yM5bCG5b2T5YmN57q/56iL5bCBPC90c3Bhbj48L3RzcGFuPjx0c3BhbiBpZD0iU3ZnanNUc3BhbjE0MDgiIGR5PSIxNiIgeD0iNjUuNSI+PHRzcGFuIGlkPSJTdmdqc1RzcGFuMTQwOSIgc3R5bGU9InRleHQtZGVjb3JhdGlvbjo7Ij7oo4XmiJBOb2Rl5Yqg5YWl5ZCMPC90c3Bhbj48L3RzcGFuPjx0c3BhbiBpZD0iU3ZnanNUc3BhbjE0MTAiIGR5PSIxNiIgeD0iNjUuNSI+PHRzcGFuIGlkPSJTdmdqc1RzcGFuMTQxMSIgc3R5bGU9InRleHQtZGVjb3JhdGlvbjo7Ij7mraXpmJ/liJfkuK3vvIzlpoLmnpzlnKg8L3RzcGFuPjwvdHNwYW4+PHRzcGFuIGlkPSJTdmdqc1RzcGFuMTQxMiIgZHk9IjE2IiB4PSI2NS41Ij48dHNwYW4gaWQ9IlN2Z2pzVHNwYW4xNDEzIiBzdHlsZT0idGV4dC1kZWNvcmF0aW9uOjsiPuWHoOasoeiHquaXi+aXtuiOt+W+l+S6hjwvdHNwYW4+PC90c3Bhbj48dHNwYW4gaWQ9IlN2Z2pzVHNwYW4xNDE0IiBkeT0iMTYiIHg9IjY1LjUiPjx0c3BhbiBpZD0iU3ZnanNUc3BhbjE0MTUiIHN0eWxlPSJ0ZXh0LWRlY29yYXRpb246OyI+6ZSB5YiZ6YCA5Ye6bG9ja++8jOWQpjwvdHNwYW4+PC90c3Bhbj48dHNwYW4gaWQ9IlN2Z2pzVHNwYW4xNDE2IiBkeT0iMTYiIHg9IjY1LjUiPjx0c3BhbiBpZD0iU3ZnanNUc3BhbjE0MTciIHN0eWxlPSJ0ZXh0LWRlY29yYXRpb246OyI+5YiZ6Zi75aGe562J5b6F5ZSk6YaSPC90c3Bhbj48L3RzcGFuPjwvdGV4dD48L2c+PC9nPjxnIGlkPSJTdmdqc0cxNDE4Ij48cGF0aCBpZD0iU3ZnanNQYXRoMTQxOSIgZD0iTTExNzQuNTk5OTkwODQ0NzI2NiA1NzZMMTI0Ni43MjQ5OTA4NDQ3MjY2IDU3NkwxMjQ2LjcyNDk5MDg0NDcyNjYgMzUyLjYiIHN0cm9rZT0iIzMyMzIzMiIgc3Ryb2tlLXdpZHRoPSIyIiBmaWxsPSJub25lIiBtYXJrZXItZW5kPSJ1cmwoI1N2Z2pzTWFya2VyMTQyMCkiLz48cmVjdCBpZD0iU3ZnanNSZWN0MTQyMiIgd2lkdGg9IjEwNCIgaGVpZ2h0PSIzMiIgeD0iMTE5NC43MjQ5OTA4NDQ3MjY2IiB5PSI0ODQuMzYyNSIgZmlsbD0iI2ZmZmZmZiIvPjx0ZXh0IGlkPSJTdmdqc1RleHQxNDIzIiBmb250LWZhbWlseT0i5b6u6L2v6ZuF6buRIiB0ZXh0LWFuY2hvcj0ibWlkZGxlIiBmb250LXNpemU9IjEzcHgiIHdpZHRoPSIxMDRweCIgZmlsbD0iIzMyMzIzMiIgZm9udC13ZWlnaHQ9IjQwMCIgYWxpZ249InRvcCIgbGluZWhlaWdodD0iMTZweCIgYW5jaG9yPSJtaWRkbGUiIGZhbWlseT0i5b6u6L2v6ZuF6buRIiBzaXplPSIxM3B4IiB3ZWlnaHQ9IjQwMCIgZm9udC1zdHlsZT0iIiBvcGFjaXR5PSIxIiB5PSI0ODEuNzM3NSIgdHJhbnNmb3JtPSJyb3RhdGUoMCkiPjx0c3BhbiBpZD0iU3ZnanNUc3BhbjE0MjQiIGR5PSIxNiIgeD0iMTI0Ni43MjQ5OTA4NDQ3MjY2Ij48dHNwYW4gaWQ9IlN2Z2pzVHNwYW4xNDI1IiBzdHlsZT0idGV4dC1kZWNvcmF0aW9uOjsiPui/lOWbnmZhbHNl77yMPC90c3Bhbj48L3RzcGFuPjx0c3BhbiBpZD0iU3ZnanNUc3BhbjE0MjYiIGR5PSIxNiIgeD0iMTI0Ni43MjQ5OTA4NDQ3MjY2Ij48dHNwYW4gaWQ9IlN2Z2pzVHNwYW4xNDI3IiBzdHlsZT0idGV4dC1kZWNvcmF0aW9uOjsiPuWNs3RyeUFjcXVpcmXlpLHotKU8L3RzcGFuPjwvdHNwYW4+PC90ZXh0PjwvZz48ZyBpZD0iU3ZnanNHMTQyOCIgdHJhbnNmb3JtPSJ0cmFuc2xhdGUoMzgsODg1LjkwMDAwMTUyNTg3ODkpIj48cGF0aCBpZD0iU3ZnanNQYXRoMTQyOSIgZD0iTSAwIDRRIDAgMCA0IDBMIDEzNiAwUSAxNDAgMCAxNDAgNEwgMTQwIDU3USAxNDAgNjEgMTM2IDYxTCA0IDYxUSAwIDYxIDAgNTdaIiBzdHJva2U9InJnYmEoNTAsNTAsNTAsMSkiIHN0cm9rZS13aWR0aD0iMiIgZmlsbC1vcGFjaXR5PSIxIiBmaWxsPSIjZmZjZGQyIi8+PGcgaWQ9IlN2Z2pzRzE0MzAiPjx0ZXh0IGlkPSJTdmdqc1RleHQxNDMxIiBmb250LWZhbWlseT0i5b6u6L2v6ZuF6buRIiB0ZXh0LWFuY2hvcj0ibWlkZGxlIiBmb250LXNpemU9IjEzcHgiIHdpZHRoPSIxMjBweCIgZmlsbD0iIzMyMzIzMiIgZm9udC13ZWlnaHQ9IjQwMCIgYWxpZ249Im1pZGRsZSIgbGluZWhlaWdodD0iMTI1JSIgYW5jaG9yPSJtaWRkbGUiIGZhbWlseT0i5b6u6L2v6ZuF6buRIiBzaXplPSIxM3B4IiB3ZWlnaHQ9IjQwMCIgZm9udC1zdHlsZT0iIiBvcGFjaXR5PSIxIiB5PSIxMS4zNzUiIHRyYW5zZm9ybT0icm90YXRlKDApIj48dHNwYW4gaWQ9IlN2Z2pzVHNwYW4xNDMyIiBkeT0iMTYiIHg9IjcwIj48dHNwYW4gaWQ9IlN2Z2pzVHNwYW4xNDMzIiBzdHlsZT0idGV4dC1kZWNvcmF0aW9uOjsiPnVubG9ja+WHveaVsDwvdHNwYW4+PC90c3Bhbj48dHNwYW4gaWQ9IlN2Z2pzVHNwYW4xNDM0IiBkeT0iMTYiIHg9IjcwIj48dHNwYW4gaWQ9IlN2Z2pzVHNwYW4xNDM1IiBzdHlsZT0idGV4dC1kZWNvcmF0aW9uOjsiPuiwg+eUqHN5bmMucmVsZWFzZSgxKTwvdHNwYW4+PC90c3Bhbj48L3RleHQ+PC9nPjwvZz48ZyBpZD0iU3ZnanNHMTQzNiI+PHBhdGggaWQ9IlN2Z2pzUGF0aDE0MzciIGQ9Ik0xNzkgOTE2LjQwMDAwMTUyNTg3ODlMMjIyLjg0OTk5MDg0NDcyNjU2IDkxNi40MDAwMDE1MjU4Nzg5TDIyMi44NDk5OTA4NDQ3MjY1NiA5MTYuNDAwMDAxNTI1ODc4OUwyNjYuOTk5OTkwODQ0NzI2NTQgOTE2LjQwMDAwMTUyNTg3ODkiIHN0cm9rZS1kYXNoYXJyYXk9IjgsNSIgc3Ryb2tlPSIjMzIzMjMyIiBzdHJva2Utd2lkdGg9IjIiIGZpbGw9Im5vbmUiIG1hcmtlci1lbmQ9InVybCgjU3ZnanNNYXJrZXIxNDM4KSIvPjwvZz48ZyBpZD0iU3ZnanNHMTQ0MCIgdHJhbnNmb3JtPSJ0cmFuc2xhdGUoMjcwLjU5OTk5MDg0NDcyNjU2LDg4Mi40MDAwMDE1MjU4Nzg5KSI+PHBhdGggaWQ9IlN2Z2pzUGF0aDE0NDEiIGQ9Ik0gMCAwTCAxMDAgMEwgMTAwIDY4TCAwIDY4WiIgc3Ryb2tlPSJyZ2JhKDUwLDUwLDUwLDEpIiBzdHJva2Utd2lkdGg9IjIiIGZpbGwtb3BhY2l0eT0iMSIgZmlsbD0iI2ZmZmZmZiIvPjxnIGlkPSJTdmdqc0cxNDQyIj48dGV4dCBpZD0iU3ZnanNUZXh0MTQ0MyIgZm9udC1mYW1pbHk9IuW+rui9r+mbhem7kSIgdGV4dC1hbmNob3I9Im1pZGRsZSIgZm9udC1zaXplPSIxM3B4IiB3aWR0aD0iODBweCIgZmlsbD0iIzMyMzIzMiIgZm9udC13ZWlnaHQ9IjQwMCIgYWxpZ249Im1pZGRsZSIgbGluZWhlaWdodD0iMTI1JSIgYW5jaG9yPSJtaWRkbGUiIGZhbWlseT0i5b6u6L2v6ZuF6buRIiBzaXplPSIxM3B4IiB3ZWlnaHQ9IjQwMCIgZm9udC1zdHlsZT0iIiBvcGFjaXR5PSIxIiB5PSI2Ljg3NSIgdHJhbnNmb3JtPSJyb3RhdGUoMCkiPjx0c3BhbiBpZD0iU3ZnanNUc3BhbjE0NDQiIGR5PSIxNiIgeD0iNTAiPjx0c3BhbiBpZD0iU3ZnanNUc3BhbjE0NDUiIHN0eWxlPSJ0ZXh0LWRlY29yYXRpb246OyI+5Y2z5q2k5pe255u05o6l6LCDPC90c3Bhbj48L3RzcGFuPjx0c3BhbiBpZD0iU3ZnanNUc3BhbjE0NDYiIGR5PSIxNiIgeD0iNTAiPjx0c3BhbiBpZD0iU3ZnanNUc3BhbjE0NDciIHN0eWxlPSJ0ZXh0LWRlY29yYXRpb246OyI+55So54i257G7QVFT55qEPC90c3Bhbj48L3RzcGFuPjx0c3BhbiBpZD0iU3ZnanNUc3BhbjE0NDgiIGR5PSIxNiIgeD0iNTAiPjx0c3BhbiBpZD0iU3ZnanNUc3BhbjE0NDkiIHN0eWxlPSJ0ZXh0LWRlY29yYXRpb246OyI+cmVsZWFzZeWHveaVsDwvdHNwYW4+PC90c3Bhbj48L3RleHQ+PC9nPjwvZz48ZyBpZD0iU3ZnanNHMTQ1MCI+PHBhdGggaWQ9IlN2Z2pzUGF0aDE0NTEiIGQ9Ik0zNzEuNTk5OTkwODQ0NzI2NTYgOTIxLjQwMDAwMTUyNTg3ODlMNDUxLjU5OTk5MDg0NDcyNjU2IDkyMS40MDAwMDE1MjU4Nzg5TDQ1MS41OTk5OTA4NDQ3MjY1NiA5MjEuNDAwMDAxNTI1ODc4OUw1MjkuOTk5OTkwODQ0NzI2NSA5MjEuNDAwMDAxNTI1ODc4OSIgc3Ryb2tlLWRhc2hhcnJheT0iMywzIiBzdHJva2U9IiMzMjMyMzIiIHN0cm9rZS13aWR0aD0iMiIgZmlsbD0ibm9uZSIgbWFya2VyLWVuZD0idXJsKCNTdmdqc01hcmtlcjE0NTIpIi8+PHJlY3QgaWQ9IlN2Z2pzUmVjdDE0NTQiIHdpZHRoPSIxMDMiIGhlaWdodD0iMTYiIHg9IjM5OS4yOTk5OTA4NDQ3MjY1NSIgeT0iOTEzLjQwMDAwMTUyNTg3ODkiIGZpbGw9IiNmZmZmZmYiLz48dGV4dCBpZD0iU3ZnanNUZXh0MTQ1NSIgZm9udC1mYW1pbHk9IuW+rui9r+mbhem7kSIgdGV4dC1hbmNob3I9Im1pZGRsZSIgZm9udC1zaXplPSIxM3B4IiB3aWR0aD0iMTAzcHgiIGZpbGw9IiMzMjMyMzIiIGZvbnQtd2VpZ2h0PSI0MDAiIGFsaWduPSJ0b3AiIGxpbmVoZWlnaHQ9IjE2cHgiIGFuY2hvcj0ibWlkZGxlIiBmYW1pbHk9IuW+rui9r+mbhem7kSIgc2l6ZT0iMTNweCIgd2VpZ2h0PSI0MDAiIGZvbnQtc3R5bGU9IiIgb3BhY2l0eT0iMSIgeT0iOTEwLjc3NTAwMTUyNTg3ODkiIHRyYW5zZm9ybT0icm90YXRlKDApIj48dHNwYW4gaWQ9IlN2Z2pzVHNwYW4xNDU2IiBkeT0iMTYiIHg9IjQ1MC43OTk5OTA4NDQ3MjY1NSI+PHRzcGFuIGlkPSJTdmdqc1RzcGFuMTQ1NyIgc3R5bGU9InRleHQtZGVjb3JhdGlvbjo7Ij7kvb/nlKjnmoR0cnlSZWxlYXNlPC90c3Bhbj48L3RzcGFuPjwvdGV4dD48L2c+PGcgaWQ9IlN2Z2pzRzE0NTgiIHRyYW5zZm9ybT0idHJhbnNsYXRlKDUzMi41OTk5OTA4NDQ3MjY2LDc3NikiPjxwYXRoIGlkPSJTdmdqc1BhdGgxNDU5IiBkPSJNIDAgMEwgMzA0IDBMIDMyMCAxNkwgMzIwIDQyM0wgMCA0MjNMIDAgMFoiIHN0cm9rZT0ibm9uZSIgZmlsbC1vcGFjaXR5PSIxIiBmaWxsPSIjZmZmZmFhIi8+PHBhdGggaWQ9IlN2Z2pzUGF0aDE0NjAiIGQ9Ik0gMzA0IDBMIDMwNCAxNkwgMzIwIDE2WiIgc3Ryb2tlPSJub25lIiBmaWxsLW9wYWNpdHk9IjEiIGZpbGw9IiNjZGNkY2QiLz48cGF0aCBpZD0iU3ZnanNQYXRoMTQ2MSIgZD0iTSAwIDBMIDMwNCAwTCAzMjAgMTZMIDMyMCA0MjNMIDAgNDIzTCAwIDBaIiBzdHJva2U9Im5vbmUiIGZpbGw9Im5vbmUiLz48ZyBpZD0iU3ZnanNHMTQ2MiI+PHRleHQgaWQ9IlN2Z2pzVGV4dDE0NjMiIGZvbnQtZmFtaWx5PSLlvq7ova/pm4Xpu5EiIHRleHQtYW5jaG9yPSJtaWRkbGUiIGZvbnQtc2l6ZT0iMTNweCIgd2lkdGg9IjMwMHB4IiBmaWxsPSIjMzIzMjMyIiBmb250LXdlaWdodD0iNDAwIiBhbGlnbj0ibWlkZGxlIiBsaW5laGVpZ2h0PSIxMjUlIiBhbmNob3I9Im1pZGRsZSIgZmFtaWx5PSLlvq7ova/pm4Xpu5EiIHNpemU9IjEzcHgiIHdlaWdodD0iNDAwIiBmb250LXN0eWxlPSIiIG9wYWNpdHk9IjEiIHk9IjIwMC44NzUiIHRyYW5zZm9ybT0icm90YXRlKDApIi8+PC9nPjwvZz48ZyBpZD0iU3ZnanNHMTQ2NCIgdHJhbnNmb3JtPSJ0cmFuc2xhdGUoNTQyLDc3NikiPjxwYXRoIGlkPSJTdmdqc1BhdGgxNDY1IiBkPSJNIDAgMEwgMTcwIDBMIDE3MCA0NEwgMCA0NFoiIHN0cm9rZT0ibm9uZSIgZmlsbD0ibm9uZSIvPjxnIGlkPSJTdmdqc0cxNDY2Ij48dGV4dCBpZD0iU3ZnanNUZXh0MTQ2NyIgZm9udC1mYW1pbHk9IuW+rui9r+mbhem7kSIgdGV4dC1hbmNob3I9Im1pZGRsZSIgZm9udC1zaXplPSIxM3B4IiB3aWR0aD0iMTcwcHgiIGZpbGw9IiMzMjMyMzIiIGZvbnQtd2VpZ2h0PSI0MDAiIGFsaWduPSJtaWRkbGUiIGxpbmVoZWlnaHQ9IjEyNSUiIGFuY2hvcj0ibWlkZGxlIiBmYW1pbHk9IuW+rui9r+mbhem7kSIgc2l6ZT0iMTNweCIgd2VpZ2h0PSI0MDAiIGZvbnQtc3R5bGU9IiIgb3BhY2l0eT0iMSIgeT0iMTEuMzc1IiB0cmFuc2Zvcm09InJvdGF0ZSgwKSI+PHRzcGFuIGlkPSJTdmdqc1RzcGFuMTQ2OCIgZHk9IjE2IiB4PSI4NSI+PHRzcGFuIGlkPSJTdmdqc1RzcGFuMTQ2OSIgc3R5bGU9InRleHQtZGVjb3JhdGlvbjo7Ij5TeW5j57G75a6e546w55qEdHJ5UmVsZWFzZTwvdHNwYW4+PC90c3Bhbj48L3RleHQ+PC9nPjwvZz48ZyBpZD0iU3ZnanNHMTQ3MCIgdHJhbnNmb3JtPSJ0cmFuc2xhdGUoNTQ5LjUsODIwLjYwMDAwMDM4MTQ2OTcpIj48cGF0aCBpZD0iU3ZnanNQYXRoMTQ3MSIgZD0iTSAwIDBMIDEzMSAwTCAxMzEgMzhMIDAgMzhaIiBzdHJva2U9InJnYmEoNTAsNTAsNTAsMSkiIHN0cm9rZS13aWR0aD0iMiIgZmlsbC1vcGFjaXR5PSIxIiBmaWxsPSIjZmZmZmZmIi8+PGcgaWQ9IlN2Z2pzRzE0NzIiPjx0ZXh0IGlkPSJTdmdqc1RleHQxNDczIiBmb250LWZhbWlseT0i5b6u6L2v6ZuF6buRIiB0ZXh0LWFuY2hvcj0ibWlkZGxlIiBmb250LXNpemU9IjEzcHgiIHdpZHRoPSIxMTFweCIgZmlsbD0iIzMyMzIzMiIgZm9udC13ZWlnaHQ9IjQwMCIgYWxpZ249Im1pZGRsZSIgbGluZWhlaWdodD0iMTI1JSIgYW5jaG9yPSJtaWRkbGUiIGZhbWlseT0i5b6u6L2v6ZuF6buRIiBzaXplPSIxM3B4IiB3ZWlnaHQ9IjQwMCIgZm9udC1zdHlsZT0iIiBvcGFjaXR5PSIxIiB5PSI4LjM3NSIgdHJhbnNmb3JtPSJyb3RhdGUoMCkiPjx0c3BhbiBpZD0iU3ZnanNUc3BhbjE0NzQiIGR5PSIxNiIgeD0iNjUuNSI+PHRzcGFuIGlkPSJTdmdqc1RzcGFuMTQ3NSIgc3R5bGU9InRleHQtZGVjb3JhdGlvbjo7Ij5jPXN0YXRlLXJlbGVhc2VzPC90c3Bhbj48L3RzcGFuPjwvdGV4dD48L2c+PC9nPjxnIGlkPSJTdmdqc0cxNDc2IiB0cmFuc2Zvcm09InRyYW5zbGF0ZSg1NTIuNSw4ODUuOTAwMDAxNTI1ODc4OSkiPjxwYXRoIGlkPSJTdmdqc1BhdGgxNDc3IiBkPSJNIDAgMzAuNUwgNjIuNSAwTCAxMjUgMzAuNUwgNjIuNSA2MVoiIHN0cm9rZT0icmdiYSg1MCw1MCw1MCwxKSIgc3Ryb2tlLXdpZHRoPSIyIiBmaWxsLW9wYWNpdHk9IjEiIGZpbGw9IiNmZmI3NGQiLz48ZyBpZD0iU3ZnanNHMTQ3OCI+PHRleHQgaWQ9IlN2Z2pzVGV4dDE0NzkiIGZvbnQtZmFtaWx5PSLlvq7ova/pm4Xpu5EiIHRleHQtYW5jaG9yPSJtaWRkbGUiIGZvbnQtc2l6ZT0iMTNweCIgd2lkdGg9IjEwNXB4IiBmaWxsPSIjMzIzMjMyIiBmb250LXdlaWdodD0iNDAwIiBhbGlnbj0ibWlkZGxlIiBsaW5laGVpZ2h0PSIxMjUlIiBhbmNob3I9Im1pZGRsZSIgZmFtaWx5PSLlvq7ova/pm4Xpu5EiIHNpemU9IjEzcHgiIHdlaWdodD0iNDAwIiBmb250LXN0eWxlPSIiIG9wYWNpdHk9IjEiIHk9IjExLjY4IiB0cmFuc2Zvcm09InJvdGF0ZSgwKSI+PHRzcGFuIGlkPSJTdmdqc1RzcGFuMTQ4MCIgZHk9IjE2IiB4PSI2Mi41Ij48dHNwYW4gaWQ9IlN2Z2pzVHNwYW4xNDgxIiBzdHlsZT0idGV4dC1kZWNvcmF0aW9uOjsiPuWIpOaWreW9k+WJjee6v+eoi+aYr+WQpjwvdHNwYW4+PC90c3Bhbj48dHNwYW4gaWQ9IlN2Z2pzVHNwYW4xNDgyIiBkeT0iMTYiIHg9IjYyLjUiPjx0c3BhbiBpZD0iU3ZnanNUc3BhbjE0ODMiIHN0eWxlPSJ0ZXh0LWRlY29yYXRpb246OyI+5piv6ZSB55qE5Li75Lq6PC90c3Bhbj48L3RzcGFuPjwvdGV4dD48L2c+PC9nPjxnIGlkPSJTdmdqc0cxNDg0Ij48cGF0aCBpZD0iU3ZnanNQYXRoMTQ4NSIgZD0iTTY3OC41IDkxNi40MDAwMDE1MjU4Nzg5TDcxNy4yMjQ5OTA4NDQ3MjY2IDkxNi40MDAwMDE1MjU4Nzg5TDcxNy4yMjQ5OTA4NDQ3MjY2IDkxNi40MDAwMDE1MjU4Nzg5TDc1OC44Mzc1IDkxNi40MDAwMDE1MjU4Nzg5IiBzdHJva2U9IiMzMjMyMzIiIHN0cm9rZS13aWR0aD0iMiIgZmlsbD0ibm9uZSIgbWFya2VyLWVuZD0idXJsKCNTdmdqc01hcmtlcjE0ODYpIi8+PHJlY3QgaWQ9IlN2Z2pzUmVjdDE0ODgiIHdpZHRoPSIxMyIgaGVpZ2h0PSIxNiIgeD0iNzEyLjE2ODc1IiB5PSI5MDguNDAwMDAxNTI1ODc4OSIgZmlsbD0iI2ZmZmZmZiIvPjx0ZXh0IGlkPSJTdmdqc1RleHQxNDg5IiBmb250LWZhbWlseT0i5b6u6L2v6ZuF6buRIiB0ZXh0LWFuY2hvcj0ibWlkZGxlIiBmb250LXNpemU9IjEzcHgiIHdpZHRoPSIxM3B4IiBmaWxsPSIjMzIzMjMyIiBmb250LXdlaWdodD0iNDAwIiBhbGlnbj0idG9wIiBsaW5laGVpZ2h0PSIxNnB4IiBhbmNob3I9Im1pZGRsZSIgZmFtaWx5PSLlvq7ova/pm4Xpu5EiIHNpemU9IjEzcHgiIHdlaWdodD0iNDAwIiBmb250LXN0eWxlPSIiIG9wYWNpdHk9IjEiIHk9IjkwNS43NzUwMDE1MjU4Nzg5IiB0cmFuc2Zvcm09InJvdGF0ZSgwKSI+PHRzcGFuIGlkPSJTdmdqc1RzcGFuMTQ5MCIgZHk9IjE2IiB4PSI3MTguNjY4NzUiPjx0c3BhbiBpZD0iU3ZnanNUc3BhbjE0OTEiIHN0eWxlPSJ0ZXh0LWRlY29yYXRpb246OyI+5ZCmPC90c3Bhbj48L3RzcGFuPjwvdGV4dD48L2c+PGcgaWQ9IlN2Z2pzRzE0OTIiIHRyYW5zZm9ybT0idHJhbnNsYXRlKDc2Mi40Mzc1LDg5Ny40MDAwMDE1MjU4Nzg5KSI+PHBhdGggaWQ9IlN2Z2pzUGF0aDE0OTMiIGQ9Ik0gMCAwTCA3MS4xMjUgMEwgNzEuMTI1IDM4TCAwIDM4WiIgc3Ryb2tlPSJyZ2JhKDUwLDUwLDUwLDEpIiBzdHJva2Utd2lkdGg9IjIiIGZpbGwtb3BhY2l0eT0iMSIgZmlsbD0iI2ZmZmZmZiIvPjxnIGlkPSJTdmdqc0cxNDk0Ij48dGV4dCBpZD0iU3ZnanNUZXh0MTQ5NSIgZm9udC1mYW1pbHk9IuW+rui9r+mbhem7kSIgdGV4dC1hbmNob3I9Im1pZGRsZSIgZm9udC1zaXplPSIxM3B4IiB3aWR0aD0iNTJweCIgZmlsbD0iIzMyMzIzMiIgZm9udC13ZWlnaHQ9IjQwMCIgYWxpZ249Im1pZGRsZSIgbGluZWhlaWdodD0iMTI1JSIgYW5jaG9yPSJtaWRkbGUiIGZhbWlseT0i5b6u6L2v6ZuF6buRIiBzaXplPSIxM3B4IiB3ZWlnaHQ9IjQwMCIgZm9udC1zdHlsZT0iIiBvcGFjaXR5PSIxIiB5PSI4LjM3NSIgdHJhbnNmb3JtPSJyb3RhdGUoMCkiPjx0c3BhbiBpZD0iU3ZnanNUc3BhbjE0OTYiIGR5PSIxNiIgeD0iMzYiPjx0c3BhbiBpZD0iU3ZnanNUc3BhbjE0OTciIHN0eWxlPSJ0ZXh0LWRlY29yYXRpb246OyI+5oql5byC5bi4PC90c3Bhbj48L3RzcGFuPjwvdGV4dD48L2c+PC9nPjxnIGlkPSJTdmdqc0cxNDk4Ij48cGF0aCBpZD0iU3ZnanNQYXRoMTQ5OSIgZD0iTTYxNSA4NTkuNjAwMDAwMzgxNDY5N0w2MTUgODcxLjgwMDAwMDE5MDczNDlMNjE1IDg3MS44MDAwMDAxOTA3MzQ5TDYxNSA4ODIuMzAwMDAxNTI1ODc4OSIgc3Ryb2tlPSIjMzIzMjMyIiBzdHJva2Utd2lkdGg9IjIiIGZpbGw9Im5vbmUiIG1hcmtlci1lbmQ9InVybCgjU3ZnanNNYXJrZXIxNTAwKSIvPjwvZz48ZyBpZD0iU3ZnanNHMTUwMiIgdHJhbnNmb3JtPSJ0cmFuc2xhdGUoNTUyLjUsOTg1LjkwMDAwMTUyNTg3ODkpIj48cGF0aCBpZD0iU3ZnanNQYXRoMTUwMyIgZD0iTSAwIDMwLjVMIDYyLjUgMEwgMTI1IDMwLjVMIDYyLjUgNjFaIiBzdHJva2U9InJnYmEoNTAsNTAsNTAsMSkiIHN0cm9rZS13aWR0aD0iMiIgZmlsbC1vcGFjaXR5PSIxIiBmaWxsPSIjZmZiNzRkIi8+PGcgaWQ9IlN2Z2pzRzE1MDQiPjx0ZXh0IGlkPSJTdmdqc1RleHQxNTA1IiBmb250LWZhbWlseT0i5b6u6L2v6ZuF6buRIiB0ZXh0LWFuY2hvcj0ibWlkZGxlIiBmb250LXNpemU9IjEzcHgiIHdpZHRoPSIxMDVweCIgZmlsbD0iIzMyMzIzMiIgZm9udC13ZWlnaHQ9IjQwMCIgYWxpZ249Im1pZGRsZSIgbGluZWhlaWdodD0iMTI1JSIgYW5jaG9yPSJtaWRkbGUiIGZhbWlseT0i5b6u6L2v6ZuF6buRIiBzaXplPSIxM3B4IiB3ZWlnaHQ9IjQwMCIgZm9udC1zdHlsZT0iIiBvcGFjaXR5PSIxIiB5PSIxMS42OCIgdHJhbnNmb3JtPSJyb3RhdGUoMCkiPjx0c3BhbiBpZD0iU3ZnanNUc3BhbjE1MDYiIGR5PSIxNiIgeD0iNjIuNSI+PHRzcGFuIGlkPSJTdmdqc1RzcGFuMTUwNyIgc3R5bGU9InRleHQtZGVjb3JhdGlvbjo7Ij5jPT0wPzwvdHNwYW4+PC90c3Bhbj48dHNwYW4gaWQ9IlN2Z2pzVHNwYW4xNTA4IiBkeT0iMTYiIHg9IjYyLjUiPjx0c3BhbiBpZD0iU3ZnanNUc3BhbjE1MDkiIHN0eWxlPSJ0ZXh0LWRlY29yYXRpb246OyI+5Y2z5piv5ZCm5a6M5YWo6Kej6ZSBPC90c3Bhbj48L3RzcGFuPjwvdGV4dD48L2c+PC9nPjxnIGlkPSJTdmdqc0cxNTEwIj48cGF0aCBpZD0iU3ZnanNQYXRoMTUxMSIgZD0iTTYxNSA5NDcuOTAwMDAxNTI1ODc4OUw2MTUgOTYzLjkwMDAwMDU3MjIwNDZMNjE1IDk2My45MDAwMDA1NzIyMDQ2TDYxNSA5ODIuMzAwMDAxNTI1ODc4OSIgc3Ryb2tlPSIjMTk3NmQyIiBzdHJva2Utd2lkdGg9IjIiIGZpbGw9Im5vbmUiIG1hcmtlci1lbmQ9InVybCgjU3ZnanNNYXJrZXIxNTEyKSIvPjxyZWN0IGlkPSJTdmdqc1JlY3QxNTE0IiB3aWR0aD0iMTMiIGhlaWdodD0iMTYiIHg9IjYwOC41IiB5PSI5NTcuMTAwMDAxNTI1ODc4OCIgZmlsbD0iI2ZmZmZmZiIvPjx0ZXh0IGlkPSJTdmdqc1RleHQxNTE1IiBmb250LWZhbWlseT0i5b6u6L2v6ZuF6buRIiB0ZXh0LWFuY2hvcj0ibWlkZGxlIiBmb250LXNpemU9IjEzcHgiIHdpZHRoPSIxM3B4IiBmaWxsPSIjMzIzMjMyIiBmb250LXdlaWdodD0iNDAwIiBhbGlnbj0idG9wIiBsaW5laGVpZ2h0PSIxNnB4IiBhbmNob3I9Im1pZGRsZSIgZmFtaWx5PSLlvq7ova/pm4Xpu5EiIHNpemU9IjEzcHgiIHdlaWdodD0iNDAwIiBmb250LXN0eWxlPSIiIG9wYWNpdHk9IjEiIHk9Ijk1NC40NzUwMDE1MjU4Nzg4IiB0cmFuc2Zvcm09InJvdGF0ZSgwKSI+PHRzcGFuIGlkPSJTdmdqc1RzcGFuMTUxNiIgZHk9IjE2IiB4PSI2MTUiPjx0c3BhbiBpZD0iU3ZnanNUc3BhbjE1MTciIHN0eWxlPSJ0ZXh0LWRlY29yYXRpb246OyI+5pivPC90c3Bhbj48L3RzcGFuPjwvdGV4dD48L2c+PGcgaWQ9IlN2Z2pzRzE1MTgiPjxwYXRoIGlkPSJTdmdqc1BhdGgxNTE5IiBkPSJNNjc4LjUgMTAxNi40MDAwMDE1MjU4Nzg5TDcxMS41OTk5OTA4NDQ3MjY2IDEwMTYuNDAwMDAxNTI1ODc4OUw3MTEuNTk5OTkwODQ0NzI2NiAxMDE2LjQwMDAwMTUyNTg3ODlMNzQ0LjQgMTAxNi40MDAwMDE1MjU4Nzg5IiBzdHJva2U9IiMxOTc2ZDIiIHN0cm9rZS13aWR0aD0iMiIgZmlsbD0ibm9uZSIgbWFya2VyLWVuZD0idXJsKCNTdmdqc01hcmtlcjE1MjApIi8+PHJlY3QgaWQ9IlN2Z2pzUmVjdDE1MjIiIHdpZHRoPSIxMyIgaGVpZ2h0PSIxNiIgeD0iNzA0Ljk1IiB5PSIxMDA4LjQwMDAwMTUyNTg3ODkiIGZpbGw9IiNmZmZmZmYiLz48dGV4dCBpZD0iU3ZnanNUZXh0MTUyMyIgZm9udC1mYW1pbHk9IuW+rui9r+mbhem7kSIgdGV4dC1hbmNob3I9Im1pZGRsZSIgZm9udC1zaXplPSIxM3B4IiB3aWR0aD0iMTNweCIgZmlsbD0iIzMyMzIzMiIgZm9udC13ZWlnaHQ9IjQwMCIgYWxpZ249InRvcCIgbGluZWhlaWdodD0iMTZweCIgYW5jaG9yPSJtaWRkbGUiIGZhbWlseT0i5b6u6L2v6ZuF6buRIiBzaXplPSIxM3B4IiB3ZWlnaHQ9IjQwMCIgZm9udC1zdHlsZT0iIiBvcGFjaXR5PSIxIiB5PSIxMDA1Ljc3NTAwMTUyNTg3ODkiIHRyYW5zZm9ybT0icm90YXRlKDApIj48dHNwYW4gaWQ9IlN2Z2pzVHNwYW4xNTI0IiBkeT0iMTYiIHg9IjcxMS40NSI+PHRzcGFuIGlkPSJTdmdqc1RzcGFuMTUyNSIgc3R5bGU9InRleHQtZGVjb3JhdGlvbjo7Ij7mmK88L3RzcGFuPjwvdHNwYW4+PC90ZXh0PjwvZz48ZyBpZD0iU3ZnanNHMTUyNiIgdHJhbnNmb3JtPSJ0cmFuc2xhdGUoNzQ4LDk5Ny40MDAwMDE1MjU4Nzg5KSI+PHBhdGggaWQ9IlN2Z2pzUGF0aDE1MjciIGQ9Ik0gMCAwTCAxMDAgMEwgMTAwIDM4TCAwIDM4WiIgc3Ryb2tlPSJyZ2JhKDUwLDUwLDUwLDEpIiBzdHJva2Utd2lkdGg9IjIiIGZpbGwtb3BhY2l0eT0iMSIgZmlsbD0iI2ZmZmZmZiIvPjxnIGlkPSJTdmdqc0cxNTI4Ij48dGV4dCBpZD0iU3ZnanNUZXh0MTUyOSIgZm9udC1mYW1pbHk9IuW+rui9r+mbhem7kSIgdGV4dC1hbmNob3I9Im1pZGRsZSIgZm9udC1zaXplPSIxM3B4IiB3aWR0aD0iODBweCIgZmlsbD0iIzMyMzIzMiIgZm9udC13ZWlnaHQ9IjQwMCIgYWxpZ249Im1pZGRsZSIgbGluZWhlaWdodD0iMTI1JSIgYW5jaG9yPSJtaWRkbGUiIGZhbWlseT0i5b6u6L2v6ZuF6buRIiBzaXplPSIxM3B4IiB3ZWlnaHQ9IjQwMCIgZm9udC1zdHlsZT0iIiBvcGFjaXR5PSIxIiB5PSItMC4xMjUiIHRyYW5zZm9ybT0icm90YXRlKDApIj48dHNwYW4gaWQ9IlN2Z2pzVHNwYW4xNTMwIiBkeT0iMTYiIHg9IjUwIj48dHNwYW4gaWQ9IlN2Z2pzVHNwYW4xNTMxIiBzdHlsZT0idGV4dC1kZWNvcmF0aW9uOjsiPuiuvue9rumUgeeahDwvdHNwYW4+PC90c3Bhbj48dHNwYW4gaWQ9IlN2Z2pzVHNwYW4xNTMyIiBkeT0iMTYiIHg9IjUwIj48dHNwYW4gaWQ9IlN2Z2pzVHNwYW4xNTMzIiBzdHlsZT0idGV4dC1kZWNvcmF0aW9uOjsiPm93bmVy5Li6bnVsbDwvdHNwYW4+PC90c3Bhbj48L3RleHQ+PC9nPjwvZz48ZyBpZD0iU3ZnanNHMTUzNCI+PHBhdGggaWQ9IlN2Z2pzUGF0aDE1MzUiIGQ9Ik02MTUgMTA0Ny45MDAwMDE1MjU4NzlMNjE1IDEwNjUuNjgwMjg2NDUyMTU3MUw3MDEuMjI0OTkwODQ0NzI2NiAxMDY1LjY4MDI4NjQ1MjE1NzFMNzAxLjIyNDk5MDg0NDcyNjYgMTA4My41NjA1NzIxNDEzNzUiIHN0cm9rZT0iIzE5NzZkMiIgc3Ryb2tlLXdpZHRoPSIyIiBmaWxsPSJub25lIiBtYXJrZXItZW5kPSJ1cmwoI1N2Z2pzTWFya2VyMTUzNikiLz48cmVjdCBpZD0iU3ZnanNSZWN0MTUzOCIgd2lkdGg9IjEzIiBoZWlnaHQ9IjE2IiB4PSI2NTEuNjYyNDk1ODAzODMzIiB5PSIxMDU3LjY4MDI4NjQ1MjE1NzEiIGZpbGw9IiNmZmZmZmYiLz48dGV4dCBpZD0iU3ZnanNUZXh0MTUzOSIgZm9udC1mYW1pbHk9IuW+rui9r+mbhem7kSIgdGV4dC1hbmNob3I9Im1pZGRsZSIgZm9udC1zaXplPSIxM3B4IiB3aWR0aD0iMTNweCIgZmlsbD0iIzMyMzIzMiIgZm9udC13ZWlnaHQ9IjQwMCIgYWxpZ249InRvcCIgbGluZWhlaWdodD0iMTZweCIgYW5jaG9yPSJtaWRkbGUiIGZhbWlseT0i5b6u6L2v6ZuF6buRIiBzaXplPSIxM3B4IiB3ZWlnaHQ9IjQwMCIgZm9udC1zdHlsZT0iIiBvcGFjaXR5PSIxIiB5PSIxMDU1LjA1NTI4NjQ1MjE1NzEiIHRyYW5zZm9ybT0icm90YXRlKDApIj48dHNwYW4gaWQ9IlN2Z2pzVHNwYW4xNTQwIiBkeT0iMTYiIHg9IjY1OC4xNjI0OTU4MDM4MzMiPjx0c3BhbiBpZD0iU3ZnanNUc3BhbjE1NDEiIHN0eWxlPSJ0ZXh0LWRlY29yYXRpb246OyI+5ZCmPC90c3Bhbj48L3RzcGFuPjwvdGV4dD48L2c+PGcgaWQ9IlN2Z2pzRzE1NDIiIHRyYW5zZm9ybT0idHJhbnNsYXRlKDY1NS41OTk5OTA4NDQ3MjY2LDEwODguODAwMDAxMTQ0NDA5MikiPjxwYXRoIGlkPSJTdmdqc1BhdGgxNTQzIiBkPSJNIDAgMEwgOTEuMjUgMEwgOTEuMjUgMzAuMTk5OTk4ODU1NTkwODJMIDAgMzAuMTk5OTk4ODU1NTkwODJaIiBzdHJva2U9InJnYmEoNTAsNTAsNTAsMSkiIHN0cm9rZS13aWR0aD0iMiIgZmlsbC1vcGFjaXR5PSIxIiBmaWxsPSIjZmZmZmZmIi8+PGcgaWQ9IlN2Z2pzRzE1NDQiPjx0ZXh0IGlkPSJTdmdqc1RleHQxNTQ1IiBmb250LWZhbWlseT0i5b6u6L2v6ZuF6buRIiB0ZXh0LWFuY2hvcj0ibWlkZGxlIiBmb250LXNpemU9IjEzcHgiIHdpZHRoPSI3MnB4IiBmaWxsPSIjMzIzMjMyIiBmb250LXdlaWdodD0iNDAwIiBhbGlnbj0ibWlkZGxlIiBsaW5laGVpZ2h0PSIxMjUlIiBhbmNob3I9Im1pZGRsZSIgZmFtaWx5PSLlvq7ova/pm4Xpu5EiIHNpemU9IjEzcHgiIHdlaWdodD0iNDAwIiBmb250LXN0eWxlPSIiIG9wYWNpdHk9IjEiIHk9IjQuNDc0OTk5NDI3Nzk1NDEiIHRyYW5zZm9ybT0icm90YXRlKDApIj48dHNwYW4gaWQ9IlN2Z2pzVHNwYW4xNTQ2IiBkeT0iMTYiIHg9IjQ2Ij48dHNwYW4gaWQ9IlN2Z2pzVHNwYW4xNTQ3IiBzdHlsZT0idGV4dC1kZWNvcmF0aW9uOjsiPnN0YXRlPWM8L3RzcGFuPjwvdHNwYW4+PC90ZXh0PjwvZz48L2c+PGcgaWQ9IlN2Z2pzRzE1NDgiPjxwYXRoIGlkPSJTdmdqc1BhdGgxNTQ5IiBkPSJNNzk4IDEwMzYuNDAwMDAxNTI1ODc5TDc5OCAxMDY1Ljg1MDAwMDg1ODMwNjlMNzAxLjIyNDk5MDg0NDcyNjYgMTA2NS44NTAwMDA4NTgzMDY5TDcwMS4yMjQ5OTA4NDQ3MjY2IDEwODUuMjAwMDAxMTQ0NDA5MyIgc3Ryb2tlPSIjMTk3NmQyIiBzdHJva2Utd2lkdGg9IjIiIGZpbGw9Im5vbmUiIG1hcmtlci1lbmQ9InVybCgjU3ZnanNNYXJrZXIxNTUwKSIvPjwvZz48ZyBpZD0iU3ZnanNHMTU1MiI+PHBhdGggaWQ9IlN2Z2pzUGF0aDE1NTMiIGQ9Ik03MDIuODE4NzQwODQ0NzI2NiAxMTIwTDcwMi44MTg3NDA4NDQ3MjY2IDExMzAuNzAwMDAwNzYyOTM5NUw3MDIuODE4NzQwODQ0NzI2NiAxMTMwLjcwMDAwMDc2MjkzOTVMNzAyLjgxODc0MDg0NDcyNjYgMTEzOC44MDAwMDE1MjU4NzkiIHN0cm9rZT0iIzE5NzZkMiIgc3Ryb2tlLXdpZHRoPSIyIiBmaWxsPSJub25lIiBtYXJrZXItZW5kPSJ1cmwoI1N2Z2pzTWFya2VyMTU1NCkiLz48L2c+PGcgaWQ9IlN2Z2pzRzE1NTYiIHRyYW5zZm9ybT0idHJhbnNsYXRlKDYxNy44MTg3NDA4NDQ3MjY2LDExNDIuNDAwMDAxNTI1ODc5KSI+PHBhdGggaWQ9IlN2Z2pzUGF0aDE1NTciIGQ9Ik0gMCAwTCAxNzAgMEwgMTcwIDQ0TCAwIDQ0WiIgc3Ryb2tlPSJyZ2JhKDUwLDUwLDUwLDEpIiBzdHJva2Utd2lkdGg9IjIiIGZpbGwtb3BhY2l0eT0iMSIgZmlsbD0iI2ZmZmZmZiIvPjxnIGlkPSJTdmdqc0cxNTU4Ij48dGV4dCBpZD0iU3ZnanNUZXh0MTU1OSIgZm9udC1mYW1pbHk9IuW+rui9r+mbhem7kSIgdGV4dC1hbmNob3I9Im1pZGRsZSIgZm9udC1zaXplPSIxM3B4IiB3aWR0aD0iMTUwcHgiIGZpbGw9IiMzMjMyMzIiIGZvbnQtd2VpZ2h0PSI0MDAiIGFsaWduPSJtaWRkbGUiIGxpbmVoZWlnaHQ9IjEyNSUiIGFuY2hvcj0ibWlkZGxlIiBmYW1pbHk9IuW+rui9r+mbhem7kSIgc2l6ZT0iMTNweCIgd2VpZ2h0PSI0MDAiIGZvbnQtc3R5bGU9IiIgb3BhY2l0eT0iMSIgeT0iMi44NzUiIHRyYW5zZm9ybT0icm90YXRlKDApIj48dHNwYW4gaWQ9IlN2Z2pzVHNwYW4xNTYwIiBkeT0iMTYiIHg9Ijg1Ij48dHNwYW4gaWQ9IlN2Z2pzVHNwYW4xNTYxIiBzdHlsZT0idGV4dC1kZWNvcmF0aW9uOjsiPui/lOWbnuaYr+WQpuWujOWFqOino+mUgTwvdHNwYW4+PC90c3Bhbj48dHNwYW4gaWQ9IlN2Z2pzVHNwYW4xNTYyIiBkeT0iMTYiIHg9Ijg1Ij48dHNwYW4gaWQ9IlN2Z2pzVHNwYW4xNTYzIiBzdHlsZT0idGV4dC1kZWNvcmF0aW9uOjsiPnJldHVybiBjPT0wP3RydWU6ZmFsc2U8L3RzcGFuPjwvdHNwYW4+PC90ZXh0PjwvZz48L2c+PGcgaWQ9IlN2Z2pzRzE1NjQiIHRyYW5zZm9ybT0idHJhbnNsYXRlKDUzOS41OTk5OTA4NDQ3MjY2LDEwNTEuNDAwMDE4NjkyMDE2NikiPjxwYXRoIGlkPSJTdmdqc1BhdGgxNTY1IiBkPSJNIDAgMEwgNjMgMEwgNjMgNjhMIDAgNjhaIiBzdHJva2U9Im5vbmUiIGZpbGw9Im5vbmUiLz48ZyBpZD0iU3ZnanNHMTU2NiI+PHRleHQgaWQ9IlN2Z2pzVGV4dDE1NjciIGZvbnQtZmFtaWx5PSLlvq7ova/pm4Xpu5EiIHRleHQtYW5jaG9yPSJtaWRkbGUiIGZvbnQtc2l6ZT0iMTNweCIgd2lkdGg9IjYzcHgiIGZpbGw9IiM3YjFmYTIiIGZvbnQtd2VpZ2h0PSI0MDAiIGFsaWduPSJtaWRkbGUiIGxpbmVoZWlnaHQ9IjEyNSUiIGFuY2hvcj0ibWlkZGxlIiBmYW1pbHk9IuW+rui9r+mbhem7kSIgc2l6ZT0iMTNweCIgd2VpZ2h0PSI0MDAiIGZvbnQtc3R5bGU9IiIgb3BhY2l0eT0iMSIgeT0iLTEuMTI1IiB0cmFuc2Zvcm09InJvdGF0ZSgwKSI+PHRzcGFuIGlkPSJTdmdqc1RzcGFuMTU2OCIgZHk9IjE2IiB4PSIzMS41Ij48dHNwYW4gaWQ9IlN2Z2pzVHNwYW4xNTY5IiBzdHlsZT0idGV4dC1kZWNvcmF0aW9uOjsiPui/memHjOihqOekujwvdHNwYW4+PC90c3Bhbj48dHNwYW4gaWQ9IlN2Z2pzVHNwYW4xNTcwIiBkeT0iMTYiIHg9IjMxLjUiPjx0c3BhbiBpZD0iU3ZnanNUc3BhbjE1NzEiIHN0eWxlPSJ0ZXh0LWRlY29yYXRpb246OyI+6ZSB6YeN5YWl6KejPC90c3Bhbj48L3RzcGFuPjx0c3BhbiBpZD0iU3ZnanNUc3BhbjE1NzIiIGR5PSIxNiIgeD0iMzEuNSI+PHRzcGFuIGlkPSJTdmdqc1RzcGFuMTU3MyIgc3R5bGU9InRleHQtZGVjb3JhdGlvbjo7Ij7plIHkvYbmnKrlrow8L3RzcGFuPjwvdHNwYW4+PHRzcGFuIGlkPSJTdmdqc1RzcGFuMTU3NCIgZHk9IjE2IiB4PSIzMS41Ij48dHNwYW4gaWQ9IlN2Z2pzVHNwYW4xNTc1IiBzdHlsZT0idGV4dC1kZWNvcmF0aW9uOjsiPuWFqOino+mUgTwvdHNwYW4+PC90c3Bhbj48L3RleHQ+PC9nPjwvZz48ZyBpZD0iU3ZnanNHMTU3NiIgdHJhbnNmb3JtPSJ0cmFuc2xhdGUoMzUsMTMyOC45MDAwMDE1MjU4NzkpIj48cGF0aCBpZD0iU3ZnanNQYXRoMTU3NyIgZD0iTSAwIDRRIDAgMCA0IDBMIDEzNiAwUSAxNDAgMCAxNDAgNEwgMTQwIDU3USAxNDAgNjEgMTM2IDYxTCA0IDYxUSAwIDYxIDAgNTdaIiBzdHJva2U9InJnYmEoNTAsNTAsNTAsMSkiIHN0cm9rZS13aWR0aD0iMiIgZmlsbC1vcGFjaXR5PSIxIiBmaWxsPSIjZmZjZGQyIi8+PGcgaWQ9IlN2Z2pzRzE1NzgiPjx0ZXh0IGlkPSJTdmdqc1RleHQxNTc5IiBmb250LWZhbWlseT0i5b6u6L2v6ZuF6buRIiB0ZXh0LWFuY2hvcj0ibWlkZGxlIiBmb250LXNpemU9IjEzcHgiIHdpZHRoPSIxMjBweCIgZmlsbD0iIzMyMzIzMiIgZm9udC13ZWlnaHQ9IjQwMCIgYWxpZ249Im1pZGRsZSIgbGluZWhlaWdodD0iMTI1JSIgYW5jaG9yPSJtaWRkbGUiIGZhbWlseT0i5b6u6L2v6ZuF6buRIiBzaXplPSIxM3B4IiB3ZWlnaHQ9IjQwMCIgZm9udC1zdHlsZT0iIiBvcGFjaXR5PSIxIiB5PSIxMS4zNzUiIHRyYW5zZm9ybT0icm90YXRlKDApIj48dHNwYW4gaWQ9IlN2Z2pzVHNwYW4xNTgwIiBkeT0iMTYiIHg9IjcwIj48dHNwYW4gaWQ9IlN2Z2pzVHNwYW4xNTgxIiBzdHlsZT0idGV4dC1kZWNvcmF0aW9uOjsiPkNvbmRpdGlvbk9iamVjdCA8L3RzcGFuPjwvdHNwYW4+PHRzcGFuIGlkPSJTdmdqc1RzcGFuMTU4MiIgZHk9IjE2IiB4PSI3MCI+PHRzcGFuIGlkPSJTdmdqc1RzcGFuMTU4MyIgc3R5bGU9InRleHQtZGVjb3JhdGlvbjo7Ij5hd2FpdOWHveaVsDwvdHNwYW4+PC90c3Bhbj48L3RleHQ+PC9nPjwvZz48ZyBpZD0iU3ZnanNHMTU4NCIgdHJhbnNmb3JtPSJ0cmFuc2xhdGUoMzMsMTIyOC44MDAwMTgzMTA1NDY5KSI+PHBhdGggaWQ9IlN2Z2pzUGF0aDE1ODUiIGQ9Ik0gMCAwTCAxNzAgMEwgMTcwIDkyTCAwIDkyWiIgc3Ryb2tlPSJub25lIiBmaWxsPSJub25lIi8+PGcgaWQ9IlN2Z2pzRzE1ODYiPjx0ZXh0IGlkPSJTdmdqc1RleHQxNTg3IiBmb250LWZhbWlseT0i5b6u6L2v6ZuF6buRIiB0ZXh0LWFuY2hvcj0ibWlkZGxlIiBmb250LXNpemU9IjEzcHgiIHdpZHRoPSIxNzBweCIgZmlsbD0iIzdiMWZhMiIgZm9udC13ZWlnaHQ9IjQwMCIgYWxpZ249Im1pZGRsZSIgbGluZWhlaWdodD0iMTI1JSIgYW5jaG9yPSJtaWRkbGUiIGZhbWlseT0i5b6u6L2v6ZuF6buRIiBzaXplPSIxM3B4IiB3ZWlnaHQ9IjQwMCIgZm9udC1zdHlsZT0iIiBvcGFjaXR5PSIxIiB5PSIxMC44NzUiIHRyYW5zZm9ybT0icm90YXRlKDApIj48dHNwYW4gaWQ9IlN2Z2pzVHNwYW4xNTg4IiBkeT0iMTYiIHg9Ijg1Ij48dHNwYW4gaWQ9IlN2Z2pzVHNwYW4xNTg5IiBzdHlsZT0idGV4dC1kZWNvcmF0aW9uOjsiPkNvbmRpdGlvbk9iamVjdOS4reebuOW9k+S6jue7tDwvdHNwYW4+PC90c3Bhbj48dHNwYW4gaWQ9IlN2Z2pzVHNwYW4xNTkwIiBkeT0iMTYiIHg9Ijg1Ij48dHNwYW4gaWQ9IlN2Z2pzVHNwYW4xNTkxIiBzdHlsZT0idGV4dC1kZWNvcmF0aW9uOjsiPuaKpOS6huS4gOS4qk5vZGXljZXpk77ooajvvIzpgLvovpE8L3RzcGFuPjwvdHNwYW4+PHRzcGFuIGlkPSJTdmdqc1RzcGFuMTU5MiIgZHk9IjE2IiB4PSI4NSI+PHRzcGFuIGlkPSJTdmdqc1RzcGFuMTU5MyIgc3R5bGU9InRleHQtZGVjb3JhdGlvbjo7Ij7kuIrooajnpLrmnaHku7bpmJ/liJfvvIznsbvkvLzkuo48L3RzcGFuPjwvdHNwYW4+PHRzcGFuIGlkPSJTdmdqc1RzcGFuMTU5NCIgZHk9IjE2IiB4PSI4NSI+PHRzcGFuIGlkPSJTdmdqc1RzcGFuMTU5NSIgc3R5bGU9InRleHQtZGVjb3JhdGlvbjo7Ij5zeW5jaHJvbml6ZemUgeeahHdhaXRTZXQ8L3RzcGFuPjwvdHNwYW4+PC90ZXh0PjwvZz48L2c+PGcgaWQ9IlN2Z2pzRzE1OTYiIHRyYW5zZm9ybT0idHJhbnNsYXRlKDIyNS4wOTk5OTA4NDQ3MjY1NiwxMjM4LjgwMDIyMjM5Njg1MDYpIj48cGF0aCBpZD0iU3ZnanNQYXRoMTU5NyIgZD0iTSAwIDBMIDY1OC45MDAwMDkxNTUyNzM0IDBMIDY3NC45MDAwMDkxNTUyNzM0IDE2TCA2NzQuOTAwMDA5MTU1MjczNCA1ODYuMTk5NzU0NzE0OTY1OEwgMCA1ODYuMTk5NzU0NzE0OTY1OEwgMCAwWiIgc3Ryb2tlPSJub25lIiBmaWxsLW9wYWNpdHk9IjEiIGZpbGw9IiNmZmZmYWEiLz48cGF0aCBpZD0iU3ZnanNQYXRoMTU5OCIgZD0iTSA2NTguOTAwMDA5MTU1MjczNCAwTCA2NTguOTAwMDA5MTU1MjczNCAxNkwgNjc0LjkwMDAwOTE1NTI3MzQgMTZaIiBzdHJva2U9Im5vbmUiIGZpbGwtb3BhY2l0eT0iMSIgZmlsbD0iI2NkY2RjZCIvPjxwYXRoIGlkPSJTdmdqc1BhdGgxNTk5IiBkPSJNIDAgMEwgNjU4LjkwMDAwOTE1NTI3MzQgMEwgNjc0LjkwMDAwOTE1NTI3MzQgMTZMIDY3NC45MDAwMDkxNTUyNzM0IDU4Ni4xOTk3NTQ3MTQ5NjU4TCAwIDU4Ni4xOTk3NTQ3MTQ5NjU4TCAwIDBaIiBzdHJva2U9Im5vbmUiIGZpbGw9Im5vbmUiLz48ZyBpZD0iU3ZnanNHMTYwMCI+PHRleHQgaWQ9IlN2Z2pzVGV4dDE2MDEiIGZvbnQtZmFtaWx5PSLlvq7ova/pm4Xpu5EiIHRleHQtYW5jaG9yPSJtaWRkbGUiIGZvbnQtc2l6ZT0iMTNweCIgd2lkdGg9IjY1NXB4IiBmaWxsPSIjMzIzMjMyIiBmb250LXdlaWdodD0iNDAwIiBhbGlnbj0ibWlkZGxlIiBsaW5laGVpZ2h0PSIxMjUlIiBhbmNob3I9Im1pZGRsZSIgZmFtaWx5PSLlvq7ova/pm4Xpu5EiIHNpemU9IjEzcHgiIHdlaWdodD0iNDAwIiBmb250LXN0eWxlPSIiIG9wYWNpdHk9IjEiIHk9IjI4Mi40NzQ4NzczNTc0ODI5IiB0cmFuc2Zvcm09InJvdGF0ZSgwKSIvPjwvZz48L2c+PGcgaWQ9IlN2Z2pzRzE2MDIiIHRyYW5zZm9ybT0idHJhbnNsYXRlKDMwMSwxMjU3LjkwMDAwMTUyNTg3OSkiPjxwYXRoIGlkPSJTdmdqc1BhdGgxNjAzIiBkPSJNIDAgMzAuNUwgNzAgMEwgMTQwIDMwLjVMIDcwIDYxWiIgc3Ryb2tlPSJyZ2JhKDUwLDUwLDUwLDEpIiBzdHJva2Utd2lkdGg9IjIiIGZpbGwtb3BhY2l0eT0iMSIgZmlsbD0iI2ZmYjc0ZCIvPjxnIGlkPSJTdmdqc0cxNjA0Ij48dGV4dCBpZD0iU3ZnanNUZXh0MTYwNSIgZm9udC1mYW1pbHk9IuW+rui9r+mbhem7kSIgdGV4dC1hbmNob3I9Im1pZGRsZSIgZm9udC1zaXplPSIxM3B4IiB3aWR0aD0iMTIwcHgiIGZpbGw9IiMzMjMyMzIiIGZvbnQtd2VpZ2h0PSI0MDAiIGFsaWduPSJtaWRkbGUiIGxpbmVoZWlnaHQ9IjEyNSUiIGFuY2hvcj0ibWlkZGxlIiBmYW1pbHk9IuW+rui9r+mbhem7kSIgc2l6ZT0iMTNweCIgd2VpZ2h0PSI0MDAiIGZvbnQtc3R5bGU9IiIgb3BhY2l0eT0iMSIgeT0iMTEuNjgiIHRyYW5zZm9ybT0icm90YXRlKDApIj48dHNwYW4gaWQ9IlN2Z2pzVHNwYW4xNjA2IiBkeT0iMTYiIHg9IjcwIj48dHNwYW4gaWQ9IlN2Z2pzVHNwYW4xNjA3IiBzdHlsZT0idGV4dC1kZWNvcmF0aW9uOjsiPuafpeeci+e6v+eoi+aYr+WQpuiiq+aJk+aWrTwvdHNwYW4+PC90c3Bhbj48dHNwYW4gaWQ9IlN2Z2pzVHNwYW4xNjA4IiBkeT0iMTYiIHg9IjcwIj48dHNwYW4gaWQ9IlN2Z2pzVHNwYW4xNjA5IiBzdHlsZT0idGV4dC1kZWNvcmF0aW9uOjsiPu+8iOWIpOaWreaJk+aWreagh+iusO+8iTwvdHNwYW4+PC90c3Bhbj48L3RleHQ+PC9nPjwvZz48ZyBpZD0iU3ZnanNHMTYxMCI+PHBhdGggaWQ9IlN2Z2pzUGF0aDE2MTEiIGQ9Ik00NDIgMTI4OC40MDAwMDE1MjU4NzlMNDc5LjU0OTk5NTQyMjM2MzMgMTI4OC40MDAwMDE1MjU4NzlMNDc5LjU0OTk5NTQyMjM2MzMgMTI4OC40MDAwMDE1MjU4NzlMNTE1LjQgMTI4OC40MDAwMDE1MjU4NzkiIHN0cm9rZT0iIzMyMzIzMiIgc3Ryb2tlLXdpZHRoPSIyIiBmaWxsPSJub25lIiBtYXJrZXItZW5kPSJ1cmwoI1N2Z2pzTWFya2VyMTYxMikiLz48cmVjdCBpZD0iU3ZnanNSZWN0MTYxNCIgd2lkdGg9IjEzIiBoZWlnaHQ9IjE2IiB4PSI0NzIuMiIgeT0iMTI4MC40MDAwMDE1MjU4NzkiIGZpbGw9IiNmZmZmZmYiLz48dGV4dCBpZD0iU3ZnanNUZXh0MTYxNSIgZm9udC1mYW1pbHk9IuW+rui9r+mbhem7kSIgdGV4dC1hbmNob3I9Im1pZGRsZSIgZm9udC1zaXplPSIxM3B4IiB3aWR0aD0iMTNweCIgZmlsbD0iIzMyMzIzMiIgZm9udC13ZWlnaHQ9IjQwMCIgYWxpZ249InRvcCIgbGluZWhlaWdodD0iMTZweCIgYW5jaG9yPSJtaWRkbGUiIGZhbWlseT0i5b6u6L2v6ZuF6buRIiBzaXplPSIxM3B4IiB3ZWlnaHQ9IjQwMCIgZm9udC1zdHlsZT0iIiBvcGFjaXR5PSIxIiB5PSIxMjc3Ljc3NTAwMTUyNTg3OSIgdHJhbnNmb3JtPSJyb3RhdGUoMCkiPjx0c3BhbiBpZD0iU3ZnanNUc3BhbjE2MTYiIGR5PSIxNiIgeD0iNDc4LjciPjx0c3BhbiBpZD0iU3ZnanNUc3BhbjE2MTciIHN0eWxlPSJ0ZXh0LWRlY29yYXRpb246OyI+5pivPC90c3Bhbj48L3RzcGFuPjwvdGV4dD48L2c+PGcgaWQ9IlN2Z2pzRzE2MTgiIHRyYW5zZm9ybT0idHJhbnNsYXRlKDUxOSwxMjY2LjQwMDAwMTUyNTg3OSkiPjxwYXRoIGlkPSJTdmdqc1BhdGgxNjE5IiBkPSJNIDAgMEwgMTAwIDBMIDEwMCA0NEwgMCA0NFoiIHN0cm9rZT0icmdiYSg1MCw1MCw1MCwxKSIgc3Ryb2tlLXdpZHRoPSIyIiBmaWxsLW9wYWNpdHk9IjEiIGZpbGw9IiMwMGJjZDQiLz48ZyBpZD0iU3ZnanNHMTYyMCI+PHRleHQgaWQ9IlN2Z2pzVGV4dDE2MjEiIGZvbnQtZmFtaWx5PSLlvq7ova/pm4Xpu5EiIHRleHQtYW5jaG9yPSJtaWRkbGUiIGZvbnQtc2l6ZT0iMTNweCIgd2lkdGg9IjgwcHgiIGZpbGw9IiMzMjMyMzIiIGZvbnQtd2VpZ2h0PSI0MDAiIGFsaWduPSJtaWRkbGUiIGxpbmVoZWlnaHQ9IjEyNSUiIGFuY2hvcj0ibWlkZGxlIiBmYW1pbHk9IuW+rui9r+mbhem7kSIgc2l6ZT0iMTNweCIgd2VpZ2h0PSI0MDAiIGZvbnQtc3R5bGU9IiIgb3BhY2l0eT0iMSIgeT0iMTEuMzc1IiB0cmFuc2Zvcm09InJvdGF0ZSgwKSI+PHRzcGFuIGlkPSJTdmdqc1RzcGFuMTYyMiIgZHk9IjE2IiB4PSI1MCI+PHRzcGFuIGlkPSJTdmdqc1RzcGFuMTYyMyIgc3R5bGU9InRleHQtZGVjb3JhdGlvbjo7Ij7mipvlh7rlvILluLg8L3RzcGFuPjwvdHNwYW4+PC90ZXh0PjwvZz48L2c+PGcgaWQ9IlN2Z2pzRzE2MjQiPjxwYXRoIGlkPSJTdmdqc1BhdGgxNjI1IiBkPSJNMzcxIDEzMTkuOTAwMDAxNTI1ODc5TDM3MSAxMzQ5Ljk1MDAxNjAyMTcyODVMMzcxIDEzNDkuOTUwMDE2MDIxNzI4NUwzNzEgMTM3OS44MDAwMDE1MjU4NzkiIHN0cm9rZT0iIzMyMzIzMiIgc3Ryb2tlLXdpZHRoPSIyIiBmaWxsPSJub25lIiBtYXJrZXItZW5kPSJ1cmwoI1N2Z2pzTWFya2VyMTYyNikiLz48cmVjdCBpZD0iU3ZnanNSZWN0MTYyOCIgd2lkdGg9IjEzIiBoZWlnaHQ9IjE2IiB4PSIzNjQuNSIgeT0iMTM0MS44NTAwMDE1MjU4NzkiIGZpbGw9IiNmZmZmZmYiLz48dGV4dCBpZD0iU3ZnanNUZXh0MTYyOSIgZm9udC1mYW1pbHk9IuW+rui9r+mbhem7kSIgdGV4dC1hbmNob3I9Im1pZGRsZSIgZm9udC1zaXplPSIxM3B4IiB3aWR0aD0iMTNweCIgZmlsbD0iIzMyMzIzMiIgZm9udC13ZWlnaHQ9IjQwMCIgYWxpZ249InRvcCIgbGluZWhlaWdodD0iMTZweCIgYW5jaG9yPSJtaWRkbGUiIGZhbWlseT0i5b6u6L2v6ZuF6buRIiBzaXplPSIxM3B4IiB3ZWlnaHQ9IjQwMCIgZm9udC1zdHlsZT0iIiBvcGFjaXR5PSIxIiB5PSIxMzM5LjIyNTAwMTUyNTg3OSIgdHJhbnNmb3JtPSJyb3RhdGUoMCkiPjx0c3BhbiBpZD0iU3ZnanNUc3BhbjE2MzAiIGR5PSIxNiIgeD0iMzcxIj48dHNwYW4gaWQ9IlN2Z2pzVHNwYW4xNjMxIiBzdHlsZT0idGV4dC1kZWNvcmF0aW9uOjsiPuWQpjwvdHNwYW4+PC90c3Bhbj48L3RleHQ+PC9nPjxnIGlkPSJTdmdqc0cxNjMyIiB0cmFuc2Zvcm09InRyYW5zbGF0ZSgyNzEsMTM4My40MDAwMDE1MjU4NzkpIj48cGF0aCBpZD0iU3ZnanNQYXRoMTYzMyIgZD0iTSAwIDRRIDAgMCA0IDBMIDE5NiAwUSAyMDAgMCAyMDAgNEwgMjAwIDQwUSAyMDAgNDQgMTk2IDQ0TCA0IDQ0USAwIDQ0IDAgNDBaIiBzdHJva2U9InJnYmEoNTAsNTAsNTAsMSkiIHN0cm9rZS13aWR0aD0iMiIgZmlsbC1vcGFjaXR5PSIxIiBmaWxsPSIjZmZmZmZmIi8+PGcgaWQ9IlN2Z2pzRzE2MzQiPjx0ZXh0IGlkPSJTdmdqc1RleHQxNjM1IiBmb250LWZhbWlseT0i5b6u6L2v6ZuF6buRIiB0ZXh0LWFuY2hvcj0ibWlkZGxlIiBmb250LXNpemU9IjEzcHgiIHdpZHRoPSIxODBweCIgZmlsbD0iIzMyMzIzMiIgZm9udC13ZWlnaHQ9IjQwMCIgYWxpZ249Im1pZGRsZSIgbGluZWhlaWdodD0iMTI1JSIgYW5jaG9yPSJtaWRkbGUiIGZhbWlseT0i5b6u6L2v6ZuF6buRIiBzaXplPSIxM3B4IiB3ZWlnaHQ9IjQwMCIgZm9udC1zdHlsZT0iIiBvcGFjaXR5PSIxIiB5PSIxMS4zNzUiIHRyYW5zZm9ybT0icm90YXRlKDApIj48dHNwYW4gaWQ9IlN2Z2pzVHNwYW4xNjM2IiBkeT0iMTYiIHg9IjEwMCI+PHRzcGFuIGlkPSJTdmdqc1RzcGFuMTYzNyIgc3R5bGU9InRleHQtZGVjb3JhdGlvbjo7Ij7osIPnlKhhZGRDb25kaXRpb25XYWl0ZXLlh73mlbA8L3RzcGFuPjwvdHNwYW4+PC90ZXh0PjwvZz48L2c+PGcgaWQ9IlN2Z2pzRzE2MzgiPjxwYXRoIGlkPSJTdmdqc1BhdGgxNjM5IiBkPSJNNDcyIDE0MDMuOTAwMDAxNTI1ODc5TDUwOC4zNDM3NSAxNDAzLjkwMDAwMTUyNTg3OUw1MDguMzQzNzUgMTQwMy45MDAwMDE1MjU4NzlMNTQ0LjA4NzUgMTQwMy45MDAwMDE1MjU4NzkiIHN0cm9rZS1kYXNoYXJyYXk9IjMsMyIgc3Ryb2tlPSIjMzIzMjMyIiBzdHJva2Utd2lkdGg9IjIiIGZpbGw9Im5vbmUiIG1hcmtlci1lbmQ9InVybCgjU3ZnanNNYXJrZXIxNjQwKSIvPjwvZz48ZyBpZD0iU3ZnanNHMTY0MiIgdHJhbnNmb3JtPSJ0cmFuc2xhdGUoNTQ3LjY4NzUsMTMyMS45MDAwMDE1MjU4NzkpIj48cGF0aCBpZD0iU3ZnanNQYXRoMTY0MyIgZD0iTSAwIDRRIDAgMCA0IDBMIDE4Ni42MjUgMFEgMTkwLjYyNSAwIDE5MC42MjUgNEwgMTkwLjYyNSAxNjNRIDE5MC42MjUgMTY3IDE4Ni42MjUgMTY3TCA0IDE2N1EgMCAxNjcgMCAxNjNaIiBzdHJva2U9InJnYmEoNTAsNTAsNTAsMSkiIHN0cm9rZS13aWR0aD0iMiIgZmlsbC1vcGFjaXR5PSIxIiBmaWxsPSIjMjE5NmYzIi8+PGcgaWQ9IlN2Z2pzRzE2NDQiPjx0ZXh0IGlkPSJTdmdqc1RleHQxNjQ1IiBmb250LWZhbWlseT0i5b6u6L2v6ZuF6buRIiB0ZXh0LWFuY2hvcj0ibWlkZGxlIiBmb250LXNpemU9IjEzcHgiIHdpZHRoPSIxNzFweCIgZmlsbD0iIzMyMzIzMiIgZm9udC13ZWlnaHQ9IjQwMCIgYWxpZ249Im1pZGRsZSIgbGluZWhlaWdodD0iMTI1JSIgYW5jaG9yPSJtaWRkbGUiIGZhbWlseT0i5b6u6L2v6ZuF6buRIiBzaXplPSIxM3B4IiB3ZWlnaHQ9IjQwMCIgZm9udC1zdHlsZT0iIiBvcGFjaXR5PSIxIiB5PSI3Mi44NzUiIHRyYW5zZm9ybT0icm90YXRlKDApIi8+PC9nPjwvZz48ZyBpZD0iU3ZnanNHMTY0NiIgdHJhbnNmb3JtPSJ0cmFuc2xhdGUoNTY0LjUsMTMyOC45MDAwMDE1MjU4NzkpIj48cGF0aCBpZD0iU3ZnanNQYXRoMTY0NyIgZD0iTSAwIDBMIDE1NyAwTCAxNTcgNjFMIDAgNjFaIiBzdHJva2U9InJnYmEoNTAsNTAsNTAsMSkiIHN0cm9rZS13aWR0aD0iMiIgZmlsbC1vcGFjaXR5PSIxIiBmaWxsPSIjZmZmZmZmIi8+PGcgaWQ9IlN2Z2pzRzE2NDgiPjx0ZXh0IGlkPSJTdmdqc1RleHQxNjQ5IiBmb250LWZhbWlseT0i5b6u6L2v6ZuF6buRIiB0ZXh0LWFuY2hvcj0ibWlkZGxlIiBmb250LXNpemU9IjEzcHgiIHdpZHRoPSIxMzdweCIgZmlsbD0iIzMyMzIzMiIgZm9udC13ZWlnaHQ9IjQwMCIgYWxpZ249Im1pZGRsZSIgbGluZWhlaWdodD0iMTI1JSIgYW5jaG9yPSJtaWRkbGUiIGZhbWlseT0i5b6u6L2v6ZuF6buRIiBzaXplPSIxM3B4IiB3ZWlnaHQ9IjQwMCIgZm9udC1zdHlsZT0iIiBvcGFjaXR5PSIxIiB5PSIzLjM3NSIgdHJhbnNmb3JtPSJyb3RhdGUoMCkiPjx0c3BhbiBpZD0iU3ZnanNUc3BhbjE2NTAiIGR5PSIxNiIgeD0iNzguNSI+PHRzcGFuIGlkPSJTdmdqc1RzcGFuMTY1MSIgc3R5bGU9InRleHQtZGVjb3JhdGlvbjo7Ij7ku47pk77ooajkuK3liKDpmaTnirbmgIHkuI3kuLo8L3RzcGFuPjwvdHNwYW4+PHRzcGFuIGlkPSJTdmdqc1RzcGFuMTY1MiIgZHk9IjE2IiB4PSI3OC41Ij48dHNwYW4gaWQ9IlN2Z2pzVHNwYW4xNjUzIiBzdHlsZT0idGV4dC1kZWNvcmF0aW9uOjsiPmNvbmRpdGlvbueahOiKgueCuTwvdHNwYW4+PC90c3Bhbj48dHNwYW4gaWQ9IlN2Z2pzVHNwYW4xNjU0IiBkeT0iMTYiIHg9Ijc4LjUiPjx0c3BhbiBpZD0iU3ZnanNUc3BhbjE2NTUiIHN0eWxlPSJ0ZXh0LWRlY29yYXRpb246OyI+77yI6L+Z5Lqb6IqC54K55bey5Y+W5raI77yJPC90c3Bhbj48L3RzcGFuPjwvdGV4dD48L2c+PC9nPjxnIGlkPSJTdmdqc0cxNjU2Ij48cGF0aCBpZD0iU3ZnanNQYXRoMTY1NyIgZD0iTTY0Mi45MTI0OTA4NDQ3MjY2IDEzOTAuOTAwMDAxNTI1ODc5TDY0Mi45MTI0OTA4NDQ3MjY2IDEzOTcuNjUwMDMyMDQzNDU3TDY0Mi45MTI0OTA4NDQ3MjY2IDEzOTcuNjUwMDMyMDQzNDU3TDY0Mi45MTI0OTA4NDQ3MjY2IDE0MDUuMDUwMDU4MjY5NTAwOCIgc3Ryb2tlPSIjMzIzMjMyIiBzdHJva2Utd2lkdGg9IjIiIGZpbGw9Im5vbmUiIG1hcmtlci1lbmQ9InVybCgjU3ZnanNNYXJrZXIxNjU4KSIvPjwvZz48ZyBpZD0iU3ZnanNHMTY2MCIgdHJhbnNmb3JtPSJ0cmFuc2xhdGUoNTY0LjUsMTQwOC42NTAwNTgyNjk1MDA3KSI+PHBhdGggaWQ9IlN2Z2pzUGF0aDE2NjEiIGQ9Ik0gMCAwTCAxNTcgMEwgMTU3IDY4TCAwIDY4WiIgc3Ryb2tlPSJyZ2JhKDUwLDUwLDUwLDEpIiBzdHJva2Utd2lkdGg9IjIiIGZpbGwtb3BhY2l0eT0iMSIgZmlsbD0iI2ZmZmZmZiIvPjxnIGlkPSJTdmdqc0cxNjYyIj48dGV4dCBpZD0iU3ZnanNUZXh0MTY2MyIgZm9udC1mYW1pbHk9IuW+rui9r+mbhem7kSIgdGV4dC1hbmNob3I9Im1pZGRsZSIgZm9udC1zaXplPSIxM3B4IiB3aWR0aD0iMTM3cHgiIGZpbGw9IiMzMjMyMzIiIGZvbnQtd2VpZ2h0PSI0MDAiIGFsaWduPSJtaWRkbGUiIGxpbmVoZWlnaHQ9IjEyNSUiIGFuY2hvcj0ibWlkZGxlIiBmYW1pbHk9IuW+rui9r+mbhem7kSIgc2l6ZT0iMTNweCIgd2VpZ2h0PSI0MDAiIGZvbnQtc3R5bGU9IiIgb3BhY2l0eT0iMSIgeT0iLTEuMTI1IiB0cmFuc2Zvcm09InJvdGF0ZSgwKSI+PHRzcGFuIGlkPSJTdmdqc1RzcGFuMTY2NCIgZHk9IjE2IiB4PSI3OC41Ij48dHNwYW4gaWQ9IlN2Z2pzVHNwYW4xNjY1IiBzdHlsZT0idGV4dC1kZWNvcmF0aW9uOjsiPuW9k+WJjee6v+eoi+WwgeijheWIsDwvdHNwYW4+PC90c3Bhbj48dHNwYW4gaWQ9IlN2Z2pzVHNwYW4xNjY2IiBkeT0iMTYiIHg9Ijc4LjUiPjx0c3BhbiBpZD0iU3ZnanNUc3BhbjE2NjciIHN0eWxlPSJ0ZXh0LWRlY29yYXRpb246OyI+Tm9kZe+8jOeKtuaAgeS4ujwvdHNwYW4+PC90c3Bhbj48dHNwYW4gaWQ9IlN2Z2pzVHNwYW4xNjY4IiBkeT0iMTYiIHg9Ijc4LjUiPjx0c3BhbiBpZD0iU3ZnanNUc3BhbjE2NjkiIHN0eWxlPSJ0ZXh0LWRlY29yYXRpb246OyI+Q29uZGl0aW9u77yM5Yqg5YWl5Yiw5Y2VPC90c3Bhbj48L3RzcGFuPjx0c3BhbiBpZD0iU3ZnanNUc3BhbjE2NzAiIGR5PSIxNiIgeD0iNzguNSI+PHRzcGFuIGlkPSJTdmdqc1RzcGFuMTY3MSIgc3R5bGU9InRleHQtZGVjb3JhdGlvbjo7Ij7pk77ooajkuK3vvIhXYWl0U2V077yJPC90c3Bhbj48L3RzcGFuPjwvdGV4dD48L2c+PC9nPjxnIGlkPSJTdmdqc0cxNjcyIj48cGF0aCBpZD0iU3ZnanNQYXRoMTY3MyIgZD0iTTM3MSAxNDI4LjQwMDAwMTUyNTg3OUwzNzEgMTQ2My45NTAwNTc1MDY1NjEzTDM3MSAxNDYzLjk1MDA1NzUwNjU2MTNMMzcxIDE0OTcuODAwMDk5NzU0MzMzNiIgc3Ryb2tlPSIjMzIzMjMyIiBzdHJva2Utd2lkdGg9IjIiIGZpbGw9Im5vbmUiIG1hcmtlci1lbmQ9InVybCgjU3ZnanNNYXJrZXIxNjc0KSIvPjwvZz48ZyBpZD0iU3ZnanNHMTY3NiIgdHJhbnNmb3JtPSJ0cmFuc2xhdGUoMjcxLDE1MDEuNDAwMDk5NzU0MzMzNSkiPjxwYXRoIGlkPSJTdmdqc1BhdGgxNjc3IiBkPSJNIDAgNFEgMCAwIDQgMEwgMTk2IDBRIDIwMCAwIDIwMCA0TCAyMDAgNDBRIDIwMCA0NCAxOTYgNDRMIDQgNDRRIDAgNDQgMCA0MFoiIHN0cm9rZT0icmdiYSg1MCw1MCw1MCwxKSIgc3Ryb2tlLXdpZHRoPSIyIiBmaWxsLW9wYWNpdHk9IjEiIGZpbGw9IiNmZmZmZmYiLz48ZyBpZD0iU3ZnanNHMTY3OCI+PHRleHQgaWQ9IlN2Z2pzVGV4dDE2NzkiIGZvbnQtZmFtaWx5PSLlvq7ova/pm4Xpu5EiIHRleHQtYW5jaG9yPSJtaWRkbGUiIGZvbnQtc2l6ZT0iMTNweCIgd2lkdGg9IjE4MHB4IiBmaWxsPSIjMzIzMjMyIiBmb250LXdlaWdodD0iNDAwIiBhbGlnbj0ibWlkZGxlIiBsaW5laGVpZ2h0PSIxMjUlIiBhbmNob3I9Im1pZGRsZSIgZmFtaWx5PSLlvq7ova/pm4Xpu5EiIHNpemU9IjEzcHgiIHdlaWdodD0iNDAwIiBmb250LXN0eWxlPSIiIG9wYWNpdHk9IjEiIHk9IjExLjM3NSIgdHJhbnNmb3JtPSJyb3RhdGUoMCkiPjx0c3BhbiBpZD0iU3ZnanNUc3BhbjE2ODAiIGR5PSIxNiIgeD0iMTAwIj48dHNwYW4gaWQ9IlN2Z2pzVHNwYW4xNjgxIiBzdHlsZT0idGV4dC1kZWNvcmF0aW9uOjsiPuiwg+eUqGZ1bGx5UmVsZWFzZeWHveaVsDwvdHNwYW4+PC90c3Bhbj48L3RleHQ+PC9nPjwvZz48ZyBpZD0iU3ZnanNHMTY4MiIgdHJhbnNmb3JtPSJ0cmFuc2xhdGUoNDgzLjU0OTk5NTQyMjM2MzMsMTUwMS40MDAwOTk3NTQzMzM1KSI+PHBhdGggaWQ9IlN2Z2pzUGF0aDE2ODMiIGQ9Ik0gMCAwTCA0MTUgMEwgNDE1IDYxTCAwIDYxWiIgc3Ryb2tlPSJub25lIiBmaWxsPSJub25lIi8+PGcgaWQ9IlN2Z2pzRzE2ODQiPjx0ZXh0IGlkPSJTdmdqc1RleHQxNjg1IiBmb250LWZhbWlseT0i5b6u6L2v6ZuF6buRIiB0ZXh0LWFuY2hvcj0ic3RhcnQiIGZvbnQtc2l6ZT0iMTNweCIgd2lkdGg9IjQxNXB4IiBmaWxsPSIjN2IxZmEyIiBmb250LXdlaWdodD0iNDAwIiBhbGlnbj0ibWlkZGxlIiBsaW5laGVpZ2h0PSIxMjUlIiBhbmNob3I9InN0YXJ0IiBmYW1pbHk9IuW+rui9r+mbhem7kSIgc2l6ZT0iMTNweCIgd2VpZ2h0PSI0MDAiIGZvbnQtc3R5bGU9IiIgb3BhY2l0eT0iMSIgeT0iLTQuNjI1IiB0cmFuc2Zvcm09InJvdGF0ZSgwKSI+PHRzcGFuIGlkPSJTdmdqc1RzcGFuMTY4NiIgZHk9IjE2IiB4PSIwIj48dHNwYW4gaWQ9IlN2Z2pzVHNwYW4xNjg3IiBzdHlsZT0idGV4dC1kZWNvcmF0aW9uOjsiPui/meS4quWHveaVsOWPr+S7peWwhuW9k+WJjee6v+eoi+WNoOacieeahOmUgeWujOWFqOino+mZpO+8jOWNs+WQjumdouiwg+eUqDwvdHNwYW4+PC90c3Bhbj48dHNwYW4gaWQ9IlN2Z2pzVHNwYW4xNjg4IiBkeT0iMTYiIHg9IjAiPjx0c3BhbiBpZD0iU3ZnanNUc3BhbjE2ODkiIHN0eWxlPSJ0ZXh0LWRlY29yYXRpb246OyI+cmVsZWFzZShjdXJTdGF0ZSnjgII8L3RzcGFuPjx0c3BhbiBpZD0iU3ZnanNUc3BhbjE2OTAiIHN0eWxlPSJ0ZXh0LWRlY29yYXRpb246O2ZvbnQtc2l6ZTogaW5oZXJpdDsiPueUseS6jnJlbGVhc2XosIPnlKjnmoR0cnlSZWxlYXNl5Lya5qOA5p+l6Kej6ZSB55qE5piv5ZCm5pivPC90c3Bhbj48L3RzcGFuPjx0c3BhbiBpZD0iU3ZnanNUc3BhbjE2OTEiIGR5PSIxNiIgeD0iMCI+PHRzcGFuIGlkPSJTdmdqc1RzcGFuMTY5MiIgc3R5bGU9InRleHQtZGVjb3JhdGlvbjo7Zm9udC1zaXplOiBpbmhlcml0OyI+b3duZXLvvIzlm6DogIzlj6/ku6Xkv53or4Hov5nkuKrlh73mlbDlrozlhajmmK/ljZXnur/nqIvosIPnlKjnmoTvvIzkuZ/lj6/ku6Xkv53or4HmmK/lnKg8L3RzcGFuPjwvdHNwYW4+PHRzcGFuIGlkPSJTdmdqc1RzcGFuMTY5MyIgZHk9IjE2IiB4PSIwIj48dHNwYW4gaWQ9IlN2Z2pzVHNwYW4xNjk0IiBzdHlsZT0idGV4dC1kZWNvcmF0aW9uOjtmb250LXNpemU6IGluaGVyaXQ7Ij5sb2Nr5LmL5ZCO5YaN6LCD55So55qEPC90c3Bhbj48L3RzcGFuPjwvdGV4dD48L2c+PC9nPjxnIGlkPSJTdmdqc0cxNjk1IiB0cmFuc2Zvcm09InRyYW5zbGF0ZSgyODYsMTU4OC40MDAwMTY3ODQ2NjgpIj48cGF0aCBpZD0iU3ZnanNQYXRoMTY5NiIgZD0iTSAwIDMwLjVMIDg1IDBMIDE3MCAzMC41TCA4NSA2MVoiIHN0cm9rZT0icmdiYSg1MCw1MCw1MCwxKSIgc3Ryb2tlLXdpZHRoPSIyIiBmaWxsLW9wYWNpdHk9IjEiIGZpbGw9IiNmZmI3NGQiLz48ZyBpZD0iU3ZnanNHMTY5NyI+PHRleHQgaWQ9IlN2Z2pzVGV4dDE2OTgiIGZvbnQtZmFtaWx5PSLlvq7ova/pm4Xpu5EiIHRleHQtYW5jaG9yPSJtaWRkbGUiIGZvbnQtc2l6ZT0iMTNweCIgd2lkdGg9IjE1MHB4IiBmaWxsPSIjMzIzMjMyIiBmb250LXdlaWdodD0iNDAwIiBhbGlnbj0ibWlkZGxlIiBsaW5laGVpZ2h0PSIxMjUlIiBhbmNob3I9Im1pZGRsZSIgZmFtaWx5PSLlvq7ova/pm4Xpu5EiIHNpemU9IjEzcHgiIHdlaWdodD0iNDAwIiBmb250LXN0eWxlPSIiIG9wYWNpdHk9IjEiIHk9IjMuNjgwMDAwMDAwMDAwMDAwNiIgdHJhbnNmb3JtPSJyb3RhdGUoMCkiPjx0c3BhbiBpZD0iU3ZnanNUc3BhbjE2OTkiIGR5PSIxNiIgeD0iODUiPjx0c3BhbiBpZD0iU3ZnanNUc3BhbjE3MDAiIHN0eWxlPSJ0ZXh0LWRlY29yYXRpb246OyI+bm9kZeaYr+WQpuWcqOWQjOatpemYn+WIl+S4rTwvdHNwYW4+PC90c3Bhbj48dHNwYW4gaWQ9IlN2Z2pzVHNwYW4xNzAxIiBkeT0iMTYiIHg9Ijg1Ij48dHNwYW4gaWQ9IlN2Z2pzVHNwYW4xNzAyIiBzdHlsZT0idGV4dC1kZWNvcmF0aW9uOjsiPu+8iOWNs+aYr+WQpueUsXNpZ25hbOenu+WKqOWIsDwvdHNwYW4+PC90c3Bhbj48dHNwYW4gaWQ9IlN2Z2pzVHNwYW4xNzAzIiBkeT0iMTYiIHg9Ijg1Ij48dHNwYW4gaWQ9IlN2Z2pzVHNwYW4xNzA0IiBzdHlsZT0idGV4dC1kZWNvcmF0aW9uOjsiPuS6huWQjOatpemYn+WIl++8iTwvdHNwYW4+PC90c3Bhbj48L3RleHQ+PC9nPjwvZz48ZyBpZD0iU3ZnanNHMTcwNSI+PHBhdGggaWQ9IlN2Z2pzUGF0aDE3MDYiIGQ9Ik0zNzEgMTU0Ni40MDAwOTk3NTQzMzM1TDM3MSAxNTY2LjkwMDA1ODI2OTUwMDdMMzcxIDE1NjYuOTAwMDU4MjY5NTAwN0wzNzEgMTU4NC44MDAwMTY3ODQ2NjgiIHN0cm9rZT0iIzE5NzZkMiIgc3Ryb2tlLXdpZHRoPSIyIiBmaWxsPSJub25lIiBtYXJrZXItZW5kPSJ1cmwoI1N2Z2pzTWFya2VyMTcwNykiLz48L2c+PGcgaWQ9IlN2Z2pzRzE3MDkiPjxwYXRoIGlkPSJTdmdqc1BhdGgxNzEwIiBkPSJNMzcxIDE2NTAuNDAwMDE2Nzg0NjY4TDM3MSAxNjY4Ljg0Njc3MTkxNzc5OTdMMzcxIDE2NjguODQ2NzcxOTE3Nzk5N0wzNzEgMTY4My4zMDAwMDE1MjU4NzkiIHN0cm9rZT0iIzE5NzZkMiIgc3Ryb2tlLXdpZHRoPSIyIiBmaWxsPSJub25lIiBtYXJrZXItZW5kPSJ1cmwoI1N2Z2pzTWFya2VyMTcxMSkiLz48cmVjdCBpZD0iU3ZnanNSZWN0MTcxMyIgd2lkdGg9IjEzIiBoZWlnaHQ9IjE2IiB4PSIzNjQuNSIgeT0iMTY1OC44NTAwMDkxNTUyNzM1IiBmaWxsPSIjZmZmZmZmIi8+PHRleHQgaWQ9IlN2Z2pzVGV4dDE3MTQiIGZvbnQtZmFtaWx5PSLlvq7ova/pm4Xpu5EiIHRleHQtYW5jaG9yPSJtaWRkbGUiIGZvbnQtc2l6ZT0iMTNweCIgd2lkdGg9IjEzcHgiIGZpbGw9IiMzMjMyMzIiIGZvbnQtd2VpZ2h0PSI0MDAiIGFsaWduPSJ0b3AiIGxpbmVoZWlnaHQ9IjE2cHgiIGFuY2hvcj0ibWlkZGxlIiBmYW1pbHk9IuW+rui9r+mbhem7kSIgc2l6ZT0iMTNweCIgd2VpZ2h0PSI0MDAiIGZvbnQtc3R5bGU9IiIgb3BhY2l0eT0iMSIgeT0iMTY1Ni4yMjUwMDkxNTUyNzM1IiB0cmFuc2Zvcm09InJvdGF0ZSgwKSI+PHRzcGFuIGlkPSJTdmdqc1RzcGFuMTcxNSIgZHk9IjE2IiB4PSIzNzEiPjx0c3BhbiBpZD0iU3ZnanNUc3BhbjE3MTYiIHN0eWxlPSJ0ZXh0LWRlY29yYXRpb246OyI+5ZCmPC90c3Bhbj48L3RzcGFuPjwvdGV4dD48L2c+PGcgaWQ9IlN2Z2pzRzE3MTciIHRyYW5zZm9ybT0idHJhbnNsYXRlKDI4MC4yNSwxNjg2LjkwMDAwMTUyNTg3OSkiPjxwYXRoIGlkPSJTdmdqc1BhdGgxNzE4IiBkPSJNIDIxLjc3OTk5OTk5OTk5OTk5OCA1MS4wOTk5OTk5OTk5OTk5OTRDIC0xOC4xNTAwMDAwMDAwMDAwMDIgMzYuNSA3LjI2IDI1LjU0OTk5OTk5OTk5OTk5NyAxNi4zMzUgMjEuOUMgMTIuNzA1MDAwMDAwMDAwMDAyIDMuNjUwMDAwMDAwMDAwMDAwNCA1OC4wOCAwIDc2LjIzIDcuMzAwMDAwMDAwMDAwMDAxQyA5MC43NSAtMy42NTAwMDAwMDAwMDAwMDA0IDEzNi4xMjUgMCAxMzYuMTI1IDEwLjk1QyAxNzIuNDI0OTk5OTk5OTk5OTggNy4zMDAwMDAwMDAwMDAwMDEgMTg2Ljk0NSAyMS45IDE3Mi40MjQ5OTk5OTk5OTk5OCA0MC4xNTAwMDAwMDAwMDAwMDZDIDE4NS4xMyA1NC43NSAxNzIuNDI0OTk5OTk5OTk5OTggNzMgMTMwLjY4IDY1LjdDIDEyMS42MDUgNzUuMTkgODUuMzA0OTk5OTk5OTk5OTkgNzUuMTkgNzYuMjMgNjUuN0MgNTguMDggNzMgMjEuNzc5OTk5OTk5OTk5OTk4IDY5LjM1IDIxLjc3OTk5OTk5OTk5OTk5OCA1MS4wOTk5OTk5OTk5OTk5OTRaIiBzdHJva2U9InJnYmEoNTAsNTAsNTAsMSkiIHN0cm9rZS13aWR0aD0iMiIgZmlsbC1vcGFjaXR5PSIxIiBmaWxsPSIjZmZmZmZmIi8+PGcgaWQ9IlN2Z2pzRzE3MTkiPjx0ZXh0IGlkPSJTdmdqc1RleHQxNzIwIiBmb250LWZhbWlseT0i5b6u6L2v6ZuF6buRIiB0ZXh0LWFuY2hvcj0ibWlkZGxlIiBmb250LXNpemU9IjEzcHgiIHdpZHRoPSIxNjJweCIgZmlsbD0iIzMyMzIzMiIgZm9udC13ZWlnaHQ9IjQwMCIgYWxpZ249Im1pZGRsZSIgbGluZWhlaWdodD0iMTI1JSIgYW5jaG9yPSJtaWRkbGUiIGZhbWlseT0i5b6u6L2v6ZuF6buRIiBzaXplPSIxM3B4IiB3ZWlnaHQ9IjQwMCIgZm9udC1zdHlsZT0iIiBvcGFjaXR5PSIxIiB5PSIxNy4zNzUiIHRyYW5zZm9ybT0icm90YXRlKDApIj48dHNwYW4gaWQ9IlN2Z2pzVHNwYW4xNzIxIiBkeT0iMTYiIHg9IjkxIj48dHNwYW4gaWQ9IlN2Z2pzVHNwYW4xNzIyIiBzdHlsZT0idGV4dC1kZWNvcmF0aW9uOjsiPkxvY2tTdXBwb3J0LnBhcmsodGhpcyk8L3RzcGFuPjwvdHNwYW4+PHRzcGFuIGlkPSJTdmdqc1RzcGFuMTcyMyIgZHk9IjE2IiB4PSI5MSI+PHRzcGFuIGlkPSJTdmdqc1RzcGFuMTcyNCIgc3R5bGU9InRleHQtZGVjb3JhdGlvbjo7Ij7lj6/ku6XorqTkuLrmmK/lnKjmnaHku7bpmJ/liJfpmLvloZ48L3RzcGFuPjwvdHNwYW4+PC90ZXh0PjwvZz48L2c+PGcgaWQ9IlN2Z2pzRzE3MjUiPjxwYXRoIGlkPSJTdmdqc1BhdGgxNzI2IiBkPSJNNDU3IDE2MTguOTAwMDE2Nzg0NjY4TDYzMC4yMDkwODQ0NTA3MDQ1IDE2MTguOTAwMDE2Nzg0NjY4TDYzMC4yMDkwODQ0NTA3MDQ1IDE2NzEuODU1MDUwNzk2OTUzMyIgc3Ryb2tlPSIjMTk3NmQyIiBzdHJva2Utd2lkdGg9IjIiIGZpbGw9Im5vbmUiIG1hcmtlci1lbmQ9InVybCgjU3ZnanNNYXJrZXIxNzI3KSIvPjxyZWN0IGlkPSJTdmdqc1JlY3QxNzI5IiB3aWR0aD0iMTAxIiBoZWlnaHQ9IjMyIiB4PSI1MTkuNTgyMDU5MjMxNDk0OSIgeT0iMTYwMi45MDAwMTY3ODQ2NjgiIGZpbGw9IiNmZmZmZmYiLz48dGV4dCBpZD0iU3ZnanNUZXh0MTczMCIgZm9udC1mYW1pbHk9IuW+rui9r+mbhem7kSIgdGV4dC1hbmNob3I9Im1pZGRsZSIgZm9udC1zaXplPSIxM3B4IiB3aWR0aD0iMTAxcHgiIGZpbGw9IiMzMjMyMzIiIGZvbnQtd2VpZ2h0PSI0MDAiIGFsaWduPSJ0b3AiIGxpbmVoZWlnaHQ9IjE2cHgiIGFuY2hvcj0ibWlkZGxlIiBmYW1pbHk9IuW+rui9r+mbhem7kSIgc2l6ZT0iMTNweCIgd2VpZ2h0PSI0MDAiIGZvbnQtc3R5bGU9IiIgb3BhY2l0eT0iMSIgeT0iMTYwMC4yNzUwMTY3ODQ2NjgiIHRyYW5zZm9ybT0icm90YXRlKDApIj48dHNwYW4gaWQ9IlN2Z2pzVHNwYW4xNzMxIiBkeT0iMTYiIHg9IjU3MC4wODIwNTkyMzE0OTQ5Ij48dHNwYW4gaWQ9IlN2Z2pzVHNwYW4xNzMyIiBzdHlsZT0idGV4dC1kZWNvcmF0aW9uOjsiPuaYr++8jOWNs3NpZ25hbOenu+WKqDwvdHNwYW4+PC90c3Bhbj48dHNwYW4gaWQ9IlN2Z2pzVHNwYW4xNzMzIiBkeT0iMTYiIHg9IjU3MC4wODIwNTkyMzE0OTQ5Ij48dHNwYW4gaWQ9IlN2Z2pzVHNwYW4xNzM0IiBzdHlsZT0idGV4dC1kZWNvcmF0aW9uOjsiPuWIsOWQjOatpemYn+WIl+WQjjwvdHNwYW4+PC90c3Bhbj48L3RleHQ+PC9nPjxnIGlkPSJTdmdqc0cxNzM1IiB0cmFuc2Zvcm09InRyYW5zbGF0ZSg1MDUuNSwxNjczLjkwMDE5Nzk4Mjc4OCkiPjxwYXRoIGlkPSJTdmdqc1BhdGgxNzM2IiBkPSJNIDMwLjE2MTk5ODkwMTM2NzE4OCA0NS41Njk4NDUzOTAzMTk4MkMgLTI1LjEzNDk5OTA4NDQ3MjY1NyAzMi41NDk4ODk1NjQ1MTQxNiAxMC4wNTM5OTk2MzM3ODkwNjMgMjIuNzg0OTIyNjk1MTU5OTEgMjIuNjIxNDk5MTc2MDI1Mzg4IDE5LjUyOTkzMzczODcwODQ5N0MgMTcuNTk0NDk5MzU5MTMwODYgMy4yNTQ5ODg5NTY0NTE0MTYzIDgwLjQzMTk5NzA3MDMxMjUgMCAxMDUuNTY2OTk2MTU0Nzg1MTYgNi41MDk5Nzc5MTI5MDI4MzNDIDEyNS42NzQ5OTU0MjIzNjMyOCAtMy4yNTQ5ODg5NTY0NTE0MTYzIDE4OC41MTI0OTMxMzM1NDQ5MiAwIDE4OC41MTI0OTMxMzM1NDQ5MiA5Ljc2NDk2Njg2OTM1NDI0OEMgMjM4Ljc4MjQ5MTMwMjQ5MDIzIDYuNTA5OTc3OTEyOTAyODMzIDI1OC44OTA0OTA1NzAwNjg0IDE5LjUyOTkzMzczODcwODQ5NyAyMzguNzgyNDkxMzAyNDkwMjMgMzUuODA0ODc4NTIwOTY1NThDIDI1Ni4zNzY5OTA2NjE2MjExIDQ4LjgyNDgzNDM0Njc3MTI0IDIzOC43ODI0OTEzMDI0OTAyMyA2NS4wOTk3NzkxMjkwMjgzMiAxODAuOTcxOTkzNDA4MjAzMSA1OC41ODk4MDEyMTYxMjU0OUMgMTY4LjQwNDQ5Mzg2NTk2NjggNjcuMDUyNzcyNTAyODk5MTcgMTE4LjEzNDQ5NTY5NzAyMTQ4IDY3LjA1Mjc3MjUwMjg5OTE3IDEwNS41NjY5OTYxNTQ3ODUxNiA1OC41ODk4MDEyMTYxMjU0OUMgODAuNDMxOTk3MDcwMzEyNSA2NS4wOTk3NzkxMjkwMjgzMiAzMC4xNjE5OTg5MDEzNjcxODggNjEuODQ0NzkwMTcyNTc2OSAzMC4xNjE5OTg5MDEzNjcxODggNDUuNTY5ODQ1MzkwMzE5ODJaIiBzdHJva2U9InJnYmEoNTAsNTAsNTAsMSkiIHN0cm9rZS13aWR0aD0iMiIgZmlsbC1vcGFjaXR5PSIxIiBmaWxsPSIjZmZmZmZmIi8+PGcgaWQ9IlN2Z2pzRzE3MzciPjx0ZXh0IGlkPSJTdmdqc1RleHQxNzM4IiBmb250LWZhbWlseT0i5b6u6L2v6ZuF6buRIiB0ZXh0LWFuY2hvcj0ibWlkZGxlIiBmb250LXNpemU9IjEzcHgiIHdpZHRoPSIyMzJweCIgZmlsbD0iIzMyMzIzMiIgZm9udC13ZWlnaHQ9IjQwMCIgYWxpZ249Im1pZGRsZSIgbGluZWhlaWdodD0iMTI1JSIgYW5jaG9yPSJtaWRkbGUiIGZhbWlseT0i5b6u6L2v6ZuF6buRIiBzaXplPSIxM3B4IiB3ZWlnaHQ9IjQwMCIgZm9udC1zdHlsZT0iIiBvcGFjaXR5PSIxIiB5PSIyMS45MjQ4ODk1NjQ1MTQxNiIgdHJhbnNmb3JtPSJyb3RhdGUoMCkiPjx0c3BhbiBpZD0iU3ZnanNUc3BhbjE3MzkiIGR5PSIxNiIgeD0iMTI2Ij48dHNwYW4gaWQ9IlN2Z2pzVHNwYW4xNzQwIiBzdHlsZT0idGV4dC1kZWNvcmF0aW9uOjsiPui/m+WFpWFjcXVpcmVRdWV1ZWQobm9kZSwgc2F2ZVN0YXRlKTwvdHNwYW4+PC90c3Bhbj48L3RleHQ+PC9nPjwvZz48ZyBpZD0iU3ZnanNHMTc0MSI+PHBhdGggaWQ9IlN2Z2pzUGF0aDE3NDIiIGQ9Ik0zNjguMTczNjQ4MTc3NjY2OSAxNzU3LjAxNTE4NDYxNzU5MzFMMzY4LjE3MzY0ODE3NzY2NjkgMTc4Ni4wMTUxODQ2MTc1OTMxTDI0OS4yNSAxNzg2LjAxNTE4NDYxNzU5MzFMMjQ5LjI1IDE2MTguOTAwMDE2Nzg0NjY4TDI4Mi40IDE2MTguOTAwMDE2Nzg0NjY4IiBzdHJva2U9IiMxOTc2ZDIiIHN0cm9rZS13aWR0aD0iMiIgZmlsbD0ibm9uZSIgbWFya2VyLWVuZD0idXJsKCNTdmdqc01hcmtlcjE3NDMpIi8+PC9nPjxnIGlkPSJTdmdqc0cxNzQ1Ij48cGF0aCBpZD0iU3ZnanNQYXRoMTc0NiIgZD0iTTE3NiAxMzU5LjQwMDAwMTUyNTg3OUwyMzcuNSAxMzU5LjQwMDAwMTUyNTg3OUwyMzcuNSAxMjg4LjQwMDAwMTUyNTg3OUwyOTcuNCAxMjg4LjQwMDAwMTUyNTg3OSIgc3Ryb2tlLWRhc2hhcnJheT0iMywzIiBzdHJva2U9IiMzMjMyMzIiIHN0cm9rZS13aWR0aD0iMiIgZmlsbD0ibm9uZSIgbWFya2VyLWVuZD0idXJsKCNTdmdqc01hcmtlcjE3NDcpIi8+PC9nPjxnIGlkPSJTdmdqc0cxNzQ5IiB0cmFuc2Zvcm09InRyYW5zbGF0ZSgzNSwxODkxLjkwMDAwMTUyNTg3OSkiPjxwYXRoIGlkPSJTdmdqc1BhdGgxNzUwIiBkPSJNIDAgNFEgMCAwIDQgMEwgMTM2IDBRIDE0MCAwIDE0MCA0TCAxNDAgNTdRIDE0MCA2MSAxMzYgNjFMIDQgNjFRIDAgNjEgMCA1N1oiIHN0cm9rZT0icmdiYSg1MCw1MCw1MCwxKSIgc3Ryb2tlLXdpZHRoPSIyIiBmaWxsLW9wYWNpdHk9IjEiIGZpbGw9IiNmZmNkZDIiLz48ZyBpZD0iU3ZnanNHMTc1MSI+PHRleHQgaWQ9IlN2Z2pzVGV4dDE3NTIiIGZvbnQtZmFtaWx5PSLlvq7ova/pm4Xpu5EiIHRleHQtYW5jaG9yPSJtaWRkbGUiIGZvbnQtc2l6ZT0iMTNweCIgd2lkdGg9IjEyMHB4IiBmaWxsPSIjMzIzMjMyIiBmb250LXdlaWdodD0iNDAwIiBhbGlnbj0ibWlkZGxlIiBsaW5laGVpZ2h0PSIxMjUlIiBhbmNob3I9Im1pZGRsZSIgZmFtaWx5PSLlvq7ova/pm4Xpu5EiIHNpemU9IjEzcHgiIHdlaWdodD0iNDAwIiBmb250LXN0eWxlPSIiIG9wYWNpdHk9IjEiIHk9IjExLjM3NSIgdHJhbnNmb3JtPSJyb3RhdGUoMCkiPjx0c3BhbiBpZD0iU3ZnanNUc3BhbjE3NTMiIGR5PSIxNiIgeD0iNzAiPjx0c3BhbiBpZD0iU3ZnanNUc3BhbjE3NTQiIHN0eWxlPSJ0ZXh0LWRlY29yYXRpb246OyI+Q29uZGl0aW9uT2JqZWN0IDwvdHNwYW4+PC90c3Bhbj48dHNwYW4gaWQ9IlN2Z2pzVHNwYW4xNzU1IiBkeT0iMTYiIHg9IjcwIj48dHNwYW4gaWQ9IlN2Z2pzVHNwYW4xNzU2IiBzdHlsZT0idGV4dC1kZWNvcmF0aW9uOjsiPnNpZ25hbDwvdHNwYW4+PHRzcGFuIGlkPSJTdmdqc1RzcGFuMTc1NyIgc3R5bGU9InRleHQtZGVjb3JhdGlvbjo7Zm9udC1zaXplOiBpbmhlcml0OyI+5Ye95pWwPC90c3Bhbj48L3RzcGFuPjwvdGV4dD48L2c+PC9nPjxnIGlkPSJTdmdqc0cxNzU4IiB0cmFuc2Zvcm09InRyYW5zbGF0ZSgyMjUuMDk5OTkwODQ0NzI2NTYsMTg0Mi45OTk5NzcxMTE4MTY0KSI+PHBhdGggaWQ9IlN2Z2pzUGF0aDE3NTkiIGQ9Ik0gMCAwTCA3MjYuNDAwMDA5MTU1MjczNCAwTCA3NDIuNDAwMDA5MTU1MjczNCAxNkwgNzQyLjQwMDAwOTE1NTI3MzQgMzY1TCAwIDM2NUwgMCAwWiIgc3Ryb2tlPSJub25lIiBmaWxsLW9wYWNpdHk9IjEiIGZpbGw9IiNmZmZmYWEiLz48cGF0aCBpZD0iU3ZnanNQYXRoMTc2MCIgZD0iTSA3MjYuNDAwMDA5MTU1MjczNCAwTCA3MjYuNDAwMDA5MTU1MjczNCAxNkwgNzQyLjQwMDAwOTE1NTI3MzQgMTZaIiBzdHJva2U9Im5vbmUiIGZpbGwtb3BhY2l0eT0iMSIgZmlsbD0iI2NkY2RjZCIvPjxwYXRoIGlkPSJTdmdqc1BhdGgxNzYxIiBkPSJNIDAgMEwgNzI2LjQwMDAwOTE1NTI3MzQgMEwgNzQyLjQwMDAwOTE1NTI3MzQgMTZMIDc0Mi40MDAwMDkxNTUyNzM0IDM2NUwgMCAzNjVMIDAgMFoiIHN0cm9rZT0ibm9uZSIgZmlsbD0ibm9uZSIvPjxnIGlkPSJTdmdqc0cxNzYyIj48dGV4dCBpZD0iU3ZnanNUZXh0MTc2MyIgZm9udC1mYW1pbHk9IuW+rui9r+mbhem7kSIgdGV4dC1hbmNob3I9Im1pZGRsZSIgZm9udC1zaXplPSIxM3B4IiB3aWR0aD0iNzIzcHgiIGZpbGw9IiMzMjMyMzIiIGZvbnQtd2VpZ2h0PSI0MDAiIGFsaWduPSJtaWRkbGUiIGxpbmVoZWlnaHQ9IjEyNSUiIGFuY2hvcj0ibWlkZGxlIiBmYW1pbHk9IuW+rui9r+mbhem7kSIgc2l6ZT0iMTNweCIgd2VpZ2h0PSI0MDAiIGZvbnQtc3R5bGU9IiIgb3BhY2l0eT0iMSIgeT0iMTcxLjg3NSIgdHJhbnNmb3JtPSJyb3RhdGUoMCkiLz48L2c+PC9nPjxnIGlkPSJTdmdqc0cxNzY0IiB0cmFuc2Zvcm09InRyYW5zbGF0ZSgyNTQuNSwxODU0LjkwMDAwMTUyNTg3OSkiPjxwYXRoIGlkPSJTdmdqc1BhdGgxNzY1IiBkPSJNIDAgMzAuNUwgODUgMEwgMTcwIDMwLjVMIDg1IDYxWiIgc3Ryb2tlPSJyZ2JhKDUwLDUwLDUwLDEpIiBzdHJva2Utd2lkdGg9IjIiIGZpbGwtb3BhY2l0eT0iMSIgZmlsbD0iI2ZmYjc0ZCIvPjxnIGlkPSJTdmdqc0cxNzY2Ij48dGV4dCBpZD0iU3ZnanNUZXh0MTc2NyIgZm9udC1mYW1pbHk9IuW+rui9r+mbhem7kSIgdGV4dC1hbmNob3I9Im1pZGRsZSIgZm9udC1zaXplPSIxM3B4IiB3aWR0aD0iMTUwcHgiIGZpbGw9IiMzMjMyMzIiIGZvbnQtd2VpZ2h0PSI0MDAiIGFsaWduPSJtaWRkbGUiIGxpbmVoZWlnaHQ9IjEyNSUiIGFuY2hvcj0ibWlkZGxlIiBmYW1pbHk9IuW+rui9r+mbhem7kSIgc2l6ZT0iMTNweCIgd2VpZ2h0PSI0MDAiIGZvbnQtc3R5bGU9IiIgb3BhY2l0eT0iMSIgeT0iMjAuMTgiIHRyYW5zZm9ybT0icm90YXRlKDApIj48dHNwYW4gaWQ9IlN2Z2pzVHNwYW4xNzY4IiBkeT0iMTYiIHg9Ijg1Ij48dHNwYW4gaWQ9IlN2Z2pzVHNwYW4xNzY5IiBzdHlsZT0idGV4dC1kZWNvcmF0aW9uOjsiPuW9k+WJjee6v+eoi+aYr+WQpuS4um93bmVyPC90c3Bhbj48L3RzcGFuPjwvdGV4dD48L2c+PC9nPjxnIGlkPSJTdmdqc0cxNzcwIj48cGF0aCBpZD0iU3ZnanNQYXRoMTc3MSIgZD0iTTQyNS41IDE4ODUuNDAwMDAxNTI1ODc5TDQ1My4yNzQ5OTc3MTExODE2NCAxODg1LjQwMDAwMTUyNTg3OUw0NTMuMjc0OTk3NzExMTgxNjQgMTg4NS40MDAwMDE1MjU4NzlMNDc5Ljk0OTk5NTQyMjM2MzI2IDE4ODUuNDAwMDAxNTI1ODc5IiBzdHJva2U9IiMzMjMyMzIiIHN0cm9rZS13aWR0aD0iMiIgZmlsbD0ibm9uZSIgbWFya2VyLWVuZD0idXJsKCNTdmdqc01hcmtlcjE3NzIpIi8+PHJlY3QgaWQ9IlN2Z2pzUmVjdDE3NzQiIHdpZHRoPSIxMyIgaGVpZ2h0PSIxNiIgeD0iNDQ2LjIyNDk5NzcxMTE4MTYzIiB5PSIxODc3LjQwMDAwMTUyNTg3OSIgZmlsbD0iI2ZmZmZmZiIvPjx0ZXh0IGlkPSJTdmdqc1RleHQxNzc1IiBmb250LWZhbWlseT0i5b6u6L2v6ZuF6buRIiB0ZXh0LWFuY2hvcj0ibWlkZGxlIiBmb250LXNpemU9IjEzcHgiIHdpZHRoPSIxM3B4IiBmaWxsPSIjMzIzMjMyIiBmb250LXdlaWdodD0iNDAwIiBhbGlnbj0idG9wIiBsaW5laGVpZ2h0PSIxNnB4IiBhbmNob3I9Im1pZGRsZSIgZmFtaWx5PSLlvq7ova/pm4Xpu5EiIHNpemU9IjEzcHgiIHdlaWdodD0iNDAwIiBmb250LXN0eWxlPSIiIG9wYWNpdHk9IjEiIHk9IjE4NzQuNzc1MDAxNTI1ODc5IiB0cmFuc2Zvcm09InJvdGF0ZSgwKSI+PHRzcGFuIGlkPSJTdmdqc1RzcGFuMTc3NiIgZHk9IjE2IiB4PSI0NTIuNzI0OTk3NzExMTgxNjMiPjx0c3BhbiBpZD0iU3ZnanNUc3BhbjE3NzciIHN0eWxlPSJ0ZXh0LWRlY29yYXRpb246OyI+5ZCmPC90c3Bhbj48L3RzcGFuPjwvdGV4dD48L2c+PGcgaWQ9IlN2Z2pzRzE3NzgiIHRyYW5zZm9ybT0idHJhbnNsYXRlKDQ4My41NDk5OTU0MjIzNjMzLDE4NjMuNDAwMDAxNTI1ODc5KSI+PHBhdGggaWQ9IlN2Z2pzUGF0aDE3NzkiIGQ9Ik0gMCAwTCAxMDAgMEwgMTAwIDQ0TCAwIDQ0WiIgc3Ryb2tlPSJyZ2JhKDUwLDUwLDUwLDEpIiBzdHJva2Utd2lkdGg9IjIiIGZpbGwtb3BhY2l0eT0iMSIgZmlsbD0iIzAwYmNkNCIvPjxnIGlkPSJTdmdqc0cxNzgwIj48dGV4dCBpZD0iU3ZnanNUZXh0MTc4MSIgZm9udC1mYW1pbHk9IuW+rui9r+mbhem7kSIgdGV4dC1hbmNob3I9Im1pZGRsZSIgZm9udC1zaXplPSIxM3B4IiB3aWR0aD0iODBweCIgZmlsbD0iIzMyMzIzMiIgZm9udC13ZWlnaHQ9IjQwMCIgYWxpZ249Im1pZGRsZSIgbGluZWhlaWdodD0iMTI1JSIgYW5jaG9yPSJtaWRkbGUiIGZhbWlseT0i5b6u6L2v6ZuF6buRIiBzaXplPSIxM3B4IiB3ZWlnaHQ9IjQwMCIgZm9udC1zdHlsZT0iIiBvcGFjaXR5PSIxIiB5PSIxMS4zNzUiIHRyYW5zZm9ybT0icm90YXRlKDApIj48dHNwYW4gaWQ9IlN2Z2pzVHNwYW4xNzgyIiBkeT0iMTYiIHg9IjUwIj48dHNwYW4gaWQ9IlN2Z2pzVHNwYW4xNzgzIiBzdHlsZT0idGV4dC1kZWNvcmF0aW9uOjsiPuaKm+WHuuW8guW4uDwvdHNwYW4+PC90c3Bhbj48L3RleHQ+PC9nPjwvZz48ZyBpZD0iU3ZnanNHMTc4NCIgdHJhbnNmb3JtPSJ0cmFuc2xhdGUoMjYxLDE5ODMuOTk5OTc3MTExODE2NCkiPjxwYXRoIGlkPSJTdmdqc1BhdGgxNzg1IiBkPSJNIDAgMEwgMTU3IDBMIDE1NyA1M0wgMCA1M1oiIHN0cm9rZT0icmdiYSg1MCw1MCw1MCwxKSIgc3Ryb2tlLXdpZHRoPSIyIiBmaWxsLW9wYWNpdHk9IjEiIGZpbGw9IiNmZmZmZmYiLz48ZyBpZD0iU3ZnanNHMTc4NiI+PHRleHQgaWQ9IlN2Z2pzVGV4dDE3ODciIGZvbnQtZmFtaWx5PSLlvq7ova/pm4Xpu5EiIHRleHQtYW5jaG9yPSJtaWRkbGUiIGZvbnQtc2l6ZT0iMTNweCIgd2lkdGg9IjEzN3B4IiBmaWxsPSIjMzIzMjMyIiBmb250LXdlaWdodD0iNDAwIiBhbGlnbj0ibWlkZGxlIiBsaW5laGVpZ2h0PSIxMjUlIiBhbmNob3I9Im1pZGRsZSIgZmFtaWx5PSLlvq7ova/pm4Xpu5EiIHNpemU9IjEzcHgiIHdlaWdodD0iNDAwIiBmb250LXN0eWxlPSIiIG9wYWNpdHk9IjEiIHk9IjcuMzc1IiB0cmFuc2Zvcm09InJvdGF0ZSgwKSI+PHRzcGFuIGlkPSJTdmdqc1RzcGFuMTc4OCIgZHk9IjE2IiB4PSI3OC41Ij48dHNwYW4gaWQ9IlN2Z2pzVHNwYW4xNzg5IiBzdHlsZT0idGV4dC1kZWNvcmF0aW9uOjsiPuiOt+WPlndhaXRTZXTnrKzkuIDkuKroioI8L3RzcGFuPjwvdHNwYW4+PHRzcGFuIGlkPSJTdmdqc1RzcGFuMTc5MCIgZHk9IjE2IiB4PSI3OC41Ij48dHNwYW4gaWQ9IlN2Z2pzVHNwYW4xNzkxIiBzdHlsZT0idGV4dC1kZWNvcmF0aW9uOjsiPueCue+8jGRvU2lnbmFsKGZpcnN0KTwvdHNwYW4+PC90c3Bhbj48L3RleHQ+PC9nPjwvZz48ZyBpZD0iU3ZnanNHMTc5MiI+PHBhdGggaWQ9IlN2Z2pzUGF0aDE3OTMiIGQ9Ik0zMzkuNSAxOTE2LjkwMDAwMTUyNTg3OUwzMzkuNSAxOTQ5LjkwMDA4ODMxMDI0MTdMMzM5LjUgMTk0OS45MDAwODgzMTAyNDE3TDMzOS41IDE5ODAuMzk5OTc3MTExODE2NSIgc3Ryb2tlPSIjMzIzMjMyIiBzdHJva2Utd2lkdGg9IjIiIGZpbGw9Im5vbmUiIG1hcmtlci1lbmQ9InVybCgjU3ZnanNNYXJrZXIxNzk0KSIvPjxyZWN0IGlkPSJTdmdqc1JlY3QxNzk2IiB3aWR0aD0iMTMiIGhlaWdodD0iMTYiIHg9IjMzMyIgeT0iMTk0MC42NDk5ODkzMTg4NDc3IiBmaWxsPSIjZmZmZmZmIi8+PHRleHQgaWQ9IlN2Z2pzVGV4dDE3OTciIGZvbnQtZmFtaWx5PSLlvq7ova/pm4Xpu5EiIHRleHQtYW5jaG9yPSJtaWRkbGUiIGZvbnQtc2l6ZT0iMTNweCIgd2lkdGg9IjEzcHgiIGZpbGw9IiMzMjMyMzIiIGZvbnQtd2VpZ2h0PSI0MDAiIGFsaWduPSJ0b3AiIGxpbmVoZWlnaHQ9IjE2cHgiIGFuY2hvcj0ibWlkZGxlIiBmYW1pbHk9IuW+rui9r+mbhem7kSIgc2l6ZT0iMTNweCIgd2VpZ2h0PSI0MDAiIGZvbnQtc3R5bGU9IiIgb3BhY2l0eT0iMSIgeT0iMTkzOC4wMjQ5ODkzMTg4NDc3IiB0cmFuc2Zvcm09InJvdGF0ZSgwKSI+PHRzcGFuIGlkPSJTdmdqc1RzcGFuMTc5OCIgZHk9IjE2IiB4PSIzMzkuNSI+PHRzcGFuIGlkPSJTdmdqc1RzcGFuMTc5OSIgc3R5bGU9InRleHQtZGVjb3JhdGlvbjo7Ij7mmK88L3RzcGFuPjwvdHNwYW4+PC90ZXh0PjwvZz48ZyBpZD0iU3ZnanNHMTgwMCIgdHJhbnNmb3JtPSJ0cmFuc2xhdGUoNDYzLjg3NSwxOTI4LjkwMDAwMTUyNTg3OSkiPjxwYXRoIGlkPSJTdmdqc1BhdGgxODAxIiBkPSJNIDAgNFEgMCAwIDQgMEwgMjA1Ljc5OTk5NTQyMjM2MzI4IDBRIDIwOS43OTk5OTU0MjIzNjMyOCAwIDIwOS43OTk5OTU0MjIzNjMyOCA0TCAyMDkuNzk5OTk1NDIyMzYzMjggMjU3USAyMDkuNzk5OTk1NDIyMzYzMjggMjYxIDIwNS43OTk5OTU0MjIzNjMyOCAyNjFMIDQgMjYxUSAwIDI2MSAwIDI1N1oiIHN0cm9rZT0icmdiYSg1MCw1MCw1MCwxKSIgc3Ryb2tlLXdpZHRoPSIyIiBmaWxsLW9wYWNpdHk9IjEiIGZpbGw9IiMyMTk2ZjMiLz48ZyBpZD0iU3ZnanNHMTgwMiI+PHRleHQgaWQ9IlN2Z2pzVGV4dDE4MDMiIGZvbnQtZmFtaWx5PSLlvq7ova/pm4Xpu5EiIHRleHQtYW5jaG9yPSJtaWRkbGUiIGZvbnQtc2l6ZT0iMTNweCIgd2lkdGg9IjE5MHB4IiBmaWxsPSIjMzIzMjMyIiBmb250LXdlaWdodD0iNDAwIiBhbGlnbj0ibWlkZGxlIiBsaW5laGVpZ2h0PSIxMjUlIiBhbmNob3I9Im1pZGRsZSIgZmFtaWx5PSLlvq7ova/pm4Xpu5EiIHNpemU9IjEzcHgiIHdlaWdodD0iNDAwIiBmb250LXN0eWxlPSIiIG9wYWNpdHk9IjEiIHk9IjExOS44NzUiIHRyYW5zZm9ybT0icm90YXRlKDApIi8+PC9nPjwvZz48ZyBpZD0iU3ZnanNHMTgwNCIgdHJhbnNmb3JtPSJ0cmFuc2xhdGUoNDk4LjkwMDAwOTE1NTI3MzQ0LDE5NDIuNDAwMDAxNTI1ODc5KSI+PHBhdGggaWQ9IlN2Z2pzUGF0aDE4MDUiIGQ9Ik0gMCAwTCAxNDggMEwgMTQ4IDQ0TCAwIDQ0WiIgc3Ryb2tlPSJyZ2JhKDUwLDUwLDUwLDEpIiBzdHJva2Utd2lkdGg9IjIiIGZpbGwtb3BhY2l0eT0iMSIgZmlsbD0iI2ZmZmZmZiIvPjxnIGlkPSJTdmdqc0cxODA2Ij48dGV4dCBpZD0iU3ZnanNUZXh0MTgwNyIgZm9udC1mYW1pbHk9IuW+rui9r+mbhem7kSIgdGV4dC1hbmNob3I9Im1pZGRsZSIgZm9udC1zaXplPSIxM3B4IiB3aWR0aD0iMTI4cHgiIGZpbGw9IiMzMjMyMzIiIGZvbnQtd2VpZ2h0PSI0MDAiIGFsaWduPSJtaWRkbGUiIGxpbmVoZWlnaHQ9IjEyNSUiIGFuY2hvcj0ibWlkZGxlIiBmYW1pbHk9IuW+rui9r+mbhem7kSIgc2l6ZT0iMTNweCIgd2VpZ2h0PSI0MDAiIGZvbnQtc3R5bGU9IiIgb3BhY2l0eT0iMSIgeT0iMi44NzUiIHRyYW5zZm9ybT0icm90YXRlKDApIj48dHNwYW4gaWQ9IlN2Z2pzVHNwYW4xODA4IiBkeT0iMTYiIHg9Ijc0Ij48dHNwYW4gaWQ9IlN2Z2pzVHNwYW4xODA5IiBzdHlsZT0idGV4dC1kZWNvcmF0aW9uOjsiPndhaXRTZXTkuK3lj5blh7rlubbmlq3lvIA8L3RzcGFuPjwvdHNwYW4+PHRzcGFuIGlkPSJTdmdqc1RzcGFuMTgxMCIgZHk9IjE2IiB4PSI3NCI+PHRzcGFuIGlkPSJTdmdqc1RzcGFuMTgxMSIgc3R5bGU9InRleHQtZGVjb3JhdGlvbjo7Ij7nrKzkuIDkuKroioLngrlmaXJzdDwvdHNwYW4+PC90c3Bhbj48L3RleHQ+PC9nPjwvZz48ZyBpZD0iU3ZnanNHMTgxMiI+PHBhdGggaWQ9IlN2Z2pzUGF0aDE4MTMiIGQ9Ik01NzIuNSAxOTg3LjQwMDAwMTUyNTg3OUw1NzIuNSAxOTk2LjY1MDA5OTc1NDMzMzVMNTcyLjkwMDAwOTE1NTI3MzQgMTk5Ni42NTAwOTk3NTQzMzM1TDU3Mi45MDAwMDkxNTUyNzM0IDIwMDMuMzAwMTk3OTgyNzg4MiIgc3Ryb2tlPSIjMzIzMjMyIiBzdHJva2Utd2lkdGg9IjIiIGZpbGw9Im5vbmUiIG1hcmtlci1lbmQ9InVybCgjU3ZnanNNYXJrZXIxODE0KSIvPjwvZz48ZyBpZD0iU3ZnanNHMTgxNiIgdHJhbnNmb3JtPSJ0cmFuc2xhdGUoNDkxLjE1MDAwOTE1NTI3MzQ0LDIwMDYuOTAwMTk3OTgyNzg4KSI+PHBhdGggaWQ9IlN2Z2pzUGF0aDE4MTciIGQ9Ik0gMCAwTCAxNjMuNSAwTCAxNjMuNSA0NEwgMCA0NFoiIHN0cm9rZT0icmdiYSg1MCw1MCw1MCwxKSIgc3Ryb2tlLXdpZHRoPSIyIiBmaWxsLW9wYWNpdHk9IjEiIGZpbGw9IiNmZmZmZmYiLz48ZyBpZD0iU3ZnanNHMTgxOCI+PHRleHQgaWQ9IlN2Z2pzVGV4dDE4MTkiIGZvbnQtZmFtaWx5PSLlvq7ova/pm4Xpu5EiIHRleHQtYW5jaG9yPSJtaWRkbGUiIGZvbnQtc2l6ZT0iMTNweCIgd2lkdGg9IjE0NHB4IiBmaWxsPSIjMzIzMjMyIiBmb250LXdlaWdodD0iNDAwIiBhbGlnbj0ibWlkZGxlIiBsaW5laGVpZ2h0PSIxMjUlIiBhbmNob3I9Im1pZGRsZSIgZmFtaWx5PSLlvq7ova/pm4Xpu5EiIHNpemU9IjEzcHgiIHdlaWdodD0iNDAwIiBmb250LXN0eWxlPSIiIG9wYWNpdHk9IjEiIHk9IjIuODc1IiB0cmFuc2Zvcm09InJvdGF0ZSgwKSI+PHRzcGFuIGlkPSJTdmdqc1RzcGFuMTgyMCIgZHk9IjE2IiB4PSI4MiI+PHRzcGFuIGlkPSJTdmdqc1RzcGFuMTgyMSIgc3R5bGU9InRleHQtZGVjb3JhdGlvbjo7Ij7osIPnlKg8L3RzcGFuPjwvdHNwYW4+PHRzcGFuIGlkPSJTdmdqc1RzcGFuMTgyMiIgZHk9IjE2IiB4PSI4MiI+PHRzcGFuIGlkPSJTdmdqc1RzcGFuMTgyMyIgc3R5bGU9InRleHQtZGVjb3JhdGlvbjo7Ij50cmFuc2ZlckZvclNpZ25hbChmaXJzdCk8L3RzcGFuPjwvdHNwYW4+PC90ZXh0PjwvZz48L2c+PGcgaWQ9IlN2Z2pzRzE4MjQiIHRyYW5zZm9ybT0idHJhbnNsYXRlKDQ4Ny41LDIwNzUuOTAwMzk2MzQ3MDQ2KSI+PHBhdGggaWQ9IlN2Z2pzUGF0aDE4MjUiIGQ9Ik0gMCAyNi41TCA4NSAwTCAxNzAgMjYuNUwgODUgNTNaIiBzdHJva2U9InJnYmEoNTAsNTAsNTAsMSkiIHN0cm9rZS13aWR0aD0iMiIgZmlsbC1vcGFjaXR5PSIxIiBmaWxsPSIjZmZiNzRkIi8+PGcgaWQ9IlN2Z2pzRzE4MjYiPjx0ZXh0IGlkPSJTdmdqc1RleHQxODI3IiBmb250LWZhbWlseT0i5b6u6L2v6ZuF6buRIiB0ZXh0LWFuY2hvcj0ibWlkZGxlIiBmb250LXNpemU9IjEzcHgiIHdpZHRoPSIxNTBweCIgZmlsbD0iIzMyMzIzMiIgZm9udC13ZWlnaHQ9IjQwMCIgYWxpZ249Im1pZGRsZSIgbGluZWhlaWdodD0iMTI1JSIgYW5jaG9yPSJtaWRkbGUiIGZhbWlseT0i5b6u6L2v6ZuF6buRIiBzaXplPSIxM3B4IiB3ZWlnaHQ9IjQwMCIgZm9udC1zdHlsZT0iIiBvcGFjaXR5PSIxIiB5PSI3LjY0MDAwMDAwMDAwMDAwMSIgdHJhbnNmb3JtPSJyb3RhdGUoMCkiPjx0c3BhbiBpZD0iU3ZnanNUc3BhbjE4MjgiIGR5PSIxNiIgeD0iODUiPjx0c3BhbiBpZD0iU3ZnanNUc3BhbjE4MjkiIHN0eWxlPSJ0ZXh0LWRlY29yYXRpb246OyI+6L+U5Zue5YC85oiQ5Yqf6L2s56e75Yiw5ZCM5q2l6ZifPC90c3Bhbj48L3RzcGFuPjx0c3BhbiBpZD0iU3ZnanNUc3BhbjE4MzAiIGR5PSIxNiIgeD0iODUiPjx0c3BhbiBpZD0iU3ZnanNUc3BhbjE4MzEiIHN0eWxlPSJ0ZXh0LWRlY29yYXRpb246OyI+5YiX77yfPC90c3Bhbj48L3RzcGFuPjwvdGV4dD48L2c+PC9nPjxnIGlkPSJTdmdqc0cxODMyIj48cGF0aCBpZD0iU3ZnanNQYXRoMTgzMyIgZD0iTTU3Mi45MDAwMDkxNTUyNzM0IDIwNTEuOTAwMTk3OTgyNzg4TDU3Mi45MDAwMDkxNTUyNzM0IDIwNjMuNDAwMjk3MTY0OTE3TDU3Mi41IDIwNjMuNDAwMjk3MTY0OTE3TDU3Mi41IDIwNzIuMzAwMzk2MzQ3MDQ2IiBzdHJva2U9IiMzMjMyMzIiIHN0cm9rZS13aWR0aD0iMiIgZmlsbD0ibm9uZSIgbWFya2VyLWVuZD0idXJsKCNTdmdqc01hcmtlcjE4MzQpIi8+PC9nPjxnIGlkPSJTdmdqc0cxODM2Ij48cGF0aCBpZD0iU3ZnanNQYXRoMTgzNyIgZD0iTTQ4Ni41IDIxMDIuNDAwMzk2MzQ3MDQ2TDQ3Mi40NTAwMDQ1Nzc2MzY3IDIxMDIuNDAwMzk2MzQ3MDQ2TDQ3Mi40NTAwMDQ1Nzc2MzY3IDE5NjQuNDAwMDAxNTI1ODc5TDQ5NS4zMDAwMDkxNTUyNzM0IDE5NjQuNDAwMDAxNTI1ODc5IiBzdHJva2U9IiMzMjMyMzIiIHN0cm9rZS13aWR0aD0iMiIgZmlsbD0ibm9uZSIgbWFya2VyLWVuZD0idXJsKCNTdmdqc01hcmtlcjE4MzgpIi8+PHJlY3QgaWQ9IlN2Z2pzUmVjdDE4NDAiIHdpZHRoPSIxMyIgaGVpZ2h0PSIxNiIgeD0iNDY1Ljk1MDAwNDU3NzYzNjciIHk9IjIwMjEuMDAwMTk0MzU4ODI1NiIgZmlsbD0iI2ZmZmZmZiIvPjx0ZXh0IGlkPSJTdmdqc1RleHQxODQxIiBmb250LWZhbWlseT0i5b6u6L2v6ZuF6buRIiB0ZXh0LWFuY2hvcj0ibWlkZGxlIiBmb250LXNpemU9IjEzcHgiIHdpZHRoPSIxM3B4IiBmaWxsPSIjMzIzMjMyIiBmb250LXdlaWdodD0iNDAwIiBhbGlnbj0idG9wIiBsaW5laGVpZ2h0PSIxNnB4IiBhbmNob3I9Im1pZGRsZSIgZmFtaWx5PSLlvq7ova/pm4Xpu5EiIHNpemU9IjEzcHgiIHdlaWdodD0iNDAwIiBmb250LXN0eWxlPSIiIG9wYWNpdHk9IjEiIHk9IjIwMTguMzc1MTk0MzU4ODI1NiIgdHJhbnNmb3JtPSJyb3RhdGUoMCkiPjx0c3BhbiBpZD0iU3ZnanNUc3BhbjE4NDIiIGR5PSIxNiIgeD0iNDcyLjQ1MDAwNDU3NzYzNjciPjx0c3BhbiBpZD0iU3ZnanNUc3BhbjE4NDMiIHN0eWxlPSJ0ZXh0LWRlY29yYXRpb246OyI+5ZCmPC90c3Bhbj48L3RzcGFuPjwvdGV4dD48L2c+PGcgaWQ9IlN2Z2pzRzE4NDQiIHRyYW5zZm9ybT0idHJhbnNsYXRlKDUzMy41LDIxNDAuOTAwMDAxNTI1ODc5KSI+PHBhdGggaWQ9IlN2Z2pzUGF0aDE4NDUiIGQ9Ik0gMCAwTCA3OCAwTCA3OCAzOEwgMCAzOFoiIHN0cm9rZT0icmdiYSg1MCw1MCw1MCwxKSIgc3Ryb2tlLXdpZHRoPSIyIiBmaWxsLW9wYWNpdHk9IjEiIGZpbGw9IiNmZmZmZmYiLz48ZyBpZD0iU3ZnanNHMTg0NiI+PHRleHQgaWQ9IlN2Z2pzVGV4dDE4NDciIGZvbnQtZmFtaWx5PSLlvq7ova/pm4Xpu5EiIHRleHQtYW5jaG9yPSJtaWRkbGUiIGZvbnQtc2l6ZT0iMTNweCIgd2lkdGg9IjU4cHgiIGZpbGw9IiMzMjMyMzIiIGZvbnQtd2VpZ2h0PSI0MDAiIGFsaWduPSJtaWRkbGUiIGxpbmVoZWlnaHQ9IjEyNSUiIGFuY2hvcj0ibWlkZGxlIiBmYW1pbHk9IuW+rui9r+mbhem7kSIgc2l6ZT0iMTNweCIgd2VpZ2h0PSI0MDAiIGZvbnQtc3R5bGU9IiIgb3BhY2l0eT0iMSIgeT0iOC4zNzUiIHRyYW5zZm9ybT0icm90YXRlKDApIj48dHNwYW4gaWQ9IlN2Z2pzVHNwYW4xODQ4IiBkeT0iMTYiIHg9IjM5Ij48dHNwYW4gaWQ9IlN2Z2pzVHNwYW4xODQ5IiBzdHlsZT0idGV4dC1kZWNvcmF0aW9uOjsiPui/lOWbnjwvdHNwYW4+PC90c3Bhbj48L3RleHQ+PC9nPjwvZz48ZyBpZD0iU3ZnanNHMTg1MCI+PHBhdGggaWQ9IlN2Z2pzUGF0aDE4NTEiIGQ9Ik00MTkgMjAxMC43NDk5MjAzNjgxOTQ2TDQ0MC4yNSAyMDEwLjc0OTkyMDM2ODE5NDZMNDQwLjI1IDIwMTAuNzQ5OTIwMzY4MTk0Nkw0NjAuMjc1IDIwMTAuNzQ5OTIwMzY4MTk0NiIgc3Ryb2tlLWRhc2hhcnJheT0iMywzIiBzdHJva2U9IiMzMjMyMzIiIHN0cm9rZS13aWR0aD0iMiIgZmlsbD0ibm9uZSIgbWFya2VyLWVuZD0idXJsKCNTdmdqc01hcmtlcjE4NTIpIi8+PC9nPjxnIGlkPSJTdmdqc0cxODU0IiB0cmFuc2Zvcm09InRyYW5zbGF0ZSg3MDUuODEyNSwxOTI4LjkwMDAwMTUyNTg3OSkiPjxwYXRoIGlkPSJTdmdqc1BhdGgxODU1IiBkPSJNIDAgNFEgMCAwIDQgMEwgMjQwIDBRIDI0NCAwIDI0NCA0TCAyNDQgMjU3USAyNDQgMjYxIDI0MCAyNjFMIDQgMjYxUSAwIDI2MSAwIDI1N1oiIHN0cm9rZT0icmdiYSg1MCw1MCw1MCwxKSIgc3Ryb2tlLXdpZHRoPSIyIiBmaWxsLW9wYWNpdHk9IjEiIGZpbGw9IiMyMTk2ZjMiLz48ZyBpZD0iU3ZnanNHMTg1NiI+PHRleHQgaWQ9IlN2Z2pzVGV4dDE4NTciIGZvbnQtZmFtaWx5PSLlvq7ova/pm4Xpu5EiIHRleHQtYW5jaG9yPSJtaWRkbGUiIGZvbnQtc2l6ZT0iMTNweCIgd2lkdGg9IjIyNHB4IiBmaWxsPSIjMzIzMjMyIiBmb250LXdlaWdodD0iNDAwIiBhbGlnbj0ibWlkZGxlIiBsaW5laGVpZ2h0PSIxMjUlIiBhbmNob3I9Im1pZGRsZSIgZmFtaWx5PSLlvq7ova/pm4Xpu5EiIHNpemU9IjEzcHgiIHdlaWdodD0iNDAwIiBmb250LXN0eWxlPSIiIG9wYWNpdHk9IjEiIHk9IjExOS44NzUiIHRyYW5zZm9ybT0icm90YXRlKDApIi8+PC9nPjwvZz48ZyBpZD0iU3ZnanNHMTg1OCIgdHJhbnNmb3JtPSJ0cmFuc2xhdGUoNzE4LDE5NDIuNDAwMDAxNTI1ODc5KSI+PHBhdGggaWQ9IlN2Z2pzUGF0aDE4NTkiIGQ9Ik0gMCAwTCAxMTcgMEwgMTE3IDQ0TCAwIDQ0WiIgc3Ryb2tlPSJyZ2JhKDUwLDUwLDUwLDEpIiBzdHJva2Utd2lkdGg9IjIiIGZpbGwtb3BhY2l0eT0iMSIgZmlsbD0iI2ZmZmZmZiIvPjxnIGlkPSJTdmdqc0cxODYwIj48dGV4dCBpZD0iU3ZnanNUZXh0MTg2MSIgZm9udC1mYW1pbHk9IuW+rui9r+mbhem7kSIgdGV4dC1hbmNob3I9Im1pZGRsZSIgZm9udC1zaXplPSIxM3B4IiB3aWR0aD0iOTdweCIgZmlsbD0iIzMyMzIzMiIgZm9udC13ZWlnaHQ9IjQwMCIgYWxpZ249Im1pZGRsZSIgbGluZWhlaWdodD0iMTI1JSIgYW5jaG9yPSJtaWRkbGUiIGZhbWlseT0i5b6u6L2v6ZuF6buRIiBzaXplPSIxM3B4IiB3ZWlnaHQ9IjQwMCIgZm9udC1zdHlsZT0iIiBvcGFjaXR5PSIxIiB5PSIyLjg3NSIgdHJhbnNmb3JtPSJyb3RhdGUoMCkiPjx0c3BhbiBpZD0iU3ZnanNUc3BhbjE4NjIiIGR5PSIxNiIgeD0iNTguNSI+PHRzcGFuIGlkPSJTdmdqc1RzcGFuMTg2MyIgc3R5bGU9InRleHQtZGVjb3JhdGlvbjo7Ij5jYXMod2FpdFN0YXRlLCA8L3RzcGFuPjwvdHNwYW4+PHRzcGFuIGlkPSJTdmdqc1RzcGFuMTg2NCIgZHk9IjE2IiB4PSI1OC41Ij48dHNwYW4gaWQ9IlN2Z2pzVHNwYW4xODY1IiBzdHlsZT0idGV4dC1kZWNvcmF0aW9uOjsiPkNPTkRJVElPTiwgMCk8L3RzcGFuPjwvdHNwYW4+PC90ZXh0PjwvZz48L2c+PGcgaWQ9IlN2Z2pzRzE4NjYiIHRyYW5zZm9ybT0idHJhbnNsYXRlKDg2Mi41LDE5NzYuOTk5OTc3MTExODE2NCkiPjxwYXRoIGlkPSJTdmdqc1BhdGgxODY3IiBkPSJNIDAgMEwgNzggMEwgNzggMzhMIDAgMzhaIiBzdHJva2U9InJnYmEoNTAsNTAsNTAsMSkiIHN0cm9rZS13aWR0aD0iMiIgZmlsbC1vcGFjaXR5PSIxIiBmaWxsPSIjZmZmZmZmIi8+PGcgaWQ9IlN2Z2pzRzE4NjgiPjx0ZXh0IGlkPSJTdmdqc1RleHQxODY5IiBmb250LWZhbWlseT0i5b6u6L2v6ZuF6buRIiB0ZXh0LWFuY2hvcj0ibWlkZGxlIiBmb250LXNpemU9IjEzcHgiIHdpZHRoPSI1OHB4IiBmaWxsPSIjMzIzMjMyIiBmb250LXdlaWdodD0iNDAwIiBhbGlnbj0ibWlkZGxlIiBsaW5laGVpZ2h0PSIxMjUlIiBhbmNob3I9Im1pZGRsZSIgZmFtaWx5PSLlvq7ova/pm4Xpu5EiIHNpemU9IjEzcHgiIHdlaWdodD0iNDAwIiBmb250LXN0eWxlPSIiIG9wYWNpdHk9IjEiIHk9IjguMzc1IiB0cmFuc2Zvcm09InJvdGF0ZSgwKSI+PHRzcGFuIGlkPSJTdmdqc1RzcGFuMTg3MCIgZHk9IjE2IiB4PSIzOSI+PHRzcGFuIGlkPSJTdmdqc1RzcGFuMTg3MSIgc3R5bGU9InRleHQtZGVjb3JhdGlvbjo7Ij7ov5Tlm55mYWxzZTwvdHNwYW4+PC90c3Bhbj48L3RleHQ+PC9nPjwvZz48ZyBpZD0iU3ZnanNHMTg3MiI+PHBhdGggaWQ9IlN2Z2pzUGF0aDE4NzMiIGQ9Ik04MzYgMTk2NC40MDAwMDE1MjU4NzlMOTAxLjUgMTk2NC40MDAwMDE1MjU4NzlMOTAxLjUgMTk3My4zOTk5NzcxMTE4MTY1IiBzdHJva2U9IiMzMjMyMzIiIHN0cm9rZS13aWR0aD0iMiIgZmlsbD0ibm9uZSIgbWFya2VyLWVuZD0idXJsKCNTdmdqc01hcmtlcjE4NzQpIi8+PHJlY3QgaWQ9IlN2Z2pzUmVjdDE4NzYiIHdpZHRoPSIyNiIgaGVpZ2h0PSIxNiIgeD0iODYwLjI0OTk4Nzc5Mjk2ODgiIHk9IjE5NTYuNDAwMDAxNTI1ODc5IiBmaWxsPSIjZmZmZmZmIi8+PHRleHQgaWQ9IlN2Z2pzVGV4dDE4NzciIGZvbnQtZmFtaWx5PSLlvq7ova/pm4Xpu5EiIHRleHQtYW5jaG9yPSJtaWRkbGUiIGZvbnQtc2l6ZT0iMTNweCIgd2lkdGg9IjI2cHgiIGZpbGw9IiMzMjMyMzIiIGZvbnQtd2VpZ2h0PSI0MDAiIGFsaWduPSJ0b3AiIGxpbmVoZWlnaHQ9IjE2cHgiIGFuY2hvcj0ibWlkZGxlIiBmYW1pbHk9IuW+rui9r+mbhem7kSIgc2l6ZT0iMTNweCIgd2VpZ2h0PSI0MDAiIGZvbnQtc3R5bGU9IiIgb3BhY2l0eT0iMSIgeT0iMTk1My43NzUwMDE1MjU4NzkiIHRyYW5zZm9ybT0icm90YXRlKDApIj48dHNwYW4gaWQ9IlN2Z2pzVHNwYW4xODc4IiBkeT0iMTYiIHg9Ijg3My4yNDk5ODc3OTI5Njg4Ij48dHNwYW4gaWQ9IlN2Z2pzVHNwYW4xODc5IiBzdHlsZT0idGV4dC1kZWNvcmF0aW9uOjsiPuWksei0pTwvdHNwYW4+PC90c3Bhbj48L3RleHQ+PC9nPjxnIGlkPSJTdmdqc0cxODgwIiB0cmFuc2Zvcm09InRyYW5zbGF0ZSg5NTguNDc0OTkwODQ0NzI2NiwxODUxLjUwMDE3MzU2ODcyNTYpIj48cGF0aCBpZD0iU3ZnanNQYXRoMTg4MSIgZD0iTSAwIDBMIDEyOS4xMjUgMEwgMTI5LjEyNSAxNTcuNDk5ODAzNTQzMDkwODJMIDAgMTU3LjQ5OTgwMzU0MzA5MDgyWiIgc3Ryb2tlPSJub25lIiBmaWxsPSJub25lIi8+PGcgaWQ9IlN2Z2pzRzE4ODIiPjx0ZXh0IGlkPSJTdmdqc1RleHQxODgzIiBmb250LWZhbWlseT0i5b6u6L2v6ZuF6buRIiB0ZXh0LWFuY2hvcj0ic3RhcnQiIGZvbnQtc2l6ZT0iMTNweCIgd2lkdGg9IjEzMHB4IiBmaWxsPSIjN2IxZmEyIiBmb250LXdlaWdodD0iNDAwIiBhbGlnbj0ibWlkZGxlIiBsaW5laGVpZ2h0PSIxMjUlIiBhbmNob3I9InN0YXJ0IiBmYW1pbHk9IuW+rui9r+mbhem7kSIgc2l6ZT0iMTNweCIgd2VpZ2h0PSI0MDAiIGZvbnQtc3R5bGU9IiIgb3BhY2l0eT0iMSIgeT0iMy4xMjQ5MDE3NzE1NDU0MSIgdHJhbnNmb3JtPSJyb3RhdGUoMCkiPjx0c3BhbiBpZD0iU3ZnanNUc3BhbjE4ODQiIGR5PSIxNiIgeD0iMCI+PHRzcGFuIGlkPSJTdmdqc1RzcGFuMTg4NSIgc3R5bGU9InRleHQtZGVjb3JhdGlvbjo7Ij7ikaDor6XoioLngrnnirbmgIHkuI3kuLo8L3RzcGFuPjwvdHNwYW4+PHRzcGFuIGlkPSJTdmdqc1RzcGFuMTg4NiIgZHk9IjE2IiB4PSIwIj48dHNwYW4gaWQ9IlN2Z2pzVHNwYW4xODg3IiBzdHlsZT0idGV4dC1kZWNvcmF0aW9uOjsiPkNPTkRJVElPTu+8jOivtOaYjuiiqzwvdHNwYW4+PC90c3Bhbj48dHNwYW4gaWQ9IlN2Z2pzVHNwYW4xODg4IiBkeT0iMTYiIHg9IjAiPjx0c3BhbiBpZD0iU3ZnanNUc3BhbjE4ODkiIHN0eWxlPSJ0ZXh0LWRlY29yYXRpb246OyI+5Y+W5raI77yM5Zug6ICM5rKh5b+F6KaB5YaN6L2sPC90c3Bhbj48L3RzcGFuPjx0c3BhbiBpZD0iU3ZnanNUc3BhbjE4OTAiIGR5PSIxNiIgeD0iMCI+PHRzcGFuIGlkPSJTdmdqc1RzcGFuMTg5MSIgc3R5bGU9InRleHQtZGVjb3JhdGlvbjo7Ij7np7vliLDlkIzmraXpmJ/liJc8L3RzcGFuPjwvdHNwYW4+PHRzcGFuIGlkPSJTdmdqc1RzcGFuMTg5MiIgZHk9IjE2IiB4PSIwIj48dHNwYW4gaWQ9IlN2Z2pzVHNwYW4xODkzIiBzdHlsZT0idGV4dC1kZWNvcmF0aW9uOjsiPuKRoeWPr+iDveaYr+S4pOS4que6v+eoi+WQjOaXtjwvdHNwYW4+PC90c3Bhbj48dHNwYW4gaWQ9IlN2Z2pzVHNwYW4xODk0IiBkeT0iMTYiIHg9IjAiPjx0c3BhbiBpZD0iU3ZnanNUc3BhbjE4OTUiIHN0eWxlPSJ0ZXh0LWRlY29yYXRpb246OyI+c2lnbmFs77yM5Y+W5Yiw5LqG5ZCM5LiA5LiqPC90c3Bhbj48L3RzcGFuPjx0c3BhbiBpZD0iU3ZnanNUc3BhbjE4OTYiIGR5PSIxNiIgeD0iMCI+PHRzcGFuIGlkPSJTdmdqc1RzcGFuMTg5NyIgc3R5bGU9InRleHQtZGVjb3JhdGlvbjo7Ij7lpLTnu5PngrnvvIxjYXPlpLHotKXnmoTpgqM8L3RzcGFuPjwvdHNwYW4+PHRzcGFuIGlkPSJTdmdqc1RzcGFuMTg5OCIgZHk9IjE2IiB4PSIwIj48dHNwYW4gaWQ9IlN2Z2pzVHNwYW4xODk5IiBzdHlsZT0idGV4dC1kZWNvcmF0aW9uOjsiPuS4gOaWuee7p+e7reWPluS4i+S4gOS4quiKgueCuTwvdHNwYW4+PC90c3Bhbj48dHNwYW4gaWQ9IlN2Z2pzVHNwYW4xOTAwIiBkeT0iMTYiIHg9IjAiPjx0c3BhbiBpZD0iU3ZnanNUc3BhbjE5MDEiIHN0eWxlPSJ0ZXh0LWRlY29yYXRpb246OyI+6L2s56e75Yiw5ZCM5q2l6Zif5YiXPC90c3Bhbj48L3RzcGFuPjwvdGV4dD48L2c+PC9nPjxnIGlkPSJTdmdqc0cxOTAyIj48cGF0aCBpZD0iU3ZnanNQYXRoMTkwMyIgZD0iTTc3Ni41IDE5ODcuNDAwMDAxNTI1ODc5TDc3Ni41IDIwMDEuMjAwMDg3NTQ3MzAyMkw3NzYuNSAyMDAxLjIwMDA4NzU0NzMwMjJMNzc2LjUgMjAxNC44MDAxOTc5ODI3ODgyIiBzdHJva2U9IiMxOTc2ZDIiIHN0cm9rZS13aWR0aD0iMiIgZmlsbD0ibm9uZSIgbWFya2VyLWVuZD0idXJsKCNTdmdqc01hcmtlcjE5MDQpIi8+PHJlY3QgaWQ9IlN2Z2pzUmVjdDE5MDYiIHdpZHRoPSIyNiIgaGVpZ2h0PSIxNiIgeD0iNzYzLjUiIHk9IjE5OTMuMTAwMDk5NzU0MzMzOCIgZmlsbD0iI2ZmZmZmZiIvPjx0ZXh0IGlkPSJTdmdqc1RleHQxOTA3IiBmb250LWZhbWlseT0i5b6u6L2v6ZuF6buRIiB0ZXh0LWFuY2hvcj0ibWlkZGxlIiBmb250LXNpemU9IjEzcHgiIHdpZHRoPSIyNnB4IiBmaWxsPSIjMzIzMjMyIiBmb250LXdlaWdodD0iNDAwIiBhbGlnbj0idG9wIiBsaW5laGVpZ2h0PSIxNnB4IiBhbmNob3I9Im1pZGRsZSIgZmFtaWx5PSLlvq7ova/pm4Xpu5EiIHNpemU9IjEzcHgiIHdlaWdodD0iNDAwIiBmb250LXN0eWxlPSIiIG9wYWNpdHk9IjEiIHk9IjE5OTAuNDc1MDk5NzU0MzMzOCIgdHJhbnNmb3JtPSJyb3RhdGUoMCkiPjx0c3BhbiBpZD0iU3ZnanNUc3BhbjE5MDgiIGR5PSIxNiIgeD0iNzc2LjUiPjx0c3BhbiBpZD0iU3ZnanNUc3BhbjE5MDkiIHN0eWxlPSJ0ZXh0LWRlY29yYXRpb246OyI+5oiQ5YqfPC90c3Bhbj48L3RzcGFuPjwvdGV4dD48L2c+PGcgaWQ9IlN2Z2pzRzE5MTAiIHRyYW5zZm9ybT0idHJhbnNsYXRlKDcxOCwyMDE4LjQwMDE5Nzk4Mjc4OCkiPjxwYXRoIGlkPSJTdmdqc1BhdGgxOTExIiBkPSJNIDAgMEwgMTE3IDBMIDExNyA0NEwgMCA0NFoiIHN0cm9rZT0icmdiYSg1MCw1MCw1MCwxKSIgc3Ryb2tlLXdpZHRoPSIyIiBmaWxsLW9wYWNpdHk9IjEiIGZpbGw9IiNmZmZmZmYiLz48ZyBpZD0iU3ZnanNHMTkxMiI+PHRleHQgaWQ9IlN2Z2pzVGV4dDE5MTMiIGZvbnQtZmFtaWx5PSLlvq7ova/pm4Xpu5EiIHRleHQtYW5jaG9yPSJtaWRkbGUiIGZvbnQtc2l6ZT0iMTNweCIgd2lkdGg9Ijk3cHgiIGZpbGw9IiMzMjMyMzIiIGZvbnQtd2VpZ2h0PSI0MDAiIGFsaWduPSJtaWRkbGUiIGxpbmVoZWlnaHQ9IjEyNSUiIGFuY2hvcj0ibWlkZGxlIiBmYW1pbHk9IuW+rui9r+mbhem7kSIgc2l6ZT0iMTNweCIgd2VpZ2h0PSI0MDAiIGZvbnQtc3R5bGU9IiIgb3BhY2l0eT0iMSIgeT0iMi44NzUiIHRyYW5zZm9ybT0icm90YXRlKDApIj48dHNwYW4gaWQ9IlN2Z2pzVHNwYW4xOTE0IiBkeT0iMTYiIHg9IjU4LjUiPjx0c3BhbiBpZD0iU3ZnanNUc3BhbjE5MTUiIHN0eWxlPSJ0ZXh0LWRlY29yYXRpb246OyI+6LCD55SoZW5xKCnlh73mlbA8L3RzcGFuPjwvdHNwYW4+PHRzcGFuIGlkPSJTdmdqc1RzcGFuMTkxNiIgZHk9IjE2IiB4PSI1OC41Ij48dHNwYW4gaWQ9IlN2Z2pzVHNwYW4xOTE3IiBzdHlsZT0idGV4dC1kZWNvcmF0aW9uOjsiPuWwhm5vZGXlhaXpmJ88L3RzcGFuPjwvdHNwYW4+PC90ZXh0PjwvZz48L2c+PGcgaWQ9IlN2Z2pzRzE5MTgiIHRyYW5zZm9ybT0idHJhbnNsYXRlKDcyOSwxODc4LjQwMDAwMTUyNTg3OSkiPjxwYXRoIGlkPSJTdmdqc1BhdGgxOTE5IiBkPSJNIDAgMEwgMTI1IDBMIDEyNSA2OEwgMCA2OFoiIHN0cm9rZT0ibm9uZSIgZmlsbD0ibm9uZSIvPjxnIGlkPSJTdmdqc0cxOTIwIj48dGV4dCBpZD0iU3ZnanNUZXh0MTkyMSIgZm9udC1mYW1pbHk9IuW+rui9r+mbhem7kSIgdGV4dC1hbmNob3I9Im1pZGRsZSIgZm9udC1zaXplPSIxM3B4IiB3aWR0aD0iMTI1cHgiIGZpbGw9IiNmNDQzMzYiIGZvbnQtd2VpZ2h0PSI0MDAiIGFsaWduPSJtaWRkbGUiIGxpbmVoZWlnaHQ9IjEyNSUiIGFuY2hvcj0ibWlkZGxlIiBmYW1pbHk9IuW+rui9r+mbhem7kSIgc2l6ZT0iMTNweCIgd2VpZ2h0PSI0MDAiIGZvbnQtc3R5bGU9IiIgb3BhY2l0eT0iMSIgeT0iMTQuODc1IiB0cmFuc2Zvcm09InJvdGF0ZSgwKSI+PHRzcGFuIGlkPSJTdmdqc1RzcGFuMTkyMiIgZHk9IjE2IiB4PSI2Mi41Ij48dHNwYW4gaWQ9IlN2Z2pzVHNwYW4xOTIzIiBzdHlsZT0idGV4dC1kZWNvcmF0aW9uOjsiPuWwhmZpcnN055qEd2FpdFN0YXRl5LuOPC90c3Bhbj48L3RzcGFuPjx0c3BhbiBpZD0iU3ZnanNUc3BhbjE5MjQiIGR5PSIxNiIgeD0iNjIuNSI+PHRzcGFuIGlkPSJTdmdqc1RzcGFuMTkyNSIgc3R5bGU9InRleHQtZGVjb3JhdGlvbjo7Ij5DT05ESVRJT07mlLnkuLowPC90c3Bhbj48L3RzcGFuPjwvdGV4dD48L2c+PC9nPjxnIGlkPSJTdmdqc0cxOTI2IiB0cmFuc2Zvcm09InRyYW5zbGF0ZSg2OTEuNSwyMDgzLjkwMDM5NjM0NzA0NikiPjxwYXRoIGlkPSJTdmdqc1BhdGgxOTI3IiBkPSJNIDAgNDAuNTQ5NzkwMzgyMzg1MjU0TCA4NSAwTCAxNzAgNDAuNTQ5NzkwMzgyMzg1MjU0TCA4NSA4MS4wOTk1ODA3NjQ3NzA1MVoiIHN0cm9rZT0icmdiYSg1MCw1MCw1MCwxKSIgc3Ryb2tlLXdpZHRoPSIyIiBmaWxsLW9wYWNpdHk9IjEiIGZpbGw9IiNmZmI3NGQiLz48ZyBpZD0iU3ZnanNHMTkyOCI+PHRleHQgaWQ9IlN2Z2pzVGV4dDE5MjkiIGZvbnQtZmFtaWx5PSLlvq7ova/pm4Xpu5EiIHRleHQtYW5jaG9yPSJtaWRkbGUiIGZvbnQtc2l6ZT0iMTNweCIgd2lkdGg9IjE1MHB4IiBmaWxsPSIjMzIzMjMyIiBmb250LXdlaWdodD0iNDAwIiBhbGlnbj0ibWlkZGxlIiBsaW5laGVpZ2h0PSIxMjUlIiBhbmNob3I9Im1pZGRsZSIgZmFtaWx5PSLlvq7ova/pm4Xpu5EiIHNpemU9IjEzcHgiIHdlaWdodD0iNDAwIiBmb250LXN0eWxlPSIiIG9wYWNpdHk9IjEiIHk9IjEzLjgzMDI4ODI4NjIwOTEwNyIgdHJhbnNmb3JtPSJyb3RhdGUoMCkiPjx0c3BhbiBpZD0iU3ZnanNUc3BhbjE5MzAiIGR5PSIxNiIgeD0iODUiPjx0c3BhbiBpZD0iU3ZnanNUc3BhbjE5MzEiIHN0eWxlPSJ0ZXh0LWRlY29yYXRpb246OyI+6Zif5YiX5YmN6amx57uT54K5PC90c3Bhbj48L3RzcGFuPjx0c3BhbiBpZD0iU3ZnanNUc3BhbjE5MzIiIGR5PSIxNiIgeD0iODUiPjx0c3BhbiBpZD0iU3ZnanNUc3BhbjE5MzMiIHN0eWxlPSJ0ZXh0LWRlY29yYXRpb246OyI+d2FpdFN0YXRlJmd0OzAg5oiWY2Fz6K6+572u5YmNPC90c3Bhbj48L3RzcGFuPjx0c3BhbiBpZD0iU3ZnanNUc3BhbjE5MzQiIGR5PSIxNiIgeD0iODUiPjx0c3BhbiBpZD0iU3ZnanNUc3BhbjE5MzUiIHN0eWxlPSJ0ZXh0LWRlY29yYXRpb246OyI+6amx57uT54K5d3M9LTHlpLHotKU8L3RzcGFuPjwvdHNwYW4+PC90ZXh0PjwvZz48L2c+PGcgaWQ9IlN2Z2pzRzE5MzYiPjxwYXRoIGlkPSJTdmdqc1BhdGgxOTM3IiBkPSJNNzc2LjUgMjA2My40MDAxOTc5ODI3ODhMNzc2LjUgMjA3Mi4yMDAyODQ5NTc4ODU3TDc3Ni41IDIwNzIuMjAwMjg0OTU3ODg1N0w3NzYuNSAyMDgwLjMwMDM5NjM0NzA0NiIgc3Ryb2tlPSIjMTk3NmQyIiBzdHJva2Utd2lkdGg9IjIiIGZpbGw9Im5vbmUiIG1hcmtlci1lbmQ9InVybCgjU3ZnanNNYXJrZXIxOTM4KSIvPjwvZz48ZyBpZD0iU3ZnanNHMTk0MCI+PHBhdGggaWQ9IlN2Z2pzUGF0aDE5NDEiIGQ9Ik04NjIuNSAyMTI0LjQ1MDE4NjcyOTQzMUw5ODAuNDc0OTkwODQ0NzI2NiAyMTI0LjQ1MDE4NjcyOTQzMUw5ODAuNDc0OTkwODQ0NzI2NiAyMDIwLjkwMDE5Nzk4Mjc4OEw5MDUuOTg3NDk1NDIyMzYzMyAyMDIwLjkwMDE5Nzk4Mjc4OEw5MDUuOTg3NDk1NDIyMzYzMyAyMDQ3LjMwMDE5Nzk4Mjc4ODIiIHN0cm9rZT0iIzMyMzIzMiIgc3Ryb2tlLXdpZHRoPSIyIiBmaWxsPSJub25lIiBtYXJrZXItZW5kPSJ1cmwoI1N2Z2pzTWFya2VyMTk0MikiLz48cmVjdCBpZD0iU3ZnanNSZWN0MTk0NCIgd2lkdGg9IjEzIiBoZWlnaHQ9IjE2IiB4PSI5NzMuOTc0OTkwODQ0NzI2NCIgeT0iMjA3My4yMTg5NDAwNjcyOTEiIGZpbGw9IiNmZmZmZmYiLz48dGV4dCBpZD0iU3ZnanNUZXh0MTk0NSIgZm9udC1mYW1pbHk9IuW+rui9r+mbhem7kSIgdGV4dC1hbmNob3I9Im1pZGRsZSIgZm9udC1zaXplPSIxM3B4IiB3aWR0aD0iMTNweCIgZmlsbD0iIzMyMzIzMiIgZm9udC13ZWlnaHQ9IjQwMCIgYWxpZ249InRvcCIgbGluZWhlaWdodD0iMTZweCIgYW5jaG9yPSJtaWRkbGUiIGZhbWlseT0i5b6u6L2v6ZuF6buRIiBzaXplPSIxM3B4IiB3ZWlnaHQ9IjQwMCIgZm9udC1zdHlsZT0iIiBvcGFjaXR5PSIxIiB5PSIyMDcwLjU5Mzk0MDA2NzI5MSIgdHJhbnNmb3JtPSJyb3RhdGUoMCkiPjx0c3BhbiBpZD0iU3ZnanNUc3BhbjE5NDYiIGR5PSIxNiIgeD0iOTgwLjQ3NDk5MDg0NDcyNjQiPjx0c3BhbiBpZD0iU3ZnanNUc3BhbjE5NDciIHN0eWxlPSJ0ZXh0LWRlY29yYXRpb246OyI+5pivPC90c3Bhbj48L3RzcGFuPjwvdGV4dD48L2c+PGcgaWQ9IlN2Z2pzRzE5NDgiIHRyYW5zZm9ybT0idHJhbnNsYXRlKDg2MS41LDIwNTAuOTAwMTk3OTgyNzg4KSI+PHBhdGggaWQ9IlN2Z2pzUGF0aDE5NDkiIGQ9Ik0gMCAwTCA4OC45NzQ5OTA4NDQ3MjY1NiAwTCA4OC45NzQ5OTA4NDQ3MjY1NiA1MS4wOTk3NzkxMjkwMjgzMkwgMCA1MS4wOTk3NzkxMjkwMjgzMloiIHN0cm9rZT0icmdiYSg1MCw1MCw1MCwxKSIgc3Ryb2tlLXdpZHRoPSIyIiBmaWxsLW9wYWNpdHk9IjEiIGZpbGw9IiNmZmZmZmYiLz48ZyBpZD0iU3ZnanNHMTk1MCI+PHRleHQgaWQ9IlN2Z2pzVGV4dDE5NTEiIGZvbnQtZmFtaWx5PSLlvq7ova/pm4Xpu5EiIHRleHQtYW5jaG9yPSJtaWRkbGUiIGZvbnQtc2l6ZT0iMTNweCIgd2lkdGg9IjY5cHgiIGZpbGw9IiMzMjMyMzIiIGZvbnQtd2VpZ2h0PSI0MDAiIGFsaWduPSJtaWRkbGUiIGxpbmVoZWlnaHQ9IjEyNSUiIGFuY2hvcj0ibWlkZGxlIiBmYW1pbHk9IuW+rui9r+mbhem7kSIgc2l6ZT0iMTNweCIgd2VpZ2h0PSI0MDAiIGZvbnQtc3R5bGU9IiIgb3BhY2l0eT0iMSIgeT0iNi40MjQ4ODk1NjQ1MTQxNiIgdHJhbnNmb3JtPSJyb3RhdGUoMCkiPjx0c3BhbiBpZD0iU3ZnanNUc3BhbjE5NTIiIGR5PSIxNiIgeD0iNDQuNSI+PHRzcGFuIGlkPSJTdmdqc1RzcGFuMTk1MyIgc3R5bGU9InRleHQtZGVjb3JhdGlvbjo7Ij51bnBhcmvlvZM8L3RzcGFuPjwvdHNwYW4+PHRzcGFuIGlkPSJTdmdqc1RzcGFuMTk1NCIgZHk9IjE2IiB4PSI0NC41Ij48dHNwYW4gaWQ9IlN2Z2pzVHNwYW4xOTU1IiBzdHlsZT0idGV4dC1kZWNvcmF0aW9uOjsiPuWJjeiKgueCuee6v+eoizwvdHNwYW4+PC90c3Bhbj48L3RleHQ+PC9nPjwvZz48ZyBpZD0iU3ZnanNHMTk1NiI+PHBhdGggaWQ9IlN2Z2pzUGF0aDE5NTciIGQ9Ik03NzYuNSAyMTY1Ljk5OTk3NzExMTgxNjRMNzc2LjUgMjE2Ni4wMDAzOTQ4MjExNjdMODYzLjM4NzQ5NTQyMjM2MzMgMjE2Ni4wMDAzOTQ4MjExNjciIHN0cm9rZT0iIzMyMzIzMiIgc3Ryb2tlLXdpZHRoPSIyIiBmaWxsPSJub25lIiBtYXJrZXItZW5kPSJ1cmwoI1N2Z2pzTWFya2VyMTk1OCkiLz48cmVjdCBpZD0iU3ZnanNSZWN0MTk2MCIgd2lkdGg9IjEzIiBoZWlnaHQ9IjE2IiB4PSI4MTMuNDQzNTM4ODU2NTA2NCIgeT0iMjE1OC4wMDAzOTQ4MjExNjciIGZpbGw9IiNmZmZmZmYiLz48dGV4dCBpZD0iU3ZnanNUZXh0MTk2MSIgZm9udC1mYW1pbHk9IuW+rui9r+mbhem7kSIgdGV4dC1hbmNob3I9Im1pZGRsZSIgZm9udC1zaXplPSIxM3B4IiB3aWR0aD0iMTNweCIgZmlsbD0iIzMyMzIzMiIgZm9udC13ZWlnaHQ9IjQwMCIgYWxpZ249InRvcCIgbGluZWhlaWdodD0iMTZweCIgYW5jaG9yPSJtaWRkbGUiIGZhbWlseT0i5b6u6L2v6ZuF6buRIiBzaXplPSIxM3B4IiB3ZWlnaHQ9IjQwMCIgZm9udC1zdHlsZT0iIiBvcGFjaXR5PSIxIiB5PSIyMTU1LjM3NTM5NDgyMTE2NyIgdHJhbnNmb3JtPSJyb3RhdGUoMCkiPjx0c3BhbiBpZD0iU3ZnanNUc3BhbjE5NjIiIGR5PSIxNiIgeD0iODE5Ljk0MzUzODg1NjUwNjQiPjx0c3BhbiBpZD0iU3ZnanNUc3BhbjE5NjMiIHN0eWxlPSJ0ZXh0LWRlY29yYXRpb246OyI+5ZCmPC90c3Bhbj48L3RzcGFuPjwvdGV4dD48L2c+PGcgaWQ9IlN2Z2pzRzE5NjQiIHRyYW5zZm9ybT0idHJhbnNsYXRlKDg2Ni45ODc0OTU0MjIzNjMzLDIxNDcuMDAwMzk0ODIxMTY3KSI+PHBhdGggaWQ9IlN2Z2pzUGF0aDE5NjUiIGQ9Ik0gMCAwTCA3OCAwTCA3OCAzOEwgMCAzOFoiIHN0cm9rZT0icmdiYSg1MCw1MCw1MCwxKSIgc3Ryb2tlLXdpZHRoPSIyIiBmaWxsLW9wYWNpdHk9IjEiIGZpbGw9IiNmZmZmZmYiLz48ZyBpZD0iU3ZnanNHMTk2NiI+PHRleHQgaWQ9IlN2Z2pzVGV4dDE5NjciIGZvbnQtZmFtaWx5PSLlvq7ova/pm4Xpu5EiIHRleHQtYW5jaG9yPSJtaWRkbGUiIGZvbnQtc2l6ZT0iMTNweCIgd2lkdGg9IjU4cHgiIGZpbGw9IiMzMjMyMzIiIGZvbnQtd2VpZ2h0PSI0MDAiIGFsaWduPSJtaWRkbGUiIGxpbmVoZWlnaHQ9IjEyNSUiIGFuY2hvcj0ibWlkZGxlIiBmYW1pbHk9IuW+rui9r+mbhem7kSIgc2l6ZT0iMTNweCIgd2VpZ2h0PSI0MDAiIGZvbnQtc3R5bGU9IiIgb3BhY2l0eT0iMSIgeT0iOC4zNzUiIHRyYW5zZm9ybT0icm90YXRlKDApIj48dHNwYW4gaWQ9IlN2Z2pzVHNwYW4xOTY4IiBkeT0iMTYiIHg9IjM5Ij48dHNwYW4gaWQ9IlN2Z2pzVHNwYW4xOTY5IiBzdHlsZT0idGV4dC1kZWNvcmF0aW9uOjsiPui/lOWbnnRydWU8L3RzcGFuPjwvdHNwYW4+PC90ZXh0PjwvZz48L2c+PGcgaWQ9IlN2Z2pzRzE5NzAiPjxwYXRoIGlkPSJTdmdqc1BhdGgxOTcxIiBkPSJNOTA1Ljk4NzQ5NTQyMjM2MzMgMjEwMi45OTk5NzcxMTE4MTY0TDkwNS45ODc0OTU0MjIzNjMzIDIxMjQuNTAwMTg1OTY2NDkxN0w5MDUuOTg3NDk1NDIyMzYzMyAyMTI0LjUwMDE4NTk2NjQ5MTdMOTA1Ljk4NzQ5NTQyMjM2MzMgMjE0My40MDAzOTQ4MjExNjciIHN0cm9rZT0iIzMyMzIzMiIgc3Ryb2tlLXdpZHRoPSIyIiBmaWxsPSJub25lIiBtYXJrZXItZW5kPSJ1cmwoI1N2Z2pzTWFya2VyMTk3MikiLz48L2c+PGcgaWQ9IlN2Z2pzRzE5NzQiIHRyYW5zZm9ybT0idHJhbnNsYXRlKDk5MS4wOTk5OTA4NDQ3MjY2LDIxMDEuNDAwMzk2MzQ3MDQ2KSI+PHBhdGggaWQ9IlN2Z2pzUGF0aDE5NzUiIGQ9Ik0gMCAwTCAxNjIgMEwgMTYyIDEwNi41OTk1ODA3NjQ3NzA1MUwgMCAxMDYuNTk5NTgwNzY0NzcwNTFaIiBzdHJva2U9Im5vbmUiIGZpbGw9Im5vbmUiLz48ZyBpZD0iU3ZnanNHMTk3NiI+PHRleHQgaWQ9IlN2Z2pzVGV4dDE5NzciIGZvbnQtZmFtaWx5PSLlvq7ova/pm4Xpu5EiIHRleHQtYW5jaG9yPSJtaWRkbGUiIGZvbnQtc2l6ZT0iMTNweCIgd2lkdGg9IjE2MnB4IiBmaWxsPSIjN2IxZmEyIiBmb250LXdlaWdodD0iNDAwIiBhbGlnbj0ibWlkZGxlIiBsaW5laGVpZ2h0PSIxMjUlIiBhbmNob3I9Im1pZGRsZSIgZmFtaWx5PSLlvq7ova/pm4Xpu5EiIHNpemU9IjEzcHgiIHdlaWdodD0iNDAwIiBmb250LXN0eWxlPSIiIG9wYWNpdHk9IjEiIHk9IjEwLjE3NDc5MDM4MjM4NTI1NCIgdHJhbnNmb3JtPSJyb3RhdGUoMCkiPjx0c3BhbiBpZD0iU3ZnanNUc3BhbjE5NzgiIGR5PSIxNiIgeD0iODEiPjx0c3BhbiBpZD0iU3ZnanNUc3BhbjE5NzkiIHN0eWxlPSJ0ZXh0LWRlY29yYXRpb246OyI+5omA5Lul5LiA6Iis5LiN5Lya6L+b5Y67IGlmIOivreWPpeWdlzwvdHNwYW4+PC90c3Bhbj48dHNwYW4gaWQ9IlN2Z2pzVHNwYW4xOTgwIiBkeT0iMTYiIHg9IjgxIj48dHNwYW4gaWQ9IlN2Z2pzVHNwYW4xOTgxIiBzdHlsZT0idGV4dC1kZWNvcmF0aW9uOjsiPuS4reWUpOmGkiBub2RlIOWvueW6lOeahOe6v+eoi+OAgjwvdHNwYW4+PC90c3Bhbj48dHNwYW4gaWQ9IlN2Z2pzVHNwYW4xOTgyIiBkeT0iMTYiIHg9IjgxIj48dHNwYW4gaWQ9IlN2Z2pzVHNwYW4xOTgzIiBzdHlsZT0idGV4dC1kZWNvcmF0aW9uOjsiPueEtuWQjui/meS4quaWueazlei/lOWbniB0cnVl77yM5LmfPC90c3Bhbj48L3RzcGFuPjx0c3BhbiBpZD0iU3ZnanNUc3BhbjE5ODQiIGR5PSIxNiIgeD0iODEiPjx0c3BhbiBpZD0iU3ZnanNUc3BhbjE5ODUiIHN0eWxlPSJ0ZXh0LWRlY29yYXRpb246OyI+5bCx5oSP5ZGz552AIHNpZ25hbCDmlrnms5Xnu5PmnZ88L3RzcGFuPjwvdHNwYW4+PHRzcGFuIGlkPSJTdmdqc1RzcGFuMTk4NiIgZHk9IjE2IiB4PSI4MSI+PHRzcGFuIGlkPSJTdmdqc1RzcGFuMTk4NyIgc3R5bGU9InRleHQtZGVjb3JhdGlvbjo7Ij7kuobvvIzoioLngrnov5vlhaXkuoblkIzmraXpmJ/liJc8L3RzcGFuPjwvdHNwYW4+PC90ZXh0PjwvZz48L2c+PGcgaWQ9IlN2Z2pzRzE5ODgiPjxwYXRoIGlkPSJTdmdqc1BhdGgxOTg5IiBkPSJNMTc2IDE5MjIuNDAwMDAxNTI1ODc5TDIxNC43NSAxOTIyLjQwMDAwMTUyNTg3OUwyMTQuNzUgMTg4NS40MDAwMDE1MjU4NzlMMjUwLjg5OTk5OTk5OTk5OTk4IDE4ODUuNDAwMDAxNTI1ODc5IiBzdHJva2UtZGFzaGFycmF5PSIzLDMiIHN0cm9rZT0iIzMyMzIzMiIgc3Ryb2tlLXdpZHRoPSIyIiBmaWxsPSJub25lIiBtYXJrZXItZW5kPSJ1cmwoI1N2Z2pzTWFya2VyMTk5MCkiLz48L2c+PGcgaWQ9IlN2Z2pzRzE5OTIiPjxwYXRoIGlkPSJTdmdqc1BhdGgxOTkzIiBkPSJNNjU1LjY1MDAwOTE1NTI3MzQgMjAyOC45MDAxOTc5ODI3ODhMNjg2LjMyNTAwNDU3NzYzNjcgMjAyOC45MDAxOTc5ODI3ODhMNjg2LjMyNTAwNDU3NzYzNjcgMTk2NC40MDAwMDE1MjU4NzlMNzE0LjQgMTk2NC40MDAwMDE1MjU4NzkiIHN0cm9rZS1kYXNoYXJyYXk9IjMsMyIgc3Ryb2tlPSIjMzIzMjMyIiBzdHJva2Utd2lkdGg9IjIiIGZpbGw9Im5vbmUiIG1hcmtlci1lbmQ9InVybCgjU3ZnanNNYXJrZXIxOTk0KSIvPjwvZz48ZyBpZD0iU3ZnanNHMTk5NiI+PHBhdGggaWQ9IlN2Z2pzUGF0aDE5OTciIGQ9Ik02NTguNSAyMTAyLjQwMDM5NjM0NzA0Nkw2NjQuNSAyMTAyLjQwMDM5NjM0NzA0Nkw2NjQuNSAyMTU5LjkwMDAwMTUyNTg3OUw2MTUuMSAyMTU5LjkwMDAwMTUyNTg3OSIgc3Ryb2tlPSIjMzIzMjMyIiBzdHJva2Utd2lkdGg9IjIiIGZpbGw9Im5vbmUiIG1hcmtlci1lbmQ9InVybCgjU3ZnanNNYXJrZXIxOTk4KSIvPjxyZWN0IGlkPSJTdmdqc1JlY3QyMDAwIiB3aWR0aD0iMTMiIGhlaWdodD0iMTYiIHg9IjY1OCIgeT0iMjE0NC44NTAxOTg5MzY0NjIiIGZpbGw9IiNmZmZmZmYiLz48dGV4dCBpZD0iU3ZnanNUZXh0MjAwMSIgZm9udC1mYW1pbHk9IuW+rui9r+mbhem7kSIgdGV4dC1hbmNob3I9Im1pZGRsZSIgZm9udC1zaXplPSIxM3B4IiB3aWR0aD0iMTNweCIgZmlsbD0iIzMyMzIzMiIgZm9udC13ZWlnaHQ9IjQwMCIgYWxpZ249InRvcCIgbGluZWhlaWdodD0iMTZweCIgYW5jaG9yPSJtaWRkbGUiIGZhbWlseT0i5b6u6L2v6ZuF6buRIiBzaXplPSIxM3B4IiB3ZWlnaHQ9IjQwMCIgZm9udC1zdHlsZT0iIiBvcGFjaXR5PSIxIiB5PSIyMTQyLjIyNTE5ODkzNjQ2MiIgdHJhbnNmb3JtPSJyb3RhdGUoMCkiPjx0c3BhbiBpZD0iU3ZnanNUc3BhbjIwMDIiIGR5PSIxNiIgeD0iNjY0LjUiPjx0c3BhbiBpZD0iU3ZnanNUc3BhbjIwMDMiIHN0eWxlPSJ0ZXh0LWRlY29yYXRpb246OyI+5pivPC90c3Bhbj48L3RzcGFuPjwvdGV4dD48L2c+PGcgaWQ9IlN2Z2pzRzIwMDQiIHRyYW5zZm9ybT0idHJhbnNsYXRlKDI4LjA1MDAxODMxMDU0Njg3NSwxNjU5Ljk0OTk4OTMxODg0NzcpIj48cGF0aCBpZD0iU3ZnanNQYXRoMjAwNSIgZD0iTSAwIDBMIDIxOC4wNDk5NzI1MzQxNzk3IDBMIDIxOC4wNDk5NzI1MzQxNzk3IDEyNi45MDAwMjQ0MTQwNjI1TCAwIDEyNi45MDAwMjQ0MTQwNjI1WiIgc3Ryb2tlPSJub25lIiBmaWxsPSJub25lIi8+PGcgaWQ9IlN2Z2pzRzIwMDYiPjx0ZXh0IGlkPSJTdmdqc1RleHQyMDA3IiBmb250LWZhbWlseT0i5b6u6L2v6ZuF6buRIiB0ZXh0LWFuY2hvcj0ibWlkZGxlIiBmb250LXNpemU9IjEzcHgiIHdpZHRoPSIyMTlweCIgZmlsbD0iIzdiMWZhMiIgZm9udC13ZWlnaHQ9IjQwMCIgYWxpZ249Im1pZGRsZSIgbGluZWhlaWdodD0iMTI1JSIgYW5jaG9yPSJtaWRkbGUiIGZhbWlseT0i5b6u6L2v6ZuF6buRIiBzaXplPSIxM3B4IiB3ZWlnaHQ9IjQwMCIgZm9udC1zdHlsZT0iIiBvcGFjaXR5PSIxIiB5PSIxMS44MjUwMTIyMDcwMzEyNSIgdHJhbnNmb3JtPSJyb3RhdGUoMCkiPjx0c3BhbiBpZD0iU3ZnanNUc3BhbjIwMDgiIGR5PSIxNiIgeD0iMTA5LjUiPjx0c3BhbiBpZD0iU3ZnanNUc3BhbjIwMDkiIHN0eWxlPSJ0ZXh0LWRlY29yYXRpb246OyI+5Zyo6Zi75aGe55qE6L+H56iL5Lit77yM5Y+v6IO95Lya5pyJ5YW25LuW57q/56iLPC90c3Bhbj48L3RzcGFuPjx0c3BhbiBpZD0iU3ZnanNUc3BhbjIwMTAiIGR5PSIxNiIgeD0iMTA5LjUiPjx0c3BhbiBpZD0iU3ZnanNUc3BhbjIwMTEiIHN0eWxlPSJ0ZXh0LWRlY29yYXRpb246OyI+5L2/55Soc2lnbmFs5pa55rOV5bCG5b2T5YmN57q/56iL6IqC54K556e75Yqo5YiwPC90c3Bhbj48L3RzcGFuPjx0c3BhbiBpZD0iU3ZnanNUc3BhbjIwMTIiIGR5PSIxNiIgeD0iMTA5LjUiPjx0c3BhbiBpZD0iU3ZnanNUc3BhbjIwMTMiIHN0eWxlPSJ0ZXh0LWRlY29yYXRpb246OyI+5LqG5ZCM5q2l6Zif5YiX5Lit5Y6777yM5YaN54S25ZCO5YmN6Z2i55qE57q/56iLPC90c3Bhbj48L3RzcGFuPjx0c3BhbiBpZD0iU3ZnanNUc3BhbjIwMTQiIGR5PSIxNiIgeD0iMTA5LjUiPjx0c3BhbiBpZD0iU3ZnanNUc3BhbjIwMTUiIHN0eWxlPSJ0ZXh0LWRlY29yYXRpb246OyI+6YeK5pS+6ZSB5pe25Lya5ZSk6YaS5b2T5YmN57q/56iL77yM54S25ZCO5Lya5Y+RPC90c3Bhbj48L3RzcGFuPjx0c3BhbiBpZD0iU3ZnanNUc3BhbjIwMTYiIGR5PSIxNiIgeD0iMTA5LjUiPjx0c3BhbiBpZD0iU3ZnanNUc3BhbjIwMTciIHN0eWxlPSJ0ZXh0LWRlY29yYXRpb246OyI+546w5q2k5pe25Zyo5ZCM5q2l6Zif5YiX5Lit77yM6L+b6ICM6LWw5Ye65b6qPC90c3Bhbj48L3RzcGFuPjx0c3BhbiBpZD0iU3ZnanNUc3BhbjIwMTgiIGR5PSIxNiIgeD0iMTA5LjUiPjx0c3BhbiBpZD0iU3ZnanNUc3BhbjIwMTkiIHN0eWxlPSJ0ZXh0LWRlY29yYXRpb246OyI+546v77yM5Y675LqJ5oqi6ZSBPC90c3Bhbj48L3RzcGFuPjwvdGV4dD48L2c+PC9nPjxnIGlkPSJTdmdqc0cyMDIwIj48cGF0aCBpZD0iU3ZnanNQYXRoMjAyMSIgZD0iTTQ3OS41IDE4MjUuOTk5OTc3MTExODE2NEw0MjMuNjc3MTI3NzE5NTc1MjUgMTc1NS44MzYxNTcyNjE4MzEyIiBzdHJva2UtZGFzaGFycmF5PSIzLDMiIHN0cm9rZT0iIzMyMzIzMiIgc3Ryb2tlLXdpZHRoPSIyIiBmaWxsPSJub25lIiBtYXJrZXItZW5kPSJ1cmwoI1N2Z2pzTWFya2VyMjAyMikiLz48cmVjdCBpZD0iU3ZnanNSZWN0MjAyNCIgd2lkdGg9IjEwNCIgaGVpZ2h0PSIzMiIgeD0iMzk5LjU4ODU2Mzg1OTc4NzY2IiB5PSIxNzc0LjkxODA2NzE4NjgyNCIgZmlsbD0iI2ZmZmZmZiIvPjx0ZXh0IGlkPSJTdmdqc1RleHQyMDI1IiBmb250LWZhbWlseT0i5b6u6L2v6ZuF6buRIiB0ZXh0LWFuY2hvcj0ibWlkZGxlIiBmb250LXNpemU9IjEzcHgiIHdpZHRoPSIxMDRweCIgZmlsbD0iIzMyMzIzMiIgZm9udC13ZWlnaHQ9IjQwMCIgYWxpZ249InRvcCIgbGluZWhlaWdodD0iMTZweCIgYW5jaG9yPSJtaWRkbGUiIGZhbWlseT0i5b6u6L2v6ZuF6buRIiBzaXplPSIxM3B4IiB3ZWlnaHQ9IjQwMCIgZm9udC1zdHlsZT0iIiBvcGFjaXR5PSIxIiB5PSIxNzcyLjI5MzA2NzE4NjgyNCIgdHJhbnNmb3JtPSJyb3RhdGUoMCkiPjx0c3BhbiBpZD0iU3ZnanNUc3BhbjIwMjYiIGR5PSIxNiIgeD0iNDUxLjU4ODU2Mzg1OTc4NzY2Ij48dHNwYW4gaWQ9IlN2Z2pzVHNwYW4yMDI3IiBzdHlsZT0idGV4dC1kZWNvcmF0aW9uOjsiPuWQjOatpemYn+WIl+WJjemdoue6v+eoizwvdHNwYW4+PC90c3Bhbj48dHNwYW4gaWQ9IlN2Z2pzVHNwYW4yMDI4IiBkeT0iMTYiIHg9IjQ1MS41ODg1NjM4NTk3ODc2NiI+PHRzcGFuIGlkPSJTdmdqc1RzcGFuMjAyOSIgc3R5bGU9InRleHQtZGVjb3JhdGlvbjo7Ij7ph4rmlL7plIHml7bllKTphpI8L3RzcGFuPjwvdHNwYW4+PC90ZXh0PjwvZz48ZyBpZD0iU3ZnanNHMjAzMCIgdHJhbnNmb3JtPSJ0cmFuc2xhdGUoNzE2LjUsMjE5NC45MDAwMDE1MjU4NzkpIj48cGF0aCBpZD0iU3ZnanNQYXRoMjAzMSIgZD0iTSAwIDBMIDEyMCAwTCAxMjAgNTMuMTk5OTc0MDYwMDU4NTk0TCAwIDUzLjE5OTk3NDA2MDA1ODU5NFoiIHN0cm9rZT0ibm9uZSIgZmlsbD0ibm9uZSIvPjxnIGlkPSJTdmdqc0cyMDMyIj48dGV4dCBpZD0iU3ZnanNUZXh0MjAzMyIgZm9udC1mYW1pbHk9IuW+rui9r+mbhem7kSIgdGV4dC1hbmNob3I9Im1pZGRsZSIgZm9udC1zaXplPSIxM3B4IiB3aWR0aD0iMTIwcHgiIGZpbGw9IiM3YjFmYTIiIGZvbnQtd2VpZ2h0PSI0MDAiIGFsaWduPSJtaWRkbGUiIGxpbmVoZWlnaHQ9IjEyNSUiIGFuY2hvcj0ibWlkZGxlIiBmYW1pbHk9IuW+rui9r+mbhem7kSIgc2l6ZT0iMTNweCIgd2VpZ2h0PSI0MDAiIGZvbnQtc3R5bGU9IiIgb3BhY2l0eT0iMSIgeT0iLTAuNTI1MDEyOTY5OTcwNzAzMSIgdHJhbnNmb3JtPSJyb3RhdGUoMCkiPjx0c3BhbiBpZD0iU3ZnanNUc3BhbjIwMzQiIGR5PSIxNiIgeD0iNjAiPjx0c3BhbiBpZD0iU3ZnanNUc3BhbjIwMzUiIHN0eWxlPSJ0ZXh0LWRlY29yYXRpb246OyI+5Y2z5LiA6Iis5oOF5Ya15LiL5bCx5piv6L+bPC90c3Bhbj48L3RzcGFuPjx0c3BhbiBpZD0iU3ZnanNUc3BhbjIwMzYiIGR5PSIxNiIgeD0iNjAiPjx0c3BhbiBpZD0iU3ZnanNUc3BhbjIwMzciIHN0eWxlPSJ0ZXh0LWRlY29yYXRpb246OyI+5YWl6Zif5YiX77yM5bm26K6p5YmN6amx57uTPC90c3Bhbj48L3RzcGFuPjx0c3BhbiBpZD0iU3ZnanNUc3BhbjIwMzgiIGR5PSIxNiIgeD0iNjAiPjx0c3BhbiBpZD0iU3ZnanNUc3BhbjIwMzkiIHN0eWxlPSJ0ZXh0LWRlY29yYXRpb246OyI+54K55Y+r6YaS6Ieq5bexPC90c3Bhbj48L3RzcGFuPjwvdGV4dD48L2c+PC9nPjxnIGlkPSJTdmdqc0cyMDQwIiB0cmFuc2Zvcm09InRyYW5zbGF0ZSg3MTcuNSwxNjEwLjU5OTk1MjY5Nzc1NCkiPjxwYXRoIGlkPSJTdmdqc1BhdGgyMDQxIiBkPSJNIDAgMEwgMTQ1IDBMIDE0NSA4NC45MDAwMjQ0MTQwNjI1TCAwIDg0LjkwMDAyNDQxNDA2MjVaIiBzdHJva2U9Im5vbmUiIGZpbGw9Im5vbmUiLz48ZyBpZD0iU3ZnanNHMjA0MiI+PHRleHQgaWQ9IlN2Z2pzVGV4dDIwNDMiIGZvbnQtZmFtaWx5PSLlvq7ova/pm4Xpu5EiIHRleHQtYW5jaG9yPSJtaWRkbGUiIGZvbnQtc2l6ZT0iMTNweCIgd2lkdGg9IjE0NXB4IiBmaWxsPSIjN2IxZmEyIiBmb250LXdlaWdodD0iNDAwIiBhbGlnbj0ibWlkZGxlIiBsaW5laGVpZ2h0PSIxMjUlIiBhbmNob3I9Im1pZGRsZSIgZmFtaWx5PSLlvq7ova/pm4Xpu5EiIHNpemU9IjEzcHgiIHdlaWdodD0iNDAwIiBmb250LXN0eWxlPSIiIG9wYWNpdHk9IjEiIHk9Ii0wLjY3NDk4Nzc5Mjk2ODc1IiB0cmFuc2Zvcm09InJvdGF0ZSgwKSI+PHRzcGFuIGlkPSJTdmdqc1RzcGFuMjA0NCIgZHk9IjE2IiB4PSI3Mi41Ij48dHNwYW4gaWQ9IlN2Z2pzVHNwYW4yMDQ1IiBzdHlsZT0idGV4dC1kZWNvcmF0aW9uOjsiPuWJjemdomZ1bGx5UmVsZWFzZeS5i+WJjeWwsTwvdHNwYW4+PC90c3Bhbj48dHNwYW4gaWQ9IlN2Z2pzVHNwYW4yMDQ2IiBkeT0iMTYiIHg9IjcyLjUiPjx0c3BhbiBpZD0iU3ZnanNUc3BhbjIwNDciIHN0eWxlPSJ0ZXh0LWRlY29yYXRpb246OyI+5bey57uP5L+d5a2Y5LqG5LmL5YmN55qEc3RhdGU8L3RzcGFuPjwvdHNwYW4+PHRzcGFuIGlkPSJTdmdqc1RzcGFuMjA0OCIgZHk9IjE2IiB4PSI3Mi41Ij48dHNwYW4gaWQ9IlN2Z2pzVHNwYW4yMDQ5IiBzdHlsZT0idGV4dC1kZWNvcmF0aW9uOjsiPuWAvO+8jOWNs+mUgemHjeWFpeasoeaVsO+8jOWboOiAjDwvdHNwYW4+PC90c3Bhbj48dHNwYW4gaWQ9IlN2Z2pzVHNwYW4yMDUwIiBkeT0iMTYiIHg9IjcyLjUiPjx0c3BhbiBpZD0iU3ZnanNUc3BhbjIwNTEiIHN0eWxlPSJ0ZXh0LWRlY29yYXRpb246OyI+6L+Z6YeM5Y+v5Lul5oGi5aSN5YiwYXdhaXTkuYs8L3RzcGFuPjwvdHNwYW4+PHRzcGFuIGlkPSJTdmdqc1RzcGFuMjA1MiIgZHk9IjE2IiB4PSI3Mi41Ij48dHNwYW4gaWQ9IlN2Z2pzVHNwYW4yMDUzIiBzdHlsZT0idGV4dC1kZWNvcmF0aW9uOjsiPuWJjeeahOmUgeeKtuaAgTwvdHNwYW4+PC90c3Bhbj48L3RleHQ+PC9nPjwvZz48ZyBpZD0iU3ZnanNHMjA1NCI+PHBhdGggaWQ9IlN2Z2pzUGF0aDIwNTUiIGQ9Ik02MzQuMDg3MTU1NzQyNzQ3NyAxNzM5LjAwMzc4MjQxMzcyNDZMNjM0LjA4NzE1NTc0Mjc0NzcgMTc1Ni4zOTk5NzcxMTE4MTY1IiBzdHJva2UtZGFzaGFycmF5PSIzLDMiIHN0cm9rZT0iIzMyMzIzMiIgc3Ryb2tlLXdpZHRoPSIyIiBmaWxsPSJub25lIiBtYXJrZXItZW5kPSJ1cmwoI1N2Z2pzTWFya2VyMjA1NikiLz48L2c+PGcgaWQ9IlN2Z2pzRzIwNTgiIHRyYW5zZm9ybT0idHJhbnNsYXRlKDUyNC4wNDk5OTU0MjIzNjMzLDE3NTkuOTAwMDAxNTI1ODc5KSI+PHBhdGggaWQ9IlN2Z2pzUGF0aDIwNTkiIGQ9Ik0gMCAwTCAzMTAuOTUwMDA0NTc3NjM2NyAwTCAzMTAuOTUwMDA0NTc3NjM2NyA1NC4wOTk5NzU1ODU5Mzc1TCAwIDU0LjA5OTk3NTU4NTkzNzVaIiBzdHJva2U9InJnYmEoNTAsNTAsNTAsMSkiIHN0cm9rZS13aWR0aD0iMiIgZmlsbC1vcGFjaXR5PSIxIiBmaWxsPSIjZmZmZmZmIi8+PGcgaWQ9IlN2Z2pzRzIwNjAiPjx0ZXh0IGlkPSJTdmdqc1RleHQyMDYxIiBmb250LWZhbWlseT0i5b6u6L2v6ZuF6buRIiB0ZXh0LWFuY2hvcj0ibWlkZGxlIiBmb250LXNpemU9IjEzcHgiIHdpZHRoPSIyOTFweCIgZmlsbD0iIzMyMzIzMiIgZm9udC13ZWlnaHQ9IjQwMCIgYWxpZ249Im1pZGRsZSIgbGluZWhlaWdodD0iMTI1JSIgYW5jaG9yPSJtaWRkbGUiIGZhbWlseT0i5b6u6L2v6ZuF6buRIiBzaXplPSIxM3B4IiB3ZWlnaHQ9IjQwMCIgZm9udC1zdHlsZT0iIiBvcGFjaXR5PSIxIiB5PSItMC4wNzUwMTIyMDcwMzEyNSIgdHJhbnNmb3JtPSJyb3RhdGUoMCkiPjx0c3BhbiBpZD0iU3ZnanNUc3BhbjIwNjIiIGR5PSIxNiIgeD0iMTU1LjUiPjx0c3BhbiBpZD0iU3ZnanNUc3BhbjIwNjMiIHN0eWxlPSJ0ZXh0LWRlY29yYXRpb246OyI+Y2Fz6K+V5Zu+6I635Y+W6ZSB77yM5aaC5p6c5Yeg5qyh6I635b6X5LiN5Yiw5YiZ6Zi75aGePC90c3Bhbj48L3RzcGFuPjx0c3BhbiBpZD0iU3ZnanNUc3BhbjIwNjQiIGR5PSIxNiIgeD0iMTU1LjUiPjx0c3BhbiBpZD0iU3ZnanNUc3BhbjIwNjUiIHN0eWxlPSJ0ZXh0LWRlY29yYXRpb246OyI+6L+Z6YeM5piv5LuO5p2h5Lu26Zif5YiX5Lit5Ye65p2l77yM5p2l5Yiw5ZCM5q2l6Zif5YiX5Lit6Zi75aGePC90c3Bhbj48L3RzcGFuPjx0c3BhbiBpZD0iU3ZnanNUc3BhbjIwNjYiIGR5PSIxNiIgeD0iMTU1LjUiPjx0c3BhbiBpZD0iU3ZnanNUc3BhbjIwNjciIHN0eWxlPSJ0ZXh0LWRlY29yYXRpb246OyI+55u05Yiw5YmN6Z2i6ZSBb3duZXLnur/nqIvph4rmlL7plIHml7bllKTphpI8L3RzcGFuPjwvdHNwYW4+PC90ZXh0PjwvZz48L2c+PC9zdmc+;" vertex="1" parent="1">
                    <mxGeometry width="1359.35" height="2310" as="geometry"/>
                </mxCell>
            </root>
        </mxGraphModel>
    </diagram>
</mxfile>